SplineFontDB: 1.0
FontName: NimbusMonL-ReguObli
FullName: Nimbus Mono L Regular Oblique
FamilyName: Nimbus Mono L
Weight: Regular
Copyright: Copyright (URW)++,Copyright 1999 by (URW)++ Design & Development; Cyrillic glyphs added by Valek Filippov (C) 2001
Version: 1.06
ItalicAngle: -12
UnderlinePosition: -100
UnderlineWidth: 50
Ascent: 620
Descent: 155
NeedsXUIDChange: 1
UniqueID: 4158049
FSType: 0
OS2WinAscent: 0
OS2WinAOffset: 1
OS2WinDescent: 0
OS2WinDOffset: 1
HheadAscent: 0
HheadAOffset: 1
HheadDescent: 0
HheadDOffset: 1
ScriptLang: 2
 1 latn 1 dflt 
 1 DFLT 1 dflt 
Encoding: adobestandard
UnicodeInterp: none
DisplaySize: -36
AntiAlias: 1
FitToEm: 1
WinInfo: 330 30 14
BeginPrivate: 7
BlueValues 31 [-20 0 417 437 563 583 603 623]
BlueScale 8 0.039625
StdHW 4 [41]
StdVW 4 [43]
StemSnapH 4 [41]
StemSnapV 2 []
ForceBold 5 false
EndPrivate
BeginChars: 767 660
StartChar: exclam
Encoding: 33 33 2
Width: 598
Flags: W
HStem: -15 100<300 313> 598 20G<416.5 440>
Fore
458 563 m 2
 370 237 l 1
 365 217 357 209 343 209 c 0
 335 209 328 216 328 225 c 0
 328 228 328 231 329 237 c 2
 380 563 l 2
 386 601 402 618 431 618 c 0
 449 618 464 606 464 589 c 0
 464 584 461 575 458 563 c 2
311 85 m 2
 323 85 l 2
 350 85 368 69 368 45 c 0
 368 13 337 -15 302 -15 c 2
 290 -15 l 2
 265 -15 246 1 246 24 c 0
 246 57 277 85 311 85 c 2
EndSplineSet
EndChar
StartChar: quotedbl
Encoding: 34 34 3
Width: 598
Flags: W
HStem: 584 20G<274 402 454 583>
Fore
274 604 m 1
 402 604 l 1
 316 351 l 1
 306 326 295 316 277 316 c 0
 263 316 254 325 254 341 c 2
 254 351 l 1
 274 604 l 1
454 604 m 1
 583 604 l 1
 495 351 l 1
 485 326 475 316 458 316 c 0
 443 316 434 325 434 341 c 2
 434 351 l 1
 454 604 l 1
EndSplineSet
EndChar
StartChar: numbersign
Encoding: 35 35 4
Width: 598
Flags: W
HStem: 189 42<158 248 299 377 430 512> 189 208<225 377 346 501> 356 41<214 294 346 425 477 566>
DStem: 248 189 286 189 184 -33 225 -36 294 356 334 356 258 231 299 231 369 623 409 619 305 397 346 397 377 189 419 189 316 -33 356 -36 425 356 466 356 390 231 430 231 500 623 540 619 437 397 477 397
Fore
466 356 m 1x20
 430 231 l 1
 510 231 l 2
 527 231 534 225 534 214 c 0
 534 199 521 189 501 189 c 2xa0
 419 189 l 1x40
 356 -36 l 1
 350 -53 342 -62 329 -62 c 0
 320 -62 313 -55 313 -46 c 0
 313 -42 314 -39 316 -33 c 1
 377 189 l 1x80
 286 189 l 1x40
 225 -36 l 1
 218 -53 210 -62 197 -62 c 0
 188 -62 181 -55 181 -46 c 0
 181 -42 181 -42 184 -33 c 1
 248 189 l 1
 160 189 l 2
 144 189 137 194 137 205 c 0
 137 221 149 231 169 231 c 2
 258 231 l 1
 294 356 l 1
 216 356 l 2xa0
 199 356 192 360 192 373 c 0
 192 388 204 397 225 397 c 2
 305 397 l 1
 369 623 l 2
 374 640 382 647 394 647 c 0
 404 647 411 640 411 632 c 0
 411 629 410 623 409 619 c 2
 346 397 l 1
 437 397 l 1
 500 623 l 2
 505 640 515 647 525 647 c 0
 536 647 542 640 542 632 c 0
 542 629 542 629 540 619 c 1
 477 397 l 1x40
 566 397 l 2
 583 397 589 392 589 381 c 0
 589 367 576 356 557 356 c 2
 466 356 l 1x20
425 356 m 1
 334 356 l 1
 299 231 l 1
 390 231 l 1
 425 356 l 1
EndSplineSet
EndChar
StartChar: dollar
Encoding: 36 36 5
Width: 598
Flags: W
HStem: 66 133<147 176> 448 115<542 566> 539 116<416 441>
VStem: 225 42<407 421> 492 42<218 232>
DStem: 292 53 333 53 266 -66 307 -66 414 627 455 627 403 576 444 576
Fore
403 576 m 1xb8
 414 627 l 1
 417 646 426 655 441 655 c 0xb8
 449 655 456 648 456 640 c 1
 455 627 l 1
 444 576 l 1
 487 572 508 562 539 534 c 1
 544 553 553 563 566 563 c 0
 575 563 583 556 583 549 c 0
 583 545 583 542 580 536 c 1
 567 476 l 1
 564 458 553 448 542 448 c 0xd8
 535 448 530 451 525 461 c 1
 527 485 l 1
 527 490 507 511 493 519 c 0
 475 530 441 539 416 539 c 0
 342 539 267 478 267 417 c 0
 267 400 277 381 291 371 c 0
 308 360 326 354 385 342 c 0
 454 329 481 320 502 301 c 1
 521 286 534 257 534 232 c 0
 534 140 450 66 333 53 c 1
 307 -66 l 1
 303 -83 295 -92 282 -92 c 0
 272 -92 265 -85 265 -76 c 1
 266 -66 l 1
 292 53 l 1
 246 56 197 79 177 108 c 1
 174 92 l 1
 169 74 161 66 147 66 c 0
 140 66 131 72 131 80 c 0
 131 83 132 89 133 92 c 1
 149 171 l 1
 153 188 163 199 176 199 c 0
 181 199 187 195 192 187 c 1
 189 155 l 1
 189 150 216 123 229 114 c 0
 248 101 286 92 320 92 c 0
 411 92 492 150 492 220 c 0
 492 239 481 260 466 271 c 0
 448 285 433 289 367 303 c 0
 303 316 277 325 256 341 c 0
 238 356 225 383 225 409 c 0
 225 489 305 566 403 576 c 1xb8
EndSplineSet
EndChar
StartChar: percent
Encoding: 37 37 6
Width: 598
Flags: W
HStem: -12 37<356 369> 198 37<401 413> 363 37<312 330> 573 37<356 369>
VStem: 216 39<460 470> 260 39<83 101> 428 39<499 517> 472 39<129 139>
DStem: 566 380 569 343 159 258 163 222
Fore
411 235 m 0
 470 235 511 197 511 137 c 0
 511 61 437 -12 358 -12 c 0
 302 -12 260 30 260 86 c 0
 260 163 334 235 411 235 c 0
403 198 m 0
 350 198 299 147 299 93 c 0
 299 55 326 25 367 25 c 0
 421 25 472 76 472 131 c 0
 472 170 444 198 403 198 c 0
367 610 m 0
 426 610 467 570 467 512 c 0
 467 436 393 363 314 363 c 0
 257 363 216 405 216 462 c 0
 216 538 290 610 367 610 c 0
360 573 m 0
 306 573 255 522 255 468 c 0
 255 430 284 400 322 400 c 0
 377 400 428 451 428 505 c 0
 428 545 400 573 360 573 c 0
569 343 m 2
 163 222 l 2
 159 220 154 220 150 220 c 0
 143 220 137 227 137 235 c 0
 137 245 144 252 159 258 c 1
 566 380 l 2
 570 381 573 382 578 382 c 0
 585 382 591 375 591 367 c 0
 591 356 584 348 569 343 c 2
EndSplineSet
EndChar
StartChar: ampersand
Encoding: 38 38 7
Width: 598
Flags: W
HStem: -16 41<243 261> 208 41<461 506> 478 41<386 405>
VStem: 132 42<106 123> 249 41<377 385>
DStem: 286 251 314 299 357 86 388 121 373 49 403 83 393 0 422 41
Fore
393 0 m 1
 373 49 l 1
 334 5 292 -16 248 -16 c 0
 181 -16 132 36 132 108 c 0
 132 189 192 263 277 286 c 1
 252 348 249 359 249 379 c 0
 249 449 324 519 399 519 c 0
 422 519 442 513 461 499 c 1
 472 505 l 2
 479 508 485 510 490 510 c 0
 498 510 505 502 505 494 c 0
 505 483 499 476 483 468 c 2
 448 451 l 1
 431 470 414 478 391 478 c 0
 341 478 290 428 290 381 c 0
 290 364 297 339 314 299 c 2
 388 121 l 1
 417 159 441 200 461 249 c 1
 504 249 l 2
 521 249 527 245 527 233 c 0
 527 217 515 208 495 208 c 2
 483 208 l 1
 458 154 428 110 403 83 c 1
 422 41 l 1
 460 41 l 2
 476 41 483 36 483 25 c 0
 483 10 470 0 451 0 c 2
 393 0 l 1
357 86 m 1
 286 251 l 1
 222 237 174 180 174 117 c 0
 174 66 209 25 255 25 c 0
 290 25 326 47 357 86 c 1
EndSplineSet
EndChar
StartChar: quoteright
Encoding: 39 8217 8
Width: 598
Flags: W
HStem: 584 20G<335 468>
Fore
335 604 m 1
 468 604 l 1
 267 339 l 2
 252 320 244 314 231 314 c 0
 217 314 208 324 208 337 c 0
 208 342 209 348 212 354 c 2
 335 604 l 1
EndSplineSet
KernsSLIF: 65 -185 1 0 225 -198 1 0 257 -185 1 0 256 -185 1 0 262 -185 1 0 44 -259 1 0 100 -166 1 0 111 -174 1 0 46 -290 1 0 114 -193 1 0 115 -185 1 0 116 -152 1 0 118 -144 1 0 119 -139 1 0 121 -158 1 0
EndChar
StartChar: parenleft
Encoding: 40 40 9
Width: 598
Flags: W
HStem: 584 20G<559.5 571>
VStem: 335 59<115 149>
Fore
566 604 m 0
 576 604 583 597 583 589 c 0
 583 581 583 581 572 567 c 0
 449 407 394 269 394 124 c 0
 394 56 407 -8 434 -93 c 1
 436 -96 437 -100 437 -101 c 0
 437 -112 424 -124 411 -124 c 0
 407 -124 400 -121 398 -115 c 1
 383 -90 370 -53 354 4 c 0
 340 53 335 89 335 138 c 0
 335 268 381 383 493 530 c 0
 536 586 553 604 566 604 c 0
EndSplineSet
EndChar
StartChar: parenright
Encoding: 41 41 10
Width: 598
Flags: W
HStem: 584 20G<289.5 298.5>
VStem: 313 60<323 358>
Fore
296 604 m 0
 301 604 306 601 309 595 c 0
 345 533 373 422 373 342 c 0
 373 212 326 97 214 -50 c 0
 172 -106 154 -124 141 -124 c 0
 131 -124 124 -117 124 -108 c 0
 124 -103 125 -100 130 -93 c 0
 256 69 313 208 313 356 c 0
 313 424 301 489 272 573 c 0
 271 576 269 579 269 581 c 0
 269 592 283 604 296 604 c 0
EndSplineSet
EndChar
StartChar: asterisk
Encoding: 42 42 11
Width: 598
Flags: W
HStem: 584 20G<421 432.5>
DStem: 227 442 249 481 351 400 373 438 351 400 379 376 246 288 274 265 379 376 417 400 437 265 475 288 402 576 443 576 373 438 413 438 556 481 559 442 413 438 417 400
Fore
373 438 m 1
 402 576 l 1
 407 595 414 604 428 604 c 0
 437 604 444 597 444 589 c 1
 443 576 l 1
 413 438 l 1
 556 481 l 2
 561 483 568 484 572 484 c 0
 579 484 586 476 586 468 c 0
 586 455 578 448 559 442 c 2
 417 400 l 1
 475 288 l 2
 477 284 479 275 479 273 c 0
 479 262 466 250 454 250 c 0
 447 250 443 252 437 265 c 1
 379 376 l 1
 274 265 l 1
 265 254 258 250 251 250 c 0
 242 250 234 257 234 266 c 0
 234 274 235 275 246 288 c 1
 351 400 l 1
 227 442 l 1
 225 443 l 2
 217 444 211 451 211 458 c 0
 211 471 223 483 235 483 c 0
 240 483 242 483 249 481 c 2
 373 438 l 1
EndSplineSet
EndChar
StartChar: plus
Encoding: 43 43 12
Width: 598
Flags: W
HStem: 261 41<152 333 383 566>
DStem: 334 261 375 261 291 59 333 59 386 502 427 502 343 302 383 302
Fore
375 261 m 1
 333 59 l 1
 328 41 320 32 306 32 c 0
 297 32 290 39 290 47 c 1
 291 59 l 1
 334 261 l 1
 154 261 l 2
 138 261 131 266 131 277 c 0
 131 292 143 302 161 302 c 2
 343 302 l 1
 386 502 l 2
 390 521 398 530 411 530 c 0
 421 530 428 523 428 515 c 1
 427 502 l 1
 383 302 l 1
 564 302 l 2
 581 302 589 299 589 286 c 0
 589 271 575 261 556 261 c 2
 375 261 l 1
EndSplineSet
EndChar
StartChar: comma
Encoding: 44 44 13
Width: 598
Flags: W
Fore
238 144 m 1
 371 144 l 1
 170 -120 l 2
 155 -140 147 -144 133 -144 c 0
 120 -144 110 -135 110 -123 c 0
 110 -117 112 -110 115 -106 c 1
 238 144 l 1
EndSplineSet
KernsSLIF: 49 -190 1 0 186 -158 1 0 39 -183 1 0
EndChar
StartChar: hyphen
Encoding: 45 45 14
Width: 598
Flags: W
HStem: 258 41<152 566>
Fore
556 258 m 2
 154 258 l 2
 138 258 131 263 131 274 c 0
 131 290 143 299 163 299 c 2
 566 299 l 2
 581 299 589 294 589 283 c 0
 589 268 576 258 556 258 c 2
EndSplineSet
KernsSLIF: 65 -37 1 0 225 -29 1 0 257 -37 1 0 256 -37 1 0 262 -37 1 0 84 -126 1 0 86 -56 1 0 87 -5 1 0 89 -122 1 0
EndChar
StartChar: period
Encoding: 46 46 15
Width: 598
Flags: W
HStem: -15 21G<291 302>
Fore
319 117 m 2
 330 117 l 2
 363 117 386 95 386 64 c 0
 386 22 346 -15 302 -15 c 2
 291 -15 l 2
 258 -15 235 6 235 36 c 0
 235 79 275 117 319 117 c 2
EndSplineSet
KernsSLIF: 49 -161 1 0 186 -147 1 0 39 -171 1 0
EndChar
StartChar: slash
Encoding: 47 47 16
Width: 598
Flags: W
DStem: 583 650 617 633 107 -46 141 -63
Fore
617 633 m 1
 141 -63 l 1
 131 -76 125 -81 115 -81 c 0
 107 -81 100 -74 100 -66 c 0
 100 -59 101 -55 107 -46 c 2
 583 650 l 2
 592 664 600 667 608 667 c 0
 618 667 625 661 625 652 c 0
 625 647 623 643 617 633 c 1
EndSplineSet
EndChar
StartChar: zero
Encoding: 48 48 17
Width: 598
Flags: W
HStem: -15 40<297 318> 576 42<412 432>
VStem: 157 43<159 194> 527 45<416 450>
DStem: 187 351 227 346 166 251 208 257 519 346 561 351 500 257 540 251
Fore
561 351 m 1
 540 251 l 1
 506 93 408 -15 299 -15 c 0
 208 -15 157 50 157 161 c 0
 157 191 159 221 166 251 c 1
 187 351 l 2
 220 508 320 618 430 618 c 0
 519 618 572 553 572 441 c 0
 572 411 568 382 561 351 c 1
227 346 m 1
 208 257 l 2
 203 233 200 206 200 178 c 0
 200 76 235 25 305 25 c 0
 346 25 385 44 414 79 c 0
 453 124 485 193 500 257 c 1
 519 346 l 2
 524 370 527 398 527 425 c 0
 527 525 492 576 422 576 c 0
 380 576 342 559 313 524 c 0
 273 478 240 410 227 346 c 1
EndSplineSet
KernsSLIF: 52 -82 1 0 49 -117 1 0 55 -107 1 0
EndChar
StartChar: one
Encoding: 49 49 18
Width: 598
Flags: W
HStem: 0 41<139 289 330 470>
DStem: 398 557 451 612 289 41 330 41 451 612 398 557 254 553 258 515
Fore
451 612 m 1
 330 41 l 1
 468 41 l 2
 485 41 492 36 492 25 c 0
 492 10 481 0 461 0 c 2
 141 0 l 2
 124 0 117 5 117 16 c 0
 117 32 129 41 149 41 c 2
 289 41 l 1
 398 557 l 1
 258 515 l 2
 248 512 246 512 243 512 c 0
 235 512 228 519 228 528 c 0
 228 541 235 549 254 553 c 1
 451 612 l 1
EndSplineSet
KernsSLIF: 44 -129 1 0 56 -120 1 0 53 -98 1 0 52 -163 1 0 57 -104 1 0 49 -89 1 0 46 -163 1 0 55 -189 1 0 54 -153 1 0 51 -89 1 0 50 -68 1 0 48 -131 1 0
EndChar
StartChar: two
Encoding: 50 50 19
Width: 598
Flags: W
HStem: 0 41<132 478> 0 104<476 481> 576 42<403 426>
VStem: 530 42<463 481>
Fore
132 41 m 1xb0
 447 41 l 1xb0
 453 76 l 1
 458 95 466 104 481 104 c 0x70
 489 104 496 97 496 89 c 0
 496 86 496 85 494 76 c 2
 478 0 l 1xb0
 84 0 l 1x70
 97 59 l 1
 380 282 l 1
 507 385 530 414 530 471 c 0
 530 529 478 576 414 576 c 0
 343 576 273 533 244 472 c 0
 237 458 231 451 218 451 c 0
 211 451 203 459 203 466 c 0
 203 481 225 516 250 542 c 0
 299 591 360 618 424 618 c 0
 505 618 572 555 572 479 c 0
 572 427 552 388 496 334 c 0
 450 290 239 123 133 44 c 1
 132 41 l 1xb0
EndSplineSet
KernsSLIF: 52 -125 1 0 49 -94 1 0 55 -101 1 0
EndChar
StartChar: three
Encoding: 51 51 20
Width: 598
Flags: W
HStem: -15 40<275 303> 312 41<343 380> 576 42<413 435>
VStem: 496 42<191 199> 536 43<480 498>
Fore
444 328 m 1xe8
 505 301 538 254 538 197 c 0
 538 89 415 -15 286 -15 c 0
 238 -15 194 -2 148 25 c 0
 123 41 110 53 110 64 c 0
 110 76 123 89 133 89 c 0
 140 89 143 86 149 81 c 0
 191 44 240 25 297 25 c 0
 400 25 496 107 496 193 c 0xf0
 496 260 428 313 345 312 c 0
 329 312 322 317 322 328 c 0
 322 335 326 342 333 347 c 0
 339 353 339 353 380 353 c 0
 466 353 536 413 536 485 c 0
 536 539 492 576 424 576 c 0
 367 576 316 558 277 523 c 0
 265 511 261 508 252 508 c 0
 244 508 237 515 237 525 c 0
 237 534 246 545 267 561 c 0
 313 597 374 618 433 618 c 0
 519 618 579 567 579 493 c 0
 579 422 528 360 444 328 c 1xe8
EndSplineSet
KernsSLIF: 52 -74 1 0 49 -107 1 0 55 -96 1 0
EndChar
StartChar: four
Encoding: 52 52 21
Width: 598
Flags: W
HStem: 0 41<298 385 425 461> 0 210<189 451> 169 41<189 411 461 498> 543 20G<472 495> 584 20G<461 545>
DStem: 411 169 453 169 385 41 425 41 461 604 472 563 150 216 189 210 495 563 545 604 420 210 461 210
Fore
411 169 m 1xb8
 141 169 l 1
 150 216 l 1
 461 604 l 1
 545 604 l 1
 461 210 l 1
 495 210 l 2
 512 210 518 206 518 194 c 0
 518 178 506 169 487 169 c 2
 453 169 l 1
 425 41 l 1
 459 41 l 2
 476 41 483 36 483 25 c 0
 483 10 470 0 451 0 c 2
 300 0 l 2
 284 0 277 5 277 16 c 0
 277 32 289 41 309 41 c 2
 385 41 l 1
 411 169 l 1xb8
420 210 m 1x58
 495 563 l 1
 472 563 l 1
 189 210 l 1
 420 210 l 1x58
EndSplineSet
KernsSLIF: 52 -87 1 0 49 -94 1 0 55 -129 1 0
EndChar
StartChar: five
Encoding: 53 53 22
Width: 598
Flags: W
HStem: -15 40<279 311> 354 40<384 407> 563 41<278 561>
VStem: 506 43<240 258>
DStem: 278 604 309 563 221 335 268 365
Fore
309 563 m 1
 268 365 l 1
 324 386 363 394 405 394 c 0
 492 394 549 339 549 250 c 0
 549 108 428 -15 292 -15 c 0
 245 -15 201 -2 165 23 c 0
 133 45 113 66 113 78 c 0
 113 90 125 102 138 102 c 0
 143 102 147 100 153 93 c 0
 192 49 242 25 299 25 c 0
 367 25 427 59 466 118 c 0
 492 157 506 201 506 242 c 0
 506 311 462 354 392 354 c 0
 352 354 305 342 258 322 c 0
 246 316 242 313 235 313 c 0
 227 313 221 319 220 328 c 0
 220 330 220 333 221 335 c 1
 278 604 l 1
 559 604 l 2
 576 604 584 600 584 589 c 0
 584 572 572 563 552 563 c 2
 309 563 l 1
EndSplineSet
KernsSLIF: 52 -72 1 0 49 -116 1 0 55 -100 1 0
EndChar
StartChar: six
Encoding: 54 54 23
Width: 598
Flags: W
HStem: -15 40<327 345> 323 41<407 425> 576 42<535 561>
VStem: 510 42<208 226>
Fore
228 242 m 1
 286 324 350 364 420 364 c 0
 498 364 552 303 552 218 c 0
 552 100 445 -15 333 -15 c 0
 242 -15 184 59 184 178 c 0
 184 308 235 434 319 513 c 0
 390 580 478 618 559 618 c 0
 598 618 631 604 631 587 c 0
 631 575 620 563 608 563 c 0
 603 563 600 564 591 569 c 0
 583 574 566 576 546 576 c 0
 458 576 350 510 290 420 c 0
 257 369 239 318 228 242 c 1
222 188 m 1
 225 148 225 144 231 123 c 0
 246 58 283 25 343 25 c 0
 428 25 510 117 510 212 c 0
 510 275 468 323 411 323 c 0
 373 323 329 303 289 266 c 0
 271 250 256 232 222 188 c 1
EndSplineSet
KernsSLIF: 52 -67 1 0 49 -87 1 0 55 -70 1 0
EndChar
StartChar: seven
Encoding: 55 55 24
Width: 598
Flags: W
HStem: -1 21G<289.5 299.5> 563 41<233 557>
DStem: 553 545 592 539 284 32 319 19
Fore
553 545 m 1
 557 563 l 1
 265 563 l 1
 258 528 l 2
 254 508 245 500 231 500 c 0
 223 500 215 507 215 515 c 0
 215 518 216 523 217 528 c 2
 233 604 l 1
 606 604 l 1
 592 539 l 1
 319 19 l 2
 311 4 305 -1 294 -1 c 0
 285 -1 278 6 278 15 c 0
 278 19 280 24 284 32 c 2
 553 545 l 1
EndSplineSet
KernsSLIF: 58 -198 1 0 44 -188 1 0 56 -110 1 0 53 -117 1 0 52 -150 1 0 49 -95 1 0 46 -218 1 0 55 -89 1 0 54 -134 1 0 51 -101 1 0 50 -98 1 0
EndChar
StartChar: eight
Encoding: 56 56 25
Width: 598
Flags: W
HStem: -15 40<289 307> 292 41<358 372> 576 42<414 434>
VStem: 143 41<125 146> 216 41<416 434> 482 42<176 194> 534 42<471 485>
Fore
441 313 m 1
 496 285 524 244 524 192 c 0
 524 87 411 -15 296 -15 c 0
 208 -15 143 45 143 127 c 0
 143 206 197 274 291 313 c 1
 237 343 216 376 216 424 c 0
 216 522 323 618 432 618 c 0
 515 618 576 561 576 483 c 0
 576 436 552 388 510 353 c 0
 492 339 475 328 441 313 c 1
422 576 m 0
 339 576 257 504 257 428 c 0
 257 374 305 333 370 333 c 0
 458 333 534 399 534 473 c 0
 534 535 489 576 422 576 c 0
360 292 m 0
 268 292 184 218 184 135 c 0
 184 72 235 25 305 25 c 0
 396 25 482 103 482 184 c 0
 482 250 434 292 360 292 c 0
EndSplineSet
KernsSLIF: 52 -85 1 0 49 -109 1 0 55 -98 1 0
EndChar
StartChar: nine
Encoding: 57 57 26
Width: 598
Flags: W
HStem: -15 40<212 229> 239 41<349 367> 576 42<428 447>
VStem: 221 42<381 402>
Fore
545 360 m 1
 487 279 424 239 353 239 c 0
 275 239 221 299 221 383 c 0
 221 504 328 618 441 618 c 0
 532 618 589 542 589 424 c 0
 589 295 538 169 454 90 c 0
 383 23 295 -15 214 -15 c 0
 175 -15 142 -1 142 16 c 0
 142 28 153 40 165 40 c 0
 170 40 174 39 182 34 c 0
 191 29 208 25 227 25 c 0
 316 25 424 93 483 183 c 0
 510 225 532 282 541 334 c 0
 542 340 542 340 545 360 c 1
551 415 m 1
 549 454 549 459 542 481 c 1
 527 545 490 576 430 576 c 0
 343 576 263 487 263 391 c 0
 263 328 305 280 360 280 c 0
 400 280 444 300 484 337 c 0
 502 353 517 371 551 415 c 1
EndSplineSet
KernsSLIF: 52 -74 1 0 49 -108 1 0 55 -96 1 0
EndChar
StartChar: colon
Encoding: 58 58 27
Width: 598
Flags: W
HStem: -15 132<302 319> 285 132<367 383>
Fore
319 117 m 2
 330 117 l 2
 363 117 386 95 386 66 c 0
 386 22 346 -15 302 -15 c 2
 291 -15 l 2
 258 -15 235 6 235 36 c 0
 235 79 275 117 319 117 c 2
383 417 m 2
 394 417 l 2
 427 417 450 396 450 365 c 0
 450 323 410 285 367 285 c 2
 356 285 l 2
 322 285 299 306 299 337 c 0
 299 379 339 417 383 417 c 2
EndSplineSet
EndChar
StartChar: semicolon
Encoding: 59 59 28
Width: 598
Flags: W
HStem: 285 132<342 359>
Fore
242 144 m 1
 375 144 l 1
 174 -120 l 2
 159 -140 150 -144 138 -144 c 0
 124 -144 114 -135 114 -123 c 0
 114 -117 117 -110 119 -106 c 2
 242 144 l 1
359 417 m 2
 370 417 l 2
 403 417 426 396 426 365 c 0
 426 323 386 285 342 285 c 2
 331 285 l 2
 299 285 275 306 275 337 c 0
 275 379 316 417 359 417 c 2
EndSplineSet
EndChar
StartChar: less
Encoding: 60 60 29
Width: 598
Flags: W
DStem: 131 282 214 282 498 49 525 84 598 513 610 478 131 282 214 282
Fore
131 282 m 1
 598 513 l 2
 604 516 609 518 610 518 c 0
 618 518 623 515 625 508 c 2
 626 505 l 2
 627 502 627 502 627 499 c 0
 627 492 621 484 610 478 c 2
 214 282 l 1
 525 84 l 2
 533 79 535 76 535 70 c 0
 535 66 533 61 530 57 c 2
 528 53 l 1
 524 49 516 44 511 44 c 0
 508 44 502 46 498 49 c 2
 131 282 l 1
EndSplineSet
EndChar
StartChar: equal
Encoding: 61 61 30
Width: 598
Flags: W
HStem: 191 40<116 574> 334 41<147 604>
Fore
593 334 m 2
 149 334 l 2
 133 334 126 339 126 350 c 0
 126 367 138 375 158 375 c 2
 602 375 l 2
 618 375 625 370 625 359 c 0
 625 343 613 334 593 334 c 2
562 191 m 2
 118 191 l 2
 102 191 95 195 95 206 c 0
 95 222 107 231 127 231 c 2
 572 231 l 2
 587 231 593 226 593 215 c 0
 593 200 583 191 562 191 c 2
EndSplineSet
EndChar
StartChar: greater
Encoding: 62 62 31
Width: 598
Flags: W
DStem: 193 478 221 513 506 282 589 282 506 282 589 282 109 84 121 49
Fore
589 282 m 1
 121 49 l 2
 115 46 110 44 108 44 c 0
 101 44 96 49 93 53 c 1
 93 57 l 1
 92 59 92 61 92 63 c 0
 92 72 98 78 109 84 c 2
 506 282 l 1
 193 478 l 2
 186 483 184 485 184 492 c 0
 184 496 186 502 189 505 c 2
 191 508 l 2
 197 515 203 518 208 518 c 0
 211 518 216 516 221 513 c 2
 589 282 l 1
EndSplineSet
EndChar
StartChar: question
Encoding: 63 63 32
Width: 598
Flags: W
HStem: -15 100<294 324> 434 21G<243 254.5> 536 40<406 440>
VStem: 539 42<442 457>
DStem: 248 529 282 502 233 461 274 461 340 274 375 248 325 206 367 206
Fore
375 248 m 1
 367 206 l 1
 363 188 354 178 340 178 c 0
 331 178 324 186 324 194 c 1
 325 206 l 1
 340 274 l 1
 482 328 539 377 539 444 c 0
 539 500 492 536 419 536 c 0
 374 536 340 528 282 502 c 1
 274 461 l 1
 269 443 261 434 248 434 c 0
 238 434 231 441 231 450 c 0
 231 451 232 456 233 461 c 2
 248 529 l 1
 258 533 265 535 279 541 c 0
 348 569 381 576 433 576 c 0
 525 576 581 532 581 455 c 0
 581 407 556 356 515 323 c 0
 481 297 444 277 375 248 c 1
305 85 m 2
 333 85 l 2
 363 85 380 70 380 45 c 0
 380 12 350 -15 312 -15 c 2
 284 -15 l 2
 255 -15 237 0 237 24 c 0
 237 58 268 85 305 85 c 2
EndSplineSet
EndChar
StartChar: at
Encoding: 64 64 33
Width: 598
Flags: W
HStem: -62 41<283 303> 147 41<406 429> 376 40<480 506> 583 41<418 441>
VStem: 140 41<113 152> 297 42<243 259> 519 42<488 501>
DStem: 182 360 222 358 147 198 188 198 498 376 557 464 459 192 498 186 516 464 557 464 506 416 498 186
Fore
449 144 m 1
 450 150 l 1
 430 148 419 147 408 147 c 0
 343 147 297 187 297 245 c 0
 297 316 356 383 438 408 c 0
 461 414 477 416 506 416 c 1
 516 464 l 1
 518 472 519 481 519 490 c 0
 519 547 483 583 425 583 c 0
 334 583 250 490 222 358 c 2
 188 198 l 1
 184 176 181 152 181 131 c 0
 181 83 195 35 218 8 c 0
 235 -11 265 -21 301 -21 c 0
 343 -21 388 -8 411 8 c 0
 425 19 427 19 434 19 c 0
 443 19 450 13 450 5 c 0
 450 -27 364 -62 286 -62 c 0
 238 -62 201 -46 178 -13 c 0
 154 19 140 70 140 121 c 0
 140 146 142 172 147 198 c 1
 182 360 l 1
 214 513 320 624 433 624 c 0
 510 624 561 574 561 499 c 0
 561 487 559 475 557 464 c 1
 498 186 l 1
 508 184 515 180 515 170 c 0
 515 154 502 144 482 144 c 2
 449 144 l 1
459 192 m 1
 498 376 l 1
 410 376 339 322 339 255 c 0
 339 214 371 188 420 188 c 0
 432 188 447 189 459 192 c 1
EndSplineSet
EndChar
StartChar: A
Encoding: 65 65 34
Width: 598
Flags: W
HStem: 0 41<34 76 117 197 406 493 535 575> 188 41<227 468> 522 41<235 357 246 411>
VStem: 13 205<17 25> 385 211<16 25>
DStem: 357 522 397 522 76 41 227 229 357 522 203 188 76 41 117 41 411 522 449 563 462 229 536 41 468 188 449 563 493 41 536 41
Fore
468 188 m 1
 203 188 l 1
 117 41 l 1
 197 41 l 2
 214 41 218 36 218 25 c 0
 218 10 206 0 187 0 c 2
 36 0 l 2
 19 0 13 5 13 17 c 0
 13 32 25 41 45 41 c 2
 76 41 l 1
 357 522 l 1
 237 522 l 2
 221 522 214 527 214 538 c 0
 214 553 226 563 246 563 c 2
 449 563 l 1
 536 41 l 1
 573 41 l 2
 590 41 596 36 596 25 c 0
 596 10 584 0 564 0 c 2
 408 0 l 2
 392 0 385 5 385 16 c 0
 385 32 397 41 417 41 c 2
 493 41 l 1
 468 188 l 1
462 229 m 1
 411 522 l 1
 397 522 l 1
 227 229 l 1
 462 229 l 1
EndSplineSet
KernsSLIF: 67 -52 0 0 264 -50 0 0 71 -46 0 0 79 -45 0 0 286 -45 0 0 81 -46 0 0 84 -43 0 0 85 -52 0 0 299 -52 0 0 301 -52 0 0 298 -52 0 0 300 -52 0 0 86 -100 0 0 87 -24 0 0 89 -45 0 0 97 1 0 0 98 51 0 0 99 -32 0 0 332 -29 0 0 44 -60 0 0 100 -21 0 0 101 -27 0 0 103 -34 0 0 171 -73 0 0 172 -73 0 0 45 -45 0 0 111 -28 0 0 46 -90 0 0 113 -34 0 0 186 -107 0 0 39 -131 0 0 116 -42 0 0 117 -29 0 0 118 -76 0 0 119 -34 0 0 121 -81 0 0
EndChar
StartChar: B
Encoding: 66 66 35
Width: 598
Flags: W
HStem: 0 41<68 133 174 385> 272 41<232 400> 522 41<180 235 191 450>
VStem: 535 41<173 183> 549 42<431 449>
DStem: 235 522 275 522 133 41 232 313 235 522 223 272 133 41 174 41
Fore
133 41 m 1xf0
 235 522 l 1
 181 522 l 2
 165 522 158 527 158 539 c 0
 158 553 170 563 191 563 c 2
 448 563 l 2
 533 563 591 515 591 445 c 0xe8
 591 383 553 335 477 299 c 1
 544 273 576 234 576 181 c 0
 576 89 479 0 377 0 c 2
 70 0 l 2
 53 0 47 5 47 17 c 0
 47 32 59 41 79 41 c 2
 133 41 l 1xf0
232 313 m 1
 379 313 l 2
 475 313 549 368 549 437 c 0
 549 458 538 481 521 496 c 0
 501 515 476 522 441 522 c 2
 275 522 l 1
 232 313 l 1
174 41 m 1
 382 41 l 2
 464 41 535 104 535 175 c 0xf0
 535 201 518 229 493 246 c 0
 465 265 433 272 373 272 c 2
 223 272 l 1
 174 41 l 1
EndSplineSet
KernsSLIF: 65 -19 0 0 225 -20 0 0 257 -19 0 0 259 -19 0 0 256 -19 0 0 262 -19 0 0 261 -19 0 0 79 -19 0 0 234 6 0 0 287 -19 0 0 289 -19 0 0 286 -19 0 0 288 -19 0 0 233 -19 0 0 86 -46 0 0 87 -19 0 0 89 -74 0 0
EndChar
StartChar: C
Encoding: 67 67 36
Width: 598
Flags: W
HStem: -16 41<317 335> 536 40<413 430>
VStem: 110 42<191 209>
DStem: 132 325 172 319 115 242 157 248
Fore
586 507 m 1
 592 536 l 1
 596 553 606 563 618 563 c 0
 627 563 635 557 635 549 c 0
 635 546 633 541 633 536 c 1
 609 424 l 1
 606 407 596 396 583 396 c 0
 576 396 572 399 566 408 c 1
 570 447 l 1
 570 449 546 485 538 494 c 0
 515 518 464 536 419 536 c 0
 309 536 197 438 172 319 c 2
 157 248 l 2
 154 233 152 217 152 203 c 0
 152 101 227 25 328 25 c 0
 397 25 454 51 522 115 c 0
 530 123 534 125 542 125 c 0
 552 125 558 119 558 110 c 0
 558 100 551 91 524 67 c 1
 461 15 390 -16 319 -16 c 0
 201 -16 110 76 110 197 c 0
 110 212 112 227 115 242 c 2
 132 325 l 1
 144 386 188 455 242 502 c 0
 296 550 360 576 428 576 c 0
 494 576 549 552 586 507 c 1
EndSplineSet
KernsSLIF: 65 -19 0 0 225 -19 0 0 257 -19 0 0 256 -19 0 0 262 -19 0 0 72 -43 0 0 75 -24 0 0 79 -30 0 0 287 -30 0 0 286 -30 0 0
EndChar
StartChar: D
Encoding: 68 68 37
Width: 598
Flags: W
HStem: 0 41<68 114 154 305> 522 41<180 215 191 416>
VStem: 551 41<351 370>
DStem: 215 522 256 522 113 41 154 41 547 318 586 309 532 245 574 254
Fore
113 41 m 1
 215 522 l 1
 181 522 l 2
 165 522 158 527 158 538 c 0
 158 553 170 563 191 563 c 2
 410 563 l 2
 519 563 592 484 592 368 c 0
 592 348 590 329 586 309 c 1
 574 254 l 1
 544 112 419 0 290 0 c 2
 70 0 l 2
 53 0 47 5 47 16 c 0
 47 32 59 41 79 41 c 2
 113 41 l 1
154 41 m 1
 303 41 l 2
 399 41 508 140 532 245 c 1
 547 318 l 1
 549 333 551 346 551 357 c 0
 551 399 538 441 515 472 c 0
 488 507 453 522 399 522 c 2
 256 522 l 1
 154 41 l 1
EndSplineSet
KernsSLIF: 65 -60 0 0 257 -60 0 0 259 -60 0 0 256 -60 0 0 258 -60 0 0 262 -60 0 0 261 -60 0 0 74 -49 0 0 84 -60 0 0 86 -64 0 0 87 -24 0 0 88 -76 0 0 89 -92 0 0
EndChar
StartChar: E
Encoding: 69 69 38
Width: 598
Flags: W
HStem: 0 41<68 133 174 519> 200 113<232 377> 272 41<232 368> 522 41<180 235 191 569>
DStem: 235 522 275 522 133 41 232 313 235 522 223 272 133 41 174 41 368 272 427 358 358 227 399 227 386 358 427 358 377 313 399 227 513 160 553 160 488 41 519 0 569 522 619 563 549 424 589 424
Fore
223 272 m 1xb0
 174 41 l 1
 488 41 l 1
 513 160 l 2
 517 178 525 187 540 187 c 0
 549 187 556 180 556 172 c 0
 556 169 555 165 553 160 c 1
 519 0 l 1
 70 0 l 2
 53 0 47 5 47 17 c 0
 47 32 59 41 79 41 c 2
 133 41 l 1
 235 522 l 1
 181 522 l 2
 165 522 158 527 158 539 c 0
 158 553 170 563 191 563 c 2
 619 563 l 1
 589 424 l 1
 586 407 576 397 563 397 c 0
 553 397 547 404 547 411 c 1
 549 424 l 1
 569 522 l 1
 275 522 l 1
 232 313 l 1
 377 313 l 1
 386 358 l 1
 390 376 399 385 411 385 c 0
 422 385 428 377 428 370 c 0
 428 368 428 362 427 358 c 2
 399 227 l 1
 396 209 387 200 373 200 c 0xd0
 364 200 357 208 357 215 c 1
 358 227 l 1
 368 272 l 1
 223 272 l 1xb0
EndSplineSet
EndChar
StartChar: F
Encoding: 70 70 39
Width: 598
Flags: W
HStem: 0 41<68 133 174 314> 200 113<232 377> 272 41<232 368> 522 41<180 235 191 590>
DStem: 235 522 275 522 133 41 232 313 235 522 223 272 133 41 174 41 368 272 427 358 358 227 399 227 386 358 427 358 377 313 399 227 590 522 640 563 569 424 610 424
Fore
223 272 m 1xb0
 174 41 l 1
 312 41 l 2
 329 41 336 36 336 25 c 0
 336 10 323 0 303 0 c 2
 70 0 l 2
 53 0 47 5 47 16 c 0
 47 32 59 41 79 41 c 2
 133 41 l 1
 235 522 l 1
 181 522 l 2
 165 522 158 527 158 538 c 0
 158 553 170 563 191 563 c 2
 640 563 l 1
 610 424 l 1
 607 407 598 397 584 397 c 0
 576 397 568 404 568 411 c 1
 569 424 l 1
 590 522 l 1
 275 522 l 1
 232 313 l 1
 377 313 l 1
 386 358 l 1
 390 376 399 385 411 385 c 0
 422 385 428 379 428 370 c 0
 428 368 428 362 427 358 c 2
 399 227 l 1
 396 209 387 200 373 200 c 0xd0
 364 200 357 208 357 215 c 1
 358 227 l 1
 368 272 l 1
 223 272 l 1xb0
EndSplineSet
KernsSLIF: 65 -58 0 0 257 -58 0 0 259 -58 0 0 256 -58 0 0 258 -58 0 0 262 -58 0 0 261 -58 0 0 74 -129 0 0 79 -43 0 0 286 -43 0 0 97 -67 0 0 323 -67 0 0 322 -63 0 0 241 -32 0 0 328 -67 0 0 44 -221 0 0 101 -78 0 0 335 -78 0 0 45 -92 0 0 105 -65 0 0 106 -76 0 0 111 -87 0 0 352 -87 0 0 351 -68 0 0 250 -32 0 0 249 -87 0 0 46 -254 0 0 114 -46 0 0 117 -7 0 0
EndChar
StartChar: G
Encoding: 71 71 40
Width: 598
Flags: W
HStem: -16 41<315 349> 209 41<383 524 394 591> 417 21G<586 595> 536 40<426 445>
VStem: 108 42<175 193>
DStem: 131 318 172 317 115 244 157 244 524 209 566 209 492 59 528 36
Fore
566 209 m 1
 528 36 l 1
 462 2 392 -16 330 -16 c 0
 193 -16 108 59 108 178 c 0
 108 200 110 222 115 244 c 2
 131 318 l 1
 161 464 295 576 436 576 c 0
 502 576 553 558 590 522 c 1
 593 536 l 2
 597 553 606 563 619 563 c 0
 629 563 636 556 636 549 c 0
 636 545 636 544 633 536 c 1
 615 445 l 1
 610 427 601 417 589 417 c 0
 583 417 578 421 572 428 c 1
 575 465 l 1
 576 471 552 499 536 508 c 1
 513 525 468 536 428 536 c 0
 313 536 197 438 172 317 c 2
 157 244 l 1
 152 225 150 206 150 187 c 0
 150 86 222 25 341 25 c 0
 393 25 430 33 492 59 c 1
 524 209 l 1
 385 209 l 2
 369 209 362 214 362 225 c 0
 362 242 374 250 394 250 c 2
 589 250 l 2
 606 250 612 245 612 234 c 0
 612 218 600 209 579 209 c 2
 566 209 l 1
EndSplineSet
KernsSLIF: 84 -41 0 0 86 -1 0 0 87 -5 0 0 89 -28 0 0
EndChar
StartChar: H
Encoding: 72 72 41
Width: 598
Flags: W
HStem: 0 41<79 135 176 231 381 447 487 534> 272 41<234 495> 522 41<210 237 221 343 492 549 502 623>
VStem: 57 195<16 25> 189 175<538 547> 360 196<16 25> 471 175<538 547>
DStem: 237 522 278 522 135 41 234 313 237 522 225 272 135 41 176 41 495 272 589 522 447 41 487 41 549 522 589 522 504 313 487 41
Fore
495 272 m 1xe4
 225 272 l 1
 176 41 l 1
 231 41 l 2
 248 41 252 36 252 25 c 0
 252 10 240 0 221 0 c 2
 81 0 l 2
 64 0 57 5 57 16 c 0xf4
 57 32 69 41 89 41 c 2
 135 41 l 1
 237 522 l 1
 212 522 l 2
 197 522 189 527 189 538 c 0
 189 553 201 563 221 563 c 2
 341 563 l 2
 358 563 364 559 364 547 c 0
 364 532 352 522 333 522 c 2
 278 522 l 1
 234 313 l 1
 504 313 l 1
 549 522 l 1
 494 522 l 2
 478 522 471 527 471 538 c 0
 471 553 483 563 502 563 c 2
 623 563 l 2
 640 563 646 559 646 547 c 0xea
 646 532 633 522 614 522 c 2
 589 522 l 1
 487 41 l 1
 532 41 l 2
 550 41 556 36 556 25 c 0
 556 10 542 0 524 0 c 2
 383 0 l 2
 367 0 360 5 360 16 c 0
 360 32 373 41 392 41 c 2
 447 41 l 1
 495 272 l 1xe4
EndSplineSet
EndChar
StartChar: I
Encoding: 73 73 42
Width: 598
Flags: W
HStem: 0 41<138 288 329 470> 522 41<249 390 258 581>
DStem: 390 522 431 522 288 41 329 41
Fore
431 522 m 1
 329 41 l 1
 468 41 l 2
 485 41 492 36 492 25 c 0
 492 10 479 0 460 0 c 2
 140 0 l 2
 124 0 117 5 117 16 c 0
 117 32 129 41 148 41 c 2
 288 41 l 1
 390 522 l 1
 251 522 l 2
 235 522 228 527 228 538 c 0
 228 553 240 563 258 563 c 2
 579 563 l 2
 597 563 603 559 603 547 c 0
 603 532 590 522 572 522 c 2
 431 522 l 1
EndSplineSet
EndChar
StartChar: J
Encoding: 74 74 43
Width: 598
Flags: W
HStem: -16 41<259 280> 522 41<371 530 380 678>
DStem: 132 223 174 223 100 74 144 93 530 522 572 522 454 165 495 165
Fore
572 522 m 1
 495 165 l 1
 475 67 371 -16 269 -16 c 0
 205 -16 158 8 100 74 c 1
 132 223 l 2
 136 242 144 250 158 250 c 0
 167 250 174 243 174 235 c 2
 174 223 l 1
 144 93 l 1
 186 47 228 25 278 25 c 0
 360 25 438 87 454 165 c 1
 530 522 l 1
 373 522 l 2
 356 522 348 527 348 538 c 0
 348 553 360 563 380 563 c 2
 676 563 l 2
 693 563 699 559 699 547 c 0
 699 532 687 522 667 522 c 2
 572 522 l 1
EndSplineSet
KernsSLIF: 65 -19 0 0 225 -29 0 0 256 -19 0 0 262 -19 0 0
EndChar
StartChar: K
Encoding: 75 75 44
Width: 598
Flags: W
HStem: 0 41<68 133 174 250 497 555> 522 41<180 235 191 361 509 555 519 640>
VStem: 47 225<17 25> 158 225<539 547> 487 174<538 547>
DStem: 235 522 275 522 133 41 223 273 235 522 212 221 133 41 174 41 556 522 613 522 223 273 350 324 556 522 309 294 223 273 212 221
Fore
212 221 m 1xd8
 174 41 l 1
 248 41 l 2
 265 41 272 36 272 25 c 0
 272 10 258 0 240 0 c 2
 70 0 l 2
 53 0 47 5 47 17 c 0xe8
 47 32 59 41 79 41 c 2
 133 41 l 1
 235 522 l 1
 181 522 l 2
 165 522 158 527 158 539 c 0
 158 553 170 563 191 563 c 2
 359 563 l 2
 377 563 383 559 383 547 c 0
 383 532 371 522 351 522 c 2
 275 522 l 1
 223 273 l 1
 556 522 l 1
 511 522 l 2
 494 522 487 527 487 538 c 0
 487 553 499 563 519 563 c 2
 638 563 l 2
 657 563 661 559 661 547 c 0
 661 532 650 522 630 522 c 2
 613 522 l 1
 350 324 l 1
 437 284 464 233 498 41 c 1
 553 41 l 2
 570 41 576 36 576 25 c 0
 576 10 564 0 545 0 c 2
 459 0 l 1
 428 204 397 263 309 294 c 1
 212 221 l 1xd8
EndSplineSet
KernsSLIF: 67 -64 0 0 71 -59 0 0 79 -58 0 0 234 -36 0 0 287 -58 0 0 286 -58 0 0 83 -20 0 0 84 -23 0 0 97 -10 0 0 322 -10 0 0 241 24 0 0 328 -10 0 0 101 -38 0 0 45 -85 0 0 111 -41 0 0 352 -41 0 0 351 -41 0 0 117 -42 0 0 362 -42 0 0 121 -92 0 0
EndChar
StartChar: L
Encoding: 76 76 45
Width: 598
Flags: W
HStem: 0 41<88 195 235 541> 522 41<199 297 209 445>
DStem: 297 522 339 522 195 41 235 41 542 201 583 201 508 41 541 0
Fore
339 522 m 1
 235 41 l 1
 508 41 l 1
 542 201 l 1
 546 218 555 228 568 228 c 0
 578 228 585 222 585 214 c 0
 585 211 584 206 583 201 c 2
 541 0 l 1
 90 0 l 2
 74 0 67 5 67 16 c 0
 67 32 79 41 100 41 c 2
 195 41 l 1
 297 522 l 1
 201 522 l 2
 184 522 178 527 178 539 c 0
 178 553 191 563 209 563 c 2
 443 563 l 2
 460 563 466 559 466 547 c 0
 466 532 454 522 434 522 c 2
 339 522 l 1
EndSplineSet
KernsSLIF: 65 10 0 0 225 10 0 0 257 10 0 0 256 10 0 0 262 10 0 0 67 -24 0 0 264 -24 0 0 71 -23 0 0 79 -19 0 0 287 -19 0 0 289 -19 0 0 286 -19 0 0 288 -19 0 0 290 -19 0 0 83 -41 0 0 84 -76 0 0 85 -46 0 0 298 -46 0 0 86 -92 0 0 87 -41 0 0 89 -76 0 0 45 -1 0 0 186 -98 0 0 39 -108 0 0 117 -24 0 0 362 -24 0 0 121 -64 0 0
EndChar
StartChar: M
Encoding: 77 77 46
Width: 598
Flags: W
HStem: 0 41<36 82 123 199 415 500 541 575> 522 41<156 183 167 232 576 602 576 677>
VStem: 15 205<17 25> 394 204<17 25>
DStem: 183 522 225 522 81 41 123 41 232 522 266 563 316 169 350 215 576 563 593 522 350 215 362 169 602 522 643 522 500 41 541 41
Fore
362 169 m 1
 316 169 l 1
 232 522 l 1
 225 522 l 1
 123 41 l 1
 197 41 l 2
 214 41 220 36 220 25 c 0
 220 10 208 0 188 0 c 2
 38 0 l 2
 22 0 15 5 15 17 c 0
 15 32 27 41 47 41 c 2
 81 41 l 1
 183 522 l 1
 158 522 l 2
 141 522 135 527 135 539 c 0
 135 553 147 563 167 563 c 2
 266 563 l 1
 350 215 l 1
 576 563 l 1
 677 563 l 2
 694 563 700 559 700 547 c 0
 700 532 688 522 667 522 c 2
 643 522 l 1
 541 41 l 1
 575 41 l 2
 591 41 598 36 598 25 c 0
 598 10 585 0 566 0 c 2
 417 0 l 2
 400 0 394 5 394 17 c 0
 394 32 407 41 425 41 c 2
 500 41 l 1
 602 522 l 1
 593 522 l 1
 362 169 l 1
EndSplineSet
EndChar
StartChar: N
Encoding: 78 78 47
Width: 598
Flags: W
HStem: 0 41<67 113 153 229> 522 41<158 214 496 572 505 657>
VStem: 46 205<17 25> 473 205<538 547>
DStem: 214 522 251 504 112 41 153 41 251 504 275 563 449 0 473 59 572 522 612 522 473 59 501 0
Fore
501 0 m 1
 449 0 l 1
 251 504 l 1
 153 41 l 1
 227 41 l 2
 244 41 251 36 251 25 c 0
 251 10 238 0 218 0 c 2
 69 0 l 2
 53 0 46 5 46 17 c 0
 46 32 58 41 78 41 c 2
 112 41 l 1
 214 522 l 1
 160 522 l 2
 143 522 137 527 137 539 c 0
 137 553 149 563 169 563 c 2
 275 563 l 1
 473 59 l 1
 572 522 l 1
 498 522 l 2
 481 522 473 527 473 538 c 0
 473 553 485 563 505 563 c 2
 655 563 l 2
 672 563 678 559 678 547 c 0
 678 532 666 522 646 522 c 2
 612 522 l 1
 501 0 l 1
EndSplineSet
KernsSLIF: 65 -12 0 0 225 -12 0 0 257 -12 0 0 256 -12 0 0 262 -12 0 0 67 -23 0 0 264 -23 0 0 71 -20 0 0 79 -19 0 0 287 -19 0 0 286 -19 0 0 97 -29 0 0 323 -29 0 0 322 -29 0 0 241 9 0 0 328 -29 0 0 44 -82 0 0 101 -12 0 0 335 -12 0 0 111 -19 0 0 352 -19 0 0 351 -19 0 0 249 -14 0 0 46 -112 0 0 117 -19 0 0 362 -19 0 0
EndChar
StartChar: O
Encoding: 79 79 48
Width: 598
Flags: W
HStem: -16 41<293 311> 535 41<405 424>
VStem: 102 42<206 225> 574 43<335 359>
Fore
422 576 m 0
 536 576 617 485 617 357 c 0
 617 164 461 -16 296 -16 c 0
 181 -16 102 74 102 208 c 0
 102 396 258 576 422 576 c 0
415 535 m 0
 277 535 144 377 144 216 c 0
 144 106 211 25 302 25 c 0
 441 25 574 181 574 345 c 0
 574 455 507 535 415 535 c 0
EndSplineSet
KernsSLIF: 65 -42 0 0 225 -38 0 0 257 -42 0 0 256 -42 0 0 262 -42 0 0 84 -46 0 0 86 -51 0 0 87 -10 0 0 88 -60 0 0 89 -78 0 0
EndChar
StartChar: P
Encoding: 80 80 49
Width: 598
Flags: W
HStem: 0 41<68 133 174 314> 231 41<223 368> 522 41<180 235 191 432>
VStem: 545 42<415 433>
DStem: 235 522 275 522 133 41 223 272 235 522 214 231 133 41 174 41
Fore
214 231 m 1
 174 41 l 1
 312 41 l 2
 329 41 336 36 336 25 c 0
 336 10 323 0 303 0 c 2
 70 0 l 2
 53 0 47 5 47 17 c 0
 47 32 59 41 79 41 c 2
 133 41 l 1
 235 522 l 1
 181 522 l 2
 164 522 158 527 158 539 c 0
 158 553 170 563 191 563 c 2
 430 563 l 2
 522 563 587 508 587 431 c 0
 587 324 475 231 346 231 c 2
 214 231 l 1
223 272 m 1
 357 272 l 2
 455 272 545 343 545 421 c 0
 545 479 494 522 425 522 c 2
 275 522 l 1
 223 272 l 1
EndSplineSet
KernsSLIF: 65 -112 0 0 225 -104 0 0 257 -112 0 0 256 -112 0 0 262 -112 0 0 74 -116 0 0 97 -73 0 0 323 -73 0 0 322 -73 0 0 241 -37 0 0 328 -73 0 0 44 -207 0 0 101 -60 0 0 335 -60 0 0 45 -67 0 0 111 -68 0 0 352 -68 0 0 351 -68 0 0 250 -23 0 0 249 -68 0 0 46 -237 0 0
EndChar
StartChar: Q
Encoding: 81 81 50
Width: 598
Flags: W
HStem: -115 41<416 430> -89 40<293 311> 535 41<405 430>
VStem: 102 42<204 222> 574 43<332 366>
DStem: 246 -10 301 -16 142 -75 238 -56
Fore
301 -16 m 1x78
 238 -56 l 1
 269 -50 286 -49 307 -49 c 0x78
 337 -49 359 -52 386 -63 c 0
 409 -72 416 -74 428 -74 c 0
 450 -74 468 -67 504 -47 c 0
 508 -44 513 -42 517 -42 c 0
 525 -42 533 -49 533 -59 c 0
 533 -70 527 -76 510 -86 c 0
 478 -104 443 -115 417 -115 c 0xb8
 402 -115 391 -112 364 -102 c 0
 339 -92 323 -89 299 -89 c 0
 269 -89 200 -100 153 -112 c 0
 149 -113 144 -114 143 -114 c 0
 133 -114 127 -107 127 -97 c 0
 127 -89 132 -81 142 -75 c 2
 246 -10 l 1
 160 10 102 97 102 206 c 0
 102 396 258 576 422 576 c 0
 536 576 617 485 617 354 c 0
 617 166 465 -11 301 -16 c 1x78
415 535 m 0
 277 535 144 379 144 216 c 0
 144 106 211 25 302 25 c 0
 441 25 574 181 574 346 c 0
 574 455 507 535 415 535 c 0
EndSplineSet
EndChar
StartChar: R
Encoding: 82 82 51
Width: 598
Flags: W
HStem: 0 41<68 133 174 250 539 572> 251 41<227 351> 522 41<179 235 189 440>
VStem: 545 42<423 436>
DStem: 235 522 275 522 133 41 227 292 235 522 218 251 133 41 174 41
Fore
218 251 m 1
 174 41 l 1
 248 41 l 2
 265 41 272 36 272 25 c 0
 272 10 258 0 240 0 c 2
 70 0 l 2
 53 0 47 5 47 17 c 0
 47 32 59 41 79 41 c 2
 133 41 l 1
 235 522 l 1
 181 522 l 2
 164 522 158 527 158 539 c 0
 158 553 170 563 189 563 c 2
 438 563 l 2
 522 563 587 507 587 434 c 0
 587 357 528 299 414 262 c 1
 468 218 489 183 540 41 c 1
 570 41 l 2
 587 41 593 36 593 25 c 0
 593 10 581 0 562 0 c 2
 505 0 l 1
 451 161 419 216 351 251 c 1
 218 251 l 1
227 292 m 1
 341 292 l 2
 448 292 545 356 545 425 c 0
 545 479 493 522 428 522 c 2
 275 522 l 1
 227 292 l 1
EndSplineSet
KernsSLIF: 67 -41 0 0 264 -42 0 0 71 -41 0 0 79 -37 0 0 234 -10 0 0 287 -37 0 0 286 -37 0 0 84 -45 0 0 85 -46 0 0 298 -46 0 0 86 -54 0 0 87 -27 0 0 89 -46 0 0 241 34 0 0 101 -28 0 0 335 -28 0 0 45 -68 0 0 111 -29 0 0 352 -29 0 0 351 -29 0 0 250 19 0 0 117 -20 0 0 363 -20 0 0 362 -20 0 0 121 -24 0 0
EndChar
StartChar: S
Encoding: 83 83 52
Width: 598
Flags: W
HStem: -17 41<287 321> -17 184<148 301> 405 171<420 553> 536 40<399 433>
VStem: 201 45<390 407> 500 45<167 186>
DStem: 121 140 164 155 98 27 160 109
Fore
555 517 m 1xac
 559 536 l 1
 563 553 572 563 586 563 c 0
 595 563 602 556 602 549 c 0
 602 545 602 542 600 536 c 1x1c
 578 433 l 1
 575 416 566 405 553 405 c 0x2c
 547 405 542 408 536 417 c 1
 539 459 l 1
 539 464 517 498 508 506 c 1
 492 523 451 536 416 536 c 0
 326 536 246 471 246 399 c 0
 246 379 257 356 272 343 c 1
 292 328 317 319 377 309 c 0
 453 296 481 286 505 269 c 0
 528 252 545 217 545 184 c 0
 545 137 519 84 482 50 c 0
 437 10 364 -17 301 -17 c 0x9c
 231 -17 176 8 144 56 c 1
 140 27 l 1
 135 8 126 0 112 0 c 0
 103 0 96 7 96 15 c 0
 96 17 97 23 98 27 c 2
 121 140 l 1
 125 157 135 167 148 167 c 0x4c
 154 167 159 163 164 155 c 1
 160 109 l 1
 160 103 188 66 201 55 c 0
 222 36 268 24 307 24 c 0
 410 24 500 95 500 177 c 0
 500 199 487 225 470 237 c 0
 450 252 430 258 360 271 c 0
 292 283 258 295 234 317 c 0
 214 334 201 364 201 392 c 0
 201 489 305 576 420 576 c 0
 479 576 523 558 555 517 c 1xac
EndSplineSet
KernsSLIF: 65 -36 0 0 225 -36 0 0 257 -36 0 0 256 -36 0 0 262 -36 0 0 84 -63 0 0 86 -23 0 0 87 -29 0 0 89 -50 0 0 116 -32 0 0
EndChar
StartChar: T
Encoding: 84 84 53
Width: 598
Flags: W
HStem: 0 41<173 289 330 436> 422 21G<178 189.5> 522 41<192 391 192 598>
DStem: 192 563 225 522 167 449 209 449 391 522 432 522 289 41 330 41 598 522 648 563 583 449 624 449
Fore
330 41 m 1
 434 41 l 2
 451 41 458 36 458 25 c 0
 458 10 445 0 426 0 c 2
 175 0 l 2
 159 0 152 5 152 17 c 0
 152 32 164 41 184 41 c 2
 289 41 l 1
 391 522 l 1
 225 522 l 1
 209 449 l 2
 205 431 197 422 182 422 c 0
 174 422 166 428 166 437 c 1
 167 449 l 1
 192 563 l 1
 648 563 l 1
 624 449 l 2
 620 431 610 421 598 421 c 0
 592 421 583 428 583 434 c 2
 583 449 l 1
 598 522 l 1
 432 522 l 1
 330 41 l 1
EndSplineSet
KernsSLIF: 65 -43 0 0 225 -45 0 0 257 -43 0 0 259 -43 0 0 256 -43 0 0 258 -43 0 0 262 -43 0 0 261 -43 0 0 67 -46 0 0 71 -45 0 0 74 -114 0 0 79 -43 0 0 234 -15 0 0 287 -43 0 0 289 -43 0 0 286 -43 0 0 288 -43 0 0 233 -43 0 0 290 -43 0 0 83 -64 0 0 86 5 0 0 87 -1 0 0 89 -21 0 0 97 -87 0 0 241 -49 0 0 99 -107 0 0 58 -185 0 0 44 -150 0 0 101 -107 0 0 103 -98 0 0 171 -166 0 0 172 -166 0 0 45 -129 0 0 105 -65 0 0 106 -76 0 0 111 -112 0 0 249 -76 0 0 46 -185 0 0 114 -46 0 0 115 -90 0 0 59 -153 0 0 117 -118 0 0 118 -126 0 0 119 -123 0 0 121 -139 0 0
EndChar
StartChar: U
Encoding: 85 85 54
Width: 598
Flags: W
HStem: -16 41<295 313> 522 41<176 212 187 337 493 569 504 655>
VStem: 136 42<138 152> 155 204<538 547> 472 204<539 547>
DStem: 212 522 252 522 141 184 182 184 569 522 610 522 498 184 539 184
Fore
610 522 m 1xe8
 539 184 l 1
 515 72 409 -16 297 -16 c 0
 201 -16 136 47 136 140 c 0
 136 154 138 170 141 184 c 2
 212 522 l 1
 178 522 l 2xe8
 161 522 155 527 155 538 c 0
 155 553 167 563 187 563 c 2
 337 563 l 2
 353 563 359 559 359 547 c 0xd8
 359 532 347 522 328 522 c 2
 252 522 l 1
 182 184 l 1
 178 174 178 161 178 150 c 0
 178 76 231 25 305 25 c 0
 394 25 479 95 498 184 c 1
 569 522 l 1
 495 522 l 2
 478 522 472 527 472 539 c 0
 472 553 484 563 504 563 c 2
 653 563 l 2
 670 563 676 559 676 547 c 0
 676 532 664 522 644 522 c 2
 610 522 l 1xe8
EndSplineSet
KernsSLIF: 65 -32 0 0 225 -45 0 0 257 -32 0 0 259 -32 0 0 256 -32 0 0 262 -32 0 0 261 -32 0 0 44 -103 0 0 109 2 0 0 110 -28 0 0 112 -6 0 0 46 -136 0 0 114 -60 0 0
EndChar
StartChar: V
Encoding: 86 86 55
Width: 598
Flags: W
HStem: 0 21G<268 324> 522 41<146 178 157 309 523 604 533 686>
VStem: 124 206<538 547> 502 206<538 547>
DStem: 178 522 222 522 268 0 305 41 604 522 644 522 307 41 324 0
Fore
268 0 m 1
 178 522 l 1
 147 522 l 2
 130 522 124 527 124 538 c 0
 124 553 136 563 157 563 c 2
 306 563 l 2
 324 563 330 559 330 547 c 0
 330 532 318 522 299 522 c 2
 222 522 l 1
 305 41 l 1
 307 41 l 1
 604 522 l 1
 525 522 l 2
 508 522 502 527 502 538 c 0
 502 553 515 563 533 563 c 2
 684 563 l 2
 701 563 708 559 708 547 c 0
 708 532 695 522 675 522 c 2
 644 522 l 1
 324 0 l 1
 268 0 l 1
EndSplineSet
KernsSLIF: 65 -12 0 0 225 -24 0 0 257 -12 0 0 259 -12 0 0 256 -12 0 0 258 -12 0 0 262 -12 0 0 261 -12 0 0 67 -50 0 0 71 -49 0 0 79 -46 0 0 287 -46 0 0 289 -46 0 0 286 -46 0 0 288 -46 0 0 233 -49 0 0 290 -49 0 0 83 -52 0 0 84 5 0 0 97 -85 0 0 241 -46 0 0 58 -167 0 0 44 -171 0 0 101 -72 0 0 103 -73 0 0 171 -107 0 0 172 -107 0 0 45 -63 0 0 105 -85 0 0 111 -76 0 0 249 -73 0 0 46 -203 0 0 114 -65 0 0 59 -156 0 0 117 -24 0 0 121 -30 0 0
EndChar
StartChar: W
Encoding: 87 87 56
Width: 598
Flags: W
HStem: 0 21G<123 184 411 476> 418 20G<364 426> 522 41<156 174 167 318 513 610 523 674>
VStem: 135 205<538 547> 492 205<538 547>
DStem: 174 522 214 522 123 0 169 46 364 438 385 400 169 46 184 0 385 400 426 438 411 0 451 46 610 522 649 522 451 46 476 0
Fore
123 0 m 1
 174 522 l 1
 158 522 l 2
 142 522 135 527 135 538 c 0
 135 553 147 563 167 563 c 2
 316 563 l 2
 334 563 340 559 340 547 c 0
 340 532 328 522 308 522 c 2
 214 522 l 1
 169 46 l 1
 364 438 l 1
 426 438 l 1
 451 46 l 1
 610 522 l 1
 515 522 l 2
 498 522 492 527 492 538 c 0
 492 553 502 563 523 563 c 2
 674 563 l 2
 691 563 697 559 697 547 c 0
 697 532 684 522 664 522 c 2
 649 522 l 1
 476 0 l 1
 411 0 l 1
 385 400 l 1
 184 0 l 1
 123 0 l 1
EndSplineSet
KernsSLIF: 65 -20 0 0 225 -27 0 0 257 -20 0 0 259 -20 0 0 256 -20 0 0 258 -20 0 0 262 -20 0 0 261 -20 0 0 67 -19 0 0 71 -15 0 0 79 -12 0 0 287 -12 0 0 289 -12 0 0 286 -12 0 0 288 -12 0 0 233 -9 0 0 290 -12 0 0 83 -37 0 0 84 -2 0 0 97 -30 0 0 241 7 0 0 58 -120 0 0 44 -92 0 0 101 -12 0 0 103 -14 0 0 171 -49 0 0 172 -49 0 0 45 -9 0 0 105 -63 0 0 111 -19 0 0 249 -14 0 0 46 -122 0 0 114 -43 0 0 59 -95 0 0 117 -2 0 0 121 -7 0 0
EndChar
StartChar: X
Encoding: 88 88 57
Width: 598
Flags: W
HStem: 0 41<65 93 142 208 399 543> 522 41<187 204 197 310 517 566 528 640>
VStem: 44 187<16 25> 166 165<538 547> 377 189<16 25> 496 165<538 547>
DStem: 204 522 256 522 334 288 368 322 334 288 352 255 93 41 142 41 352 255 386 288 472 41 525 41 566 522 615 522 368 322 386 288
Fore
386 288 m 1xc4
 525 41 l 1
 542 41 l 2
 559 41 566 36 566 25 c 0
 566 10 552 0 533 0 c 2
 400 0 l 2
 385 0 377 5 377 16 c 0
 377 32 390 41 410 41 c 2
 472 41 l 1
 352 255 l 1
 142 41 l 1
 208 41 l 2
 225 41 231 36 231 25 c 0
 231 10 218 0 198 0 c 2
 67 0 l 2
 51 0 44 5 44 16 c 0xe8
 44 32 56 41 76 41 c 2
 93 41 l 1
 334 288 l 1
 204 522 l 1
 189 522 l 2
 174 522 166 527 166 538 c 0
 166 553 178 563 197 563 c 2
 308 563 l 2
 325 563 331 559 331 547 c 0
 331 532 319 522 299 522 c 2
 256 522 l 1
 368 322 l 1
 566 522 l 1xd8
 519 522 l 2
 502 522 496 527 496 538 c 0
 496 553 508 563 528 563 c 2
 640 563 l 2
 657 563 661 559 661 547 c 0
 661 532 650 522 630 522 c 2
 615 522 l 1
 386 288 l 1xc4
EndSplineSet
KernsSLIF: 67 -67 0 0 79 -63 0 0 286 -63 0 0 81 -63 0 0 97 -19 0 0 101 -46 0 0 45 -104 0 0 111 -49 0 0 117 -50 0 0 121 -73 0 0
EndChar
StartChar: Y
Encoding: 89 89 58
Width: 598
Flags: W
HStem: 0 41<174 290 331 438> 522 41<187 214 198 311 521 564 532 642>
VStem: 166 167<538 547> 499 166<538 546>
DStem: 214 522 262 522 335 254 367 295 335 254 376 254 290 41 331 41 564 522 610 522 367 295 376 254
Fore
376 254 m 1
 331 41 l 1
 436 41 l 2
 453 41 459 36 459 25 c 0
 459 10 447 0 427 0 c 2
 176 0 l 2
 160 0 153 5 153 16 c 0
 153 32 165 41 184 41 c 2
 290 41 l 1
 335 254 l 1
 214 522 l 1
 189 522 l 2
 174 522 166 527 166 538 c 0
 166 553 178 563 198 563 c 2
 309 563 l 2
 326 563 333 559 333 547 c 0
 333 532 320 522 300 522 c 2
 262 522 l 1
 367 295 l 1
 564 522 l 1
 523 522 l 2
 506 522 499 527 499 538 c 0
 499 553 511 563 532 563 c 2
 642 563 l 2
 658 563 665 558 665 546 c 0
 665 532 652 522 633 522 c 2
 610 522 l 1
 376 254 l 1
EndSplineSet
MinimumDistance: x10,26 
KernsSLIF: 65 -41 0 0 225 -43 0 0 257 -41 0 0 259 -41 0 0 256 -41 0 0 258 -41 0 0 262 -41 0 0 261 -41 0 0 67 -76 0 0 71 -76 0 0 79 -76 0 0 287 -76 0 0 289 -76 0 0 286 -76 0 0 288 -76 0 0 233 -76 0 0 290 -76 0 0 83 -80 0 0 84 -21 0 0 97 -86 0 0 241 -51 0 0 58 -185 0 0 44 -150 0 0 101 -104 0 0 103 -108 0 0 171 -153 0 0 172 -153 0 0 45 -123 0 0 105 -81 0 0 111 -110 0 0 249 -76 0 0 112 -50 0 0 46 -185 0 0 59 -153 0 0 117 -64 0 0 118 -56 0 0
EndChar
StartChar: Z
Encoding: 90 90 59
Width: 598
Flags: W
HStem: 0 41<150 498> 522 41<242 542>
DStem: 242 563 273 522 208 404 248 404 495 182 536 182 465 41 498 0 541 519 578 505 117 59 150 45
Fore
498 0 m 1
 103 0 l 1
 117 59 l 1
 541 519 l 1
 542 522 l 1
 273 522 l 1
 248 404 l 2
 244 385 235 376 221 376 c 0
 212 376 205 383 205 392 c 0
 205 394 205 396 208 404 c 1
 242 563 l 1
 590 563 l 1
 578 505 l 1
 150 45 l 1
 150 41 l 1
 465 41 l 1
 495 182 l 2
 499 200 507 209 521 209 c 0
 532 209 538 201 538 194 c 0
 538 192 538 189 536 186 c 1
 536 182 l 1
 498 0 l 1
EndSplineSet
KernsSLIF: 118 -68 0 0 121 -82 0 0
EndChar
StartChar: bracketleft
Encoding: 91 91 60
Width: 598
Flags: W
HStem: -124 41<303 401> 563 41<409 549>
DStem: 409 604 441 563 254 -124 303 -83
Fore
441 563 m 1
 303 -83 l 1
 400 -83 l 2
 417 -83 424 -87 424 -100 c 0
 424 -114 411 -124 392 -124 c 2
 254 -124 l 1
 409 604 l 1
 547 604 l 2
 564 604 570 600 570 589 c 0
 570 572 558 563 538 563 c 2
 441 563 l 1
EndSplineSet
EndChar
StartChar: backslash
Encoding: 92 92 61
Width: 598
Flags: W
DStem: 252 633 292 650 432 -63 472 -46
Fore
292 650 m 1
 472 -46 l 2
 473 -50 475 -55 475 -57 c 0
 475 -69 462 -81 449 -81 c 0
 439 -81 434 -76 432 -63 c 1
 252 633 l 2
 251 637 250 642 250 644 c 0
 250 657 262 667 275 667 c 0
 285 667 289 664 292 650 c 1
EndSplineSet
EndChar
StartChar: bracketright
Encoding: 93 93 62
Width: 598
Flags: W
HStem: -124 41<153 261> 563 41<299 398>
DStem: 398 563 448 604 261 -83 292 -124
Fore
261 -83 m 1
 398 563 l 1
 301 563 l 2
 284 563 278 567 278 579 c 0
 278 593 290 604 309 604 c 2
 448 604 l 1
 292 -124 l 1
 155 -124 l 2
 138 -124 132 -120 132 -108 c 0
 132 -92 144 -83 164 -83 c 2
 261 -83 l 1
EndSplineSet
EndChar
StartChar: asciicircum
Encoding: 94 94 63
Width: 598
Flags: W
DStem: 417 552 430 615 524 367 562 392 430 615 417 552 205 392 231 367
Fore
430 615 m 1
 562 392 l 1
 566 387 567 381 567 377 c 0
 567 367 553 354 542 354 c 0
 534 354 530 357 524 367 c 2
 417 552 l 1
 231 367 l 2
 221 357 216 354 208 354 c 0
 199 354 192 360 192 370 c 0
 192 377 195 382 205 392 c 2
 430 615 l 1
EndSplineSet
EndChar
StartChar: underscore
Encoding: 95 95 64
Width: 598
Flags: W
HStem: -125 50<-61 564>
Fore
564 -75 m 1
 564 -125 l 1
 -61 -125 l 1
 -61 -75 l 1
 564 -75 l 1
EndSplineSet
EndChar
StartChar: quoteleft
Encoding: 96 8216 65
Width: 598
Flags: W
HStem: 584 20G<388 522>
Fore
522 604 m 1
 544 379 l 1
 544 376 l 2
 544 358 527 343 508 343 c 0
 495 343 489 348 482 365 c 2
 388 604 l 1
 522 604 l 1
EndSplineSet
KernsSLIF: 65 -112 1 0 225 -100 1 0 257 -112 1 0 256 -112 1 0 262 -112 1 0 84 -86 1 0 86 -50 1 0 87 -37 1 0 89 -86 1 0
EndChar
StartChar: a
Encoding: 97 97 66
Width: 598
Flags: W
HStem: -16 41<218 238> 0 41<468 525> 217 41<316 366> 390 41<377 398>
VStem: 93 42<85 98> 485 43<308 333>
DStem: 462 201 525 308 443 112 468 41 485 308 525 308 470 237 468 41
Fore
419 0 m 1x7c
 433 67 l 1
 360 10 295 -16 225 -16 c 0xbc
 143 -16 93 23 93 87 c 0
 93 184 200 258 339 258 c 0
 383 258 414 252 470 237 c 1
 485 308 l 1
 485 322 l 2
 485 363 444 390 379 390 c 0
 345 390 303 382 231 360 c 0
 226 359 223 358 220 358 c 0
 212 358 205 365 205 374 c 0
 205 383 211 392 223 397 c 0
 258 411 353 431 391 431 c 0
 472 431 528 390 528 331 c 0
 528 322 527 316 525 308 c 1
 468 41 l 1
 523 41 l 2x7c
 540 41 546 36 546 25 c 0xbc
 546 10 534 0 515 0 c 2
 419 0 l 1x7c
443 112 m 1
 462 201 l 1
 427 211 382 217 337 217 c 0
 222 217 135 165 135 96 c 0
 135 51 170 25 231 25 c 0
 303 25 360 49 443 112 c 1
EndSplineSet
KernsSLIF: 106 -120 0 0 39 -76 0 0 118 -42 0 0 119 -29 0 0 121 -56 0 0
EndChar
StartChar: b
Encoding: 98 98 67
Width: 598
Flags: W
HStem: -16 41<312 330> 0 41<47 112> 390 41<402 418> 563 41<167 223>
VStem: 549 42<239 260>
DStem: 223 563 272 604 112 41 214 328 223 563 163 89 112 41 144 0
Fore
272 604 m 1x78
 214 328 l 1
 279 399 342 431 416 431 c 0
 519 431 591 360 591 258 c 0
 591 117 459 -16 319 -16 c 0xb8
 248 -16 195 19 163 89 c 1
 144 0 l 1
 49 0 l 2
 33 0 25 5 25 17 c 0
 25 32 38 41 58 41 c 2
 112 41 l 1
 223 563 l 1
 169 563 l 2
 152 563 146 567 146 580 c 0
 146 595 158 604 177 604 c 2
 272 604 l 1x78
404 390 m 0
 290 390 184 282 184 167 c 0
 184 86 245 25 326 25 c 0
 441 25 549 132 549 248 c 0
 549 330 488 390 404 390 c 0
EndSplineSet
KernsSLIF: 118 -21 0 0 121 -36 0 0
EndChar
StartChar: c
Encoding: 99 99 68
Width: 598
Flags: W
HStem: -17 41<296 314> 391 41<391 410>
VStem: 121 42<150 163>
Fore
551 376 m 1
 553 390 l 1
 557 408 566 417 580 417 c 0
 589 417 596 410 596 402 c 0
 596 399 595 394 593 390 c 1
 575 299 l 1
 572 280 562 269 549 269 c 0
 542 269 536 273 532 282 c 1
 535 318 l 1
 535 323 510 353 498 362 c 0
 477 379 433 391 393 391 c 0
 323 391 258 360 216 306 c 0
 183 265 163 210 163 161 c 0
 163 81 225 24 312 24 c 0
 387 24 460 50 519 97 c 0
 527 104 534 108 539 108 c 0
 546 108 555 100 555 91 c 0
 555 79 534 59 501 39 c 0
 442 2 369 -17 301 -17 c 0
 197 -17 121 53 121 152 c 0
 121 301 252 432 403 432 c 0
 465 432 516 413 551 376 c 1
EndSplineSet
KernsSLIF: 104 -7 0 0 107 -15 0 0
EndChar
StartChar: d
Encoding: 100 100 69
Width: 598
Flags: W
HStem: -16 41<272 295> 0 41<510 566> 390 41<357 375> 563 41<524 580>
VStem: 102 42<155 177>
DStem: 481 89 630 604 461 0 510 41 580 563 630 604 530 326 510 41
Fore
630 604 m 1xb8
 510 41 l 1
 566 41 l 2x78
 581 41 587 36 587 25 c 0xb8
 587 10 575 0 556 0 c 2
 461 0 l 1x78
 481 89 l 1
 417 18 350 -16 274 -16 c 0
 176 -16 102 58 102 157 c 0
 102 299 232 431 371 431 c 0
 447 431 496 398 530 326 c 1
 580 563 l 1
 525 563 l 2
 508 563 502 567 502 580 c 0
 502 595 515 604 535 604 c 2
 630 604 l 1xb8
365 390 m 0
 251 390 144 284 144 169 c 0
 144 84 203 25 286 25 c 0xb8
 403 25 508 132 508 248 c 0
 508 331 450 390 365 390 c 0
EndSplineSet
EndChar
StartChar: e
Encoding: 101 101 70
Width: 598
Flags: W
HStem: -16 41<295 313> 199 41<155 562> 390 41<359 393>
VStem: 104 40<159 179> 530 40<250 264>
Fore
562 199 m 1
 146 199 l 1
 144 189 144 181 144 177 c 0
 144 87 214 25 309 25 c 0
 373 25 450 47 498 79 c 0
 507 84 511 86 516 86 c 0
 525 86 532 79 532 70 c 0
 532 58 521 49 492 32 c 0
 437 2 364 -16 300 -16 c 0
 184 -16 104 59 104 171 c 0
 104 309 235 431 383 431 c 0
 492 431 570 360 570 262 c 0
 570 248 567 225 562 199 c 1
155 240 m 1
 529 240 l 1
 530 245 530 250 530 252 c 0
 530 333 466 390 375 390 c 0
 277 390 192 333 155 240 c 1
EndSplineSet
KernsSLIF: 39 -54 0 0 116 -43 0 0 118 -36 0 0 119 -24 0 0 120 -6 0 0 121 -50 0 0
EndChar
StartChar: f
Encoding: 102 102 71
Width: 598
Flags: W
HStem: 0 41<130 240 280 458> 376 41<220 309 360 549> 563 41<492 526>
DStem: 309 376 351 376 239 41 280 41 333 478 373 478 319 417 360 417
Fore
351 376 m 1
 280 41 l 1
 458 41 l 2
 475 41 481 36 481 25 c 0
 481 10 468 0 449 0 c 2
 132 0 l 2
 117 0 109 5 109 17 c 0
 109 32 121 41 141 41 c 2
 239 41 l 1
 309 376 l 1
 222 376 l 2
 206 376 199 381 199 393 c 0
 199 408 211 417 231 417 c 2
 319 417 l 1
 333 478 l 1
 347 551 424 604 512 604 c 0
 551 604 617 597 649 591 c 0
 658 589 663 583 663 576 c 0
 663 562 650 551 637 551 c 0
 635 551 635 551 589 557 c 0
 566 559 525 563 502 563 c 0
 436 563 383 529 373 478 c 1
 360 417 l 1
 549 417 l 2
 566 417 572 413 572 400 c 0
 572 386 559 376 540 376 c 2
 351 376 l 1
EndSplineSet
KernsSLIF: 97 -56 0 0 323 -56 0 0 322 -32 0 0 241 -21 0 0 328 -56 0 0 101 -74 0 0 335 -74 0 0 102 -59 0 0 105 -51 0 0 106 -81 0 0 108 -41 0 0 111 -85 0 0 352 -85 0 0 351 -41 0 0 250 -29 0 0 249 -46 0 0 39 -80 0 0 115 -59 0 0 116 -12 0 0
EndChar
StartChar: g
Encoding: 103 103 72
Width: 598
Flags: W
HStem: -186 42<160 288> 10 41<265 288> 376 41<529 626> 390 41<345 362>
VStem: 106 41<175 188>
DStem: 464 107 561 376 434 -22 475 -28 529 417 561 376 511 334 475 -28
Fore
511 334 m 1xd8
 529 417 l 1
 624 417 l 2
 641 417 647 413 647 400 c 0
 647 386 635 376 615 376 c 2
 561 376 l 1xe8
 475 -28 l 1
 466 -69 447 -100 410 -132 c 0
 367 -170 326 -186 277 -186 c 2
 161 -186 l 2
 146 -186 140 -181 140 -170 c 0
 140 -154 150 -144 171 -144 c 2
 286 -144 l 2
 356 -144 421 -90 434 -22 c 1
 464 107 l 1
 403 40 343 10 271 10 c 0
 174 10 106 79 106 177 c 0
 106 307 231 431 360 431 c 0
 433 431 481 400 511 334 c 1xd8
354 390 m 0xd8
 248 390 147 291 147 186 c 0
 147 106 201 51 282 51 c 0
 392 51 492 150 492 258 c 0
 492 336 434 390 354 390 c 0xd8
EndSplineSet
KernsSLIF: 97 -19 0 0 322 -19 0 0 241 16 0 0 328 -19 0 0 101 -9 0 0 335 -9 0 0 108 -46 0 0 352 -15 0 0 351 -15 0 0 114 -5 0 0
EndChar
StartChar: h
Encoding: 104 104 73
Width: 598
Flags: W
HStem: 0 41<76 133 174 220 390 447 487 534> 390 41<390 413> 563 41<187 243>
VStem: 55 188<17 25> 369 187<17 25> 501 41<297 321>
DStem: 244 563 292 604 133 41 239 347 244 563 228 296 133 41 174 41 498 288 540 291 447 41 487 41
Fore
292 604 m 1xf4
 239 347 l 1
 303 408 350 431 411 431 c 0
 492 431 542 387 542 319 c 0xf4
 542 309 542 301 540 291 c 2
 487 41 l 1
 532 41 l 2
 549 41 556 36 556 25 c 0
 556 10 542 0 524 0 c 2
 392 0 l 2
 376 0 369 5 369 17 c 0xf8
 369 32 381 41 400 41 c 2
 447 41 l 1
 498 288 l 1
 500 295 501 303 501 309 c 0
 501 330 493 350 477 364 c 1
 458 383 438 390 396 390 c 0
 341 390 309 373 242 309 c 2
 228 296 l 1
 174 41 l 1
 218 41 l 2
 235 41 243 36 243 25 c 0
 243 10 231 0 210 0 c 2
 78 0 l 2
 62 0 55 5 55 17 c 0
 55 32 67 41 87 41 c 2
 133 41 l 1
 244 563 l 1
 189 563 l 2
 174 563 167 567 167 580 c 0
 167 595 178 604 198 604 c 2
 292 604 l 1xf4
EndSplineSet
KernsSLIF: 39 -67 0 0 121 -46 0 0
EndChar
StartChar: i
Encoding: 105 105 74
Width: 598
Flags: W
HStem: 0 41<117 288 329 491> 376 41<239 359> 519 105<398 411>
DStem: 359 376 409 417 288 41 329 41 379 603 437 603 367 544 425 545
Fore
437 603 m 2
 425 545 l 2
 422 530 420 519 403 519 c 2
 379 519 l 2
 363 519 364 536 367 544 c 1
 379 603 l 1
 380 610 385 624 400 624 c 2
 424 624 l 2
 441 624 439 612 437 603 c 2
409 417 m 1
 329 41 l 1
 489 41 l 2
 506 41 513 36 513 25 c 0
 513 10 500 0 481 0 c 2
 119 0 l 2
 103 0 96 5 96 16 c 0
 96 32 108 41 127 41 c 2
 288 41 l 1
 359 376 l 1
 242 376 l 2
 225 376 218 381 218 393 c 0
 218 408 231 417 250 417 c 2
 409 417 l 1
EndSplineSet
KernsSLIF: 84 -82 0 0 106 -188 0 0
EndChar
StartChar: j
Encoding: 106 106 75
Width: 598
Flags: W
HStem: -186 42<133 274> 376 41<255 497> 519 105<498 513>
DStem: 483 603 541 603 470 544 529 545 498 376 547 417 411 -28 451 -28
Fore
541 603 m 1
 529 545 l 1
 525 530 524 519 506 519 c 2
 483 519 l 2
 467 519 468 536 470 544 c 2
 483 603 l 1
 484 610 489 624 505 624 c 2
 527 624 l 2
 544 624 544 612 541 603 c 1
498 376 m 1
 257 376 l 2
 240 376 233 381 233 392 c 0
 233 408 245 417 266 417 c 2
 547 417 l 1
 451 -28 l 1
 433 -121 356 -186 265 -186 c 2
 135 -186 l 2
 119 -186 112 -181 112 -170 c 0
 112 -154 124 -144 144 -144 c 2
 272 -144 l 2
 339 -144 397 -96 411 -28 c 1
 498 376 l 1
EndSplineSet
EndChar
StartChar: k
Encoding: 107 107 76
Width: 598
Flags: W
HStem: 0 41<88 153 381 420 477 525> 376 41<414 438 425 555> 563 41<208 265>
VStem: 360 186<17 25> 393 185<393 400>
DStem: 265 563 314 604 153 41 234 229 265 563 223 180 153 41 184 0 278 218 314 245 420 41 478 41 438 376 499 376 234 229 314 245
Fore
223 180 m 1xf0
 184 0 l 1
 90 0 l 2
 74 0 67 5 67 17 c 0
 67 32 79 41 100 41 c 2
 153 41 l 1
 265 563 l 1
 210 563 l 2
 193 563 187 567 187 580 c 0
 187 595 199 604 218 604 c 2
 314 604 l 1
 234 229 l 1
 438 376 l 1
 416 376 l 2
 400 376 393 381 393 393 c 0
 393 408 405 417 425 417 c 2
 553 417 l 2
 572 417 578 413 578 400 c 0xe8
 578 386 566 376 546 376 c 2
 499 376 l 1
 314 245 l 1
 478 41 l 1
 523 41 l 2
 539 41 546 36 546 25 c 0
 546 10 533 0 515 0 c 2
 383 0 l 2
 367 0 360 5 360 17 c 0
 360 32 373 41 392 41 c 2
 420 41 l 1
 278 218 l 1
 223 180 l 1xf0
EndSplineSet
KernsSLIF: 97 -15 0 0 323 -15 0 0 322 -15 0 0 241 19 0 0 328 -15 0 0 44 -76 0 0 101 -43 0 0 335 -43 0 0 103 -54 0 0 45 -134 0 0 111 -45 0 0 352 -45 0 0 351 -45 0 0 46 -114 0 0 115 -19 0 0 117 -9 0 0 362 -9 0 0
EndChar
StartChar: l
Encoding: 108 108 77
Width: 598
Flags: W
HStem: 0 41<117 288 329 491> 563 41<280 399>
DStem: 399 563 449 604 288 41 329 41
Fore
449 604 m 1
 329 41 l 1
 489 41 l 2
 506 41 513 36 513 25 c 0
 513 10 500 0 481 0 c 2
 119 0 l 2
 103 0 96 5 96 16 c 0
 96 32 108 41 127 41 c 2
 288 41 l 1
 399 563 l 1
 282 563 l 2
 265 563 258 567 258 579 c 0
 258 595 271 604 291 604 c 2
 449 604 l 1
EndSplineSet
KernsSLIF: 118 -110 0 0 121 -123 0 0
EndChar
StartChar: m
Encoding: 109 109 78
Width: 598
Flags: W
HStem: 0 41<36 156 331 367 541 575> 376 41<116 152> 390 41<298 309 506 519>
VStem: 15 163<16 25> 561 42<332 345>
DStem: 152 376 178 308 81 41 121 41 350 316 387 308 282 0 331 41 559 319 600 323 492 0 541 41
Fore
201 417 m 1xd8
 191 365 l 1
 233 411 267 431 309 431 c 0
 352 431 379 408 391 360 c 1
 441 410 477 431 519 431 c 0
 568 431 603 394 603 345 c 0
 603 339 602 331 600 323 c 1
 541 41 l 1
 575 41 l 2
 592 41 598 36 598 25 c 0
 598 10 585 0 566 0 c 2
 492 0 l 1
 559 319 l 1
 561 324 561 326 561 333 c 0
 561 365 539 390 508 390 c 0
 473 390 437 367 387 308 c 1
 331 41 l 1
 365 41 l 2
 382 41 388 36 388 25 c 0
 388 10 376 0 356 0 c 2
 282 0 l 1
 350 316 l 1
 350 322 351 326 351 333 c 0
 351 364 328 390 300 390 c 0xb8
 265 390 228 367 178 308 c 1
 121 41 l 1
 155 41 l 2
 171 41 178 36 178 25 c 0
 178 10 165 0 146 0 c 2
 36 0 l 2
 22 0 15 5 15 16 c 0
 15 32 27 41 47 41 c 2
 81 41 l 1
 152 376 l 1
 118 376 l 2
 102 376 95 381 95 392 c 0
 95 408 107 417 127 417 c 2
 201 417 l 1xd8
EndSplineSet
KernsSLIF: 112 24 0 0 118 9 0 0 119 16 0 0 121 -2 0 0
EndChar
StartChar: n
Encoding: 110 110 79
Width: 598
Flags: W
HStem: 0 41<79 135 176 223 403 448 489 524> 376 41<170 206> 390 41<392 416>
VStem: 57 187<16 25> 382 164<16 25> 502 43<306 321>
DStem: 206 376 231 294 135 41 176 41 500 288 542 295 448 41 489 41
Fore
256 417 m 1xd4
 242 348 l 1
 313 411 353 431 414 431 c 0
 493 431 545 387 545 319 c 0xb4
 545 309 544 303 542 295 c 1
 489 41 l 1
 523 41 l 2
 540 41 546 36 546 25 c 0
 546 10 533 0 515 0 c 2
 405 0 l 2
 390 0 382 5 382 16 c 0xb8
 382 32 394 41 414 41 c 2
 448 41 l 1
 500 288 l 1
 502 295 502 299 502 308 c 0
 502 329 493 350 478 364 c 0
 458 383 441 390 403 390 c 0xb4
 339 390 309 373 231 294 c 1
 176 41 l 1
 221 41 l 2
 238 41 244 36 244 25 c 0
 244 10 232 0 212 0 c 2
 81 0 l 2
 64 0 57 5 57 16 c 0
 57 32 69 41 89 41 c 2
 135 41 l 1
 206 376 l 1
 172 376 l 2
 157 376 149 381 149 392 c 0
 149 408 161 417 181 417 c 2
 256 417 l 1xd4
EndSplineSet
KernsSLIF: 84 -63 0 0 112 -10 0 0 39 -64 0 0 118 -32 0 0 119 -19 0 0 121 -46 0 0
EndChar
StartChar: o
Encoding: 111 111 80
Width: 598
Flags: W
HStem: -16 41<285 319> 390 41<380 399>
VStem: 110 43<159 177> 535 41<239 257>
Fore
391 431 m 0
 501 431 576 358 576 252 c 0
 576 113 441 -16 296 -16 c 0
 187 -16 110 58 110 161 c 0
 110 301 248 431 391 431 c 0
382 390 m 0
 265 390 153 284 153 171 c 0
 153 85 216 25 305 25 c 0
 424 25 535 130 535 244 c 0
 535 331 473 390 382 390 c 0
EndSplineSet
KernsSLIF: 84 -114 0 0 39 -52 0 0 116 -30 0 0 118 -32 0 0 119 -9 0 0 120 -36 0 0 121 -46 0 0
EndChar
StartChar: p
Encoding: 112 112 81
Width: 598
Flags: W
HStem: -186 42<8 73 114 213> 10 41<322 340> 376 41<127 183> 390 41<402 420>
VStem: 551 42<245 267>
DStem: 183 376 233 417 73 -144 216 335 183 376 167 106 73 -144 114 -144
Fore
233 417 m 1xe8
 216 335 l 1
 283 404 339 431 415 431 c 0xd8
 523 431 593 365 593 265 c 0
 593 131 466 10 326 10 c 0
 249 10 199 40 167 106 c 1
 114 -144 l 1
 211 -144 l 2
 229 -144 235 -149 235 -161 c 0
 235 -177 223 -186 203 -186 c 2
 10 -186 l 2
 -6 -186 -13 -181 -13 -170 c 0
 -13 -154 -1 -144 19 -144 c 2
 73 -144 l 1
 183 376 l 1
 129 376 l 2
 113 376 106 381 106 392 c 0
 106 408 118 417 138 417 c 2
 233 417 l 1xe8
405 390 m 0
 292 390 188 292 188 187 c 0
 188 107 248 51 333 51 c 0
 447 51 551 149 551 255 c 0
 551 335 492 390 405 390 c 0
EndSplineSet
KernsSLIF: 116 -24 0 0 121 -32 0 0
EndChar
StartChar: q
Encoding: 113 113 82
Width: 598
Flags: W
HStem: -186 42<322 430 471 527> 10 41<281 303> 376 41<550 646> 390 41<361 379>
VStem: 106 41<176 199>
DStem: 484 106 583 376 430 -144 471 -144 550 417 583 376 532 335 471 -144
Fore
532 335 m 1xd8
 550 417 l 1
 644 417 l 2
 661 417 667 413 667 400 c 0
 667 386 657 376 636 376 c 2
 583 376 l 1xe8
 471 -144 l 1
 525 -144 l 2
 542 -144 549 -149 549 -161 c 0
 549 -176 536 -186 517 -186 c 2
 324 -186 l 2
 307 -186 300 -181 300 -170 c 0
 300 -154 312 -144 333 -144 c 2
 430 -144 l 1
 484 106 l 1
 424 40 360 10 284 10 c 0
 177 10 106 78 106 178 c 0
 106 311 233 431 374 431 c 0
 450 431 500 400 532 335 c 1xd8
365 390 m 0xd8
 251 390 147 292 147 186 c 0
 147 107 208 51 292 51 c 0
 407 51 512 148 512 254 c 0
 512 335 451 390 365 390 c 0xd8
EndSplineSet
KernsSLIF: 99 -5 0 0 117 46 0 0
EndChar
StartChar: r
Encoding: 114 114 83
Width: 598
Flags: W
HStem: 0 41<109 438> 376 41<212 286> 386 41<517 532>
DStem: 286 376 337 417 216 41 316 316 286 376 303 262 216 41 257 41
Fore
337 417 m 1xc0
 316 316 l 1
 427 400 481 427 532 427 c 0
 558 427 575 420 595 403 c 0
 610 390 619 377 619 369 c 0
 619 357 606 343 592 343 c 0
 586 343 584 345 578 352 c 0
 559 376 542 386 519 386 c 0xa0
 475 386 434 363 303 262 c 1
 257 41 l 1
 436 41 l 2
 451 41 459 36 459 24 c 0
 459 10 447 0 427 0 c 2
 110 0 l 2
 96 0 89 5 89 17 c 0
 89 32 101 41 120 41 c 2
 216 41 l 1
 286 376 l 1
 214 376 l 2
 197 376 191 381 191 393 c 0
 191 407 203 417 221 417 c 2
 337 417 l 1xc0
EndSplineSet
KernsSLIF: 97 -32 0 0 323 -32 0 0 325 -32 0 0 322 -32 0 0 241 1 0 0 324 -32 0 0 328 -32 0 0 99 -32 0 0 332 -43 0 0 58 -110 0 0 44 -134 0 0 100 -23 0 0 101 -21 0 0 335 -21 0 0 337 -21 0 0 336 -21 0 0 102 -30 0 0 103 -19 0 0 104 -30 0 0 45 -161 0 0 105 -43 0 0 106 -54 0 0 107 -43 0 0 108 -65 0 0 109 34 0 0 111 -30 0 0 352 -30 0 0 354 -30 0 0 351 -30 0 0 250 16 0 0 353 -30 0 0 249 -30 0 0 112 27 0 0 46 -171 0 0 113 -20 0 0 39 -56 0 0 114 -24 0 0 115 -37 0 0 59 -96 0 0 116 14 0 0 117 14 0 0 118 21 0 0 119 21 0 0 120 -5 0 0 121 7 0 0 122 -29 0 0
EndChar
StartChar: s
Encoding: 115 115 84
Width: 598
Flags: W
HStem: -17 42<283 317> 292 125<515 542> 391 40<363 397>
VStem: 191 44<299 309> 479 46<123 138>
Fore
110 27 m 1xb8
 127 110 l 1
 131 127 140 137 154 137 c 0
 163 137 170 130 170 123 c 0
 170 120 170 117 169 115 c 0
 167 108 167 102 167 100 c 0
 167 56 225 25 305 25 c 0
 400 25 479 72 479 130 c 0
 479 147 465 167 447 180 c 1
 424 194 399 201 343 208 c 0
 272 215 245 222 221 239 c 0
 203 252 191 275 191 299 c 0
 191 373 277 431 386 431 c 0xb8
 444 431 485 416 515 385 c 1
 519 407 529 417 542 417 c 0
 551 417 558 410 558 402 c 0
 558 399 557 394 556 390 c 2
 542 320 l 1
 538 302 528 292 515 292 c 0xd8
 508 292 504 296 499 303 c 1
 502 335 l 1
 502 339 482 363 472 370 c 0
 453 382 416 391 382 391 c 0
 305 391 235 351 235 307 c 0
 235 291 252 271 273 262 c 0
 292 252 292 252 370 245 c 0
 430 238 465 227 492 206 c 0
 511 191 525 161 525 138 c 0
 525 53 424 -17 300 -17 c 0
 235 -17 187 1 153 38 c 1
 150 27 l 1
 146 8 138 0 124 0 c 0
 117 0 108 7 108 15 c 0
 108 17 109 24 110 27 c 1xb8
EndSplineSet
KernsSLIF: 39 -65 0 0 116 -21 0 0
EndChar
StartChar: t
Encoding: 116 116 85
Width: 598
Flags: W
HStem: -16 41<283 320> 376 41<148 224 275 495> 543 20G<278.5 290>
VStem: 165 43<79 97>
DStem: 225 376 266 376 167 107 209 109 258 536 300 536 234 417 275 417
Fore
275 417 m 1
 495 417 l 2
 512 417 518 413 518 400 c 0
 518 386 505 376 485 376 c 2
 266 376 l 1
 209 109 l 1
 208 102 208 95 208 91 c 0
 208 51 245 25 303 25 c 0
 359 25 434 42 478 66 c 1
 488 70 492 72 496 72 c 0
 504 72 511 64 511 53 c 0
 511 42 500 33 471 19 c 1
 424 -1 350 -16 296 -16 c 0
 217 -16 165 22 165 79 c 0
 165 89 166 97 167 107 c 1
 225 376 l 1
 150 376 l 2
 133 376 127 381 127 392 c 0
 127 408 140 417 159 417 c 2
 234 417 l 1
 258 536 l 1
 263 553 272 563 285 563 c 0
 295 563 302 556 302 549 c 0
 302 545 302 544 300 536 c 1
 275 417 l 1
EndSplineSet
KernsSLIF: 83 -51 0 0 97 -32 0 0 323 -32 0 0 322 -32 0 0 241 2 0 0 328 -32 0 0 58 -138 0 0 101 -54 0 0 335 -54 0 0 104 -10 0 0 111 -58 0 0 352 -58 0 0 351 -58 0 0 39 -129 0 0 59 -110 0 0
EndChar
StartChar: u
Encoding: 117 117 86
Width: 598
Flags: W
HStem: -16 41<250 272> 376 41<148 204 443 519>
VStem: 144 44<83 97>
DStem: 204 376 254 417 149 115 191 115 519 376 569 417 464 115 489 41
Fore
439 0 m 1
 453 66 l 1
 387 11 320 -16 252 -16 c 0
 187 -16 144 22 144 83 c 0
 144 93 146 104 149 115 c 1
 204 376 l 1
 150 376 l 2
 133 376 127 381 127 392 c 0
 127 408 140 417 159 417 c 2
 254 417 l 1
 191 115 l 1
 188 109 188 106 188 97 c 0
 188 55 218 25 261 25 c 0
 329 25 394 53 464 115 c 1
 519 376 l 1
 445 376 l 2
 428 376 421 381 421 392 c 0
 421 408 433 417 454 417 c 2
 569 417 l 1
 489 41 l 1
 523 41 l 2
 540 41 546 36 546 25 c 0
 546 10 534 0 515 0 c 2
 439 0 l 1
EndSplineSet
KernsSLIF: 39 -54 0 0
EndChar
StartChar: v
Encoding: 118 118 87
Width: 598
Flags: W
HStem: 0 21G<266 336> 376 41<135 178 146 299 469 540 481 634>
VStem: 114 208<392 400> 448 207<392 400>
DStem: 178 376 223 376 266 0 302 41 540 376 583 376 322 41 336 0
Fore
336 0 m 1
 266 0 l 1
 178 376 l 1
 137 376 l 2
 121 376 114 381 114 392 c 0
 114 408 126 417 146 417 c 2
 297 417 l 2
 316 417 322 413 322 400 c 0
 322 386 309 376 289 376 c 2
 223 376 l 1
 302 41 l 1
 322 41 l 1
 540 376 l 1
 471 376 l 2
 455 376 448 381 448 392 c 0
 448 408 460 417 481 417 c 2
 632 417 l 2
 649 417 655 413 655 400 c 0
 655 386 643 376 623 376 c 2
 583 376 l 1
 336 0 l 1
EndSplineSet
KernsSLIF: 97 -10 0 0 323 -10 0 0 325 -10 0 0 322 -10 0 0 241 21 0 0 324 -10 0 0 328 -10 0 0 327 -10 0 0 99 -28 0 0 58 -96 0 0 44 -152 0 0 101 -21 0 0 335 -21 0 0 337 -21 0 0 336 -21 0 0 103 -19 0 0 45 -38 0 0 108 -112 0 0 111 -29 0 0 352 -29 0 0 351 -29 0 0 353 -29 0 0 249 -29 0 0 46 -184 0 0 115 -28 0 0 59 -85 0 0
EndChar
StartChar: w
Encoding: 119 119 88
Width: 598
Flags: W
HStem: 0 21G<160 211 391 442> 376 41<135 157 146 259 510 562 521 634>
VStem: 157 38<0 376> 489 166<392 400>
DStem: 157 376 195 376 160 0 199 56 339 311 356 258 199 56 211 0 356 258 391 311 391 0 425 56 562 376 604 376 425 56 442 0
Fore
442 0 m 1
 391 0 l 1
 356 258 l 1
 211 0 l 1
 160 0 l 1
 157 376 l 1
 137 376 l 2
 121 376 114 381 114 392 c 0
 114 408 126 417 146 417 c 2
 257 417 l 2
 274 417 280 413 280 400 c 0
 280 386 268 376 248 376 c 2
 195 376 l 1
 199 56 l 1
 339 311 l 1
 391 311 l 1
 425 56 l 1
 562 376 l 1
 512 376 l 2
 496 376 489 381 489 392 c 0
 489 408 501 417 521 417 c 2
 632 417 l 2
 649 417 655 413 655 400 c 0
 655 386 643 376 623 376 c 2
 604 376 l 1
 442 0 l 1
EndSplineSet
KernsSLIF: 97 -10 0 0 323 -10 0 0 325 -10 0 0 322 -10 0 0 241 21 0 0 324 -10 0 0 328 -10 0 0 327 -10 0 0 99 -15 0 0 58 -96 0 0 44 -96 0 0 101 -5 0 0 335 -5 0 0 337 -5 0 0 336 -5 0 0 103 -7 0 0 45 -5 0 0 108 -68 0 0 111 -10 0 0 352 -10 0 0 351 -10 0 0 353 -10 0 0 249 -7 0 0 46 -129 0 0 115 -28 0 0 59 -85 0 0
EndChar
StartChar: x
Encoding: 120 120 89
Width: 598
Flags: W
HStem: 0 41<76 96 152 222 388 464 520 532> 376 41<179 191 191 303 467 517 478 589>
VStem: 55 188<16 25> 158 166<392 400> 367 186<16 25> 447 163<392 400>
DStem: 188 376 246 376 318 218 352 246 318 218 340 191 96 41 152 41 340 191 375 218 464 41 521 41 517 376 573 376 352 246 375 218
Fore
375 218 m 1xd4
 521 41 l 1
 532 41 l 2
 549 41 553 36 553 25 c 0
 553 10 541 0 522 0 c 2
 390 0 l 2
 374 0 367 5 367 16 c 0
 367 32 379 41 399 41 c 2
 464 41 l 1
 340 191 l 1
 152 41 l 1
 220 41 l 2
 237 41 243 36 243 25 c 0
 243 10 231 0 211 0 c 2
 78 0 l 2
 62 0 55 5 55 16 c 0xe8
 55 32 67 41 87 41 c 2
 96 41 l 1
 318 218 l 1
 188 376 l 1
 181 376 l 2
 165 376 158 381 158 392 c 0
 158 408 170 417 191 417 c 2
 301 417 l 2
 318 417 324 413 324 400 c 0
 324 386 312 376 292 376 c 2
 246 376 l 1
 352 246 l 1
 517 376 l 1
 468 376 l 2
 453 376 447 381 447 392 c 0
 447 408 458 417 478 417 c 2
 589 417 l 2
 606 417 610 413 610 400 c 0
 610 386 600 376 579 376 c 2
 573 376 l 1
 375 218 l 1xd4
EndSplineSet
KernsSLIF: 97 -10 0 0 99 -45 0 0 101 -38 0 0 335 -38 0 0 111 -41 0 0 113 -42 0 0
EndChar
StartChar: y
Encoding: 121 121 90
Width: 598
Flags: W
HStem: -186 42<43 180 222 288> 376 41<157 175 167 282 490 546 501 612>
VStem: 135 170<392 400> 468 165<392 400>
DStem: 175 376 221 376 282 0 316 45 282 0 589 376 180 -144 222 -144 546 376 589 376 316 45 222 -144
Fore
282 0 m 1
 175 376 l 1
 159 376 l 2
 142 376 135 381 135 392 c 0
 135 408 147 417 167 417 c 2
 282 417 l 2
 299 417 305 411 305 400 c 0
 305 386 292 376 273 376 c 2
 221 376 l 1
 316 45 l 1
 546 376 l 1
 492 376 l 2
 476 376 468 381 468 393 c 0
 468 407 481 417 501 417 c 2
 610 417 l 2
 627 417 633 411 633 400 c 0
 633 386 623 376 602 376 c 2
 589 376 l 1
 222 -144 l 1
 286 -144 l 2
 303 -144 309 -149 309 -161 c 0
 309 -176 297 -186 278 -186 c 2
 45 -186 l 2
 29 -186 22 -181 22 -170 c 0
 22 -154 34 -144 53 -144 c 2
 180 -144 l 1
 282 0 l 1
EndSplineSet
KernsSLIF: 97 -24 0 0 323 -24 0 0 325 -24 0 0 322 -24 0 0 241 7 0 0 324 -24 0 0 328 -24 0 0 327 -24 0 0 99 -42 0 0 58 -110 0 0 44 -158 0 0 101 -36 0 0 335 -36 0 0 337 -36 0 0 336 -36 0 0 103 -32 0 0 45 -37 0 0 108 -126 0 0 111 -43 0 0 352 -43 0 0 351 -43 0 0 353 -43 0 0 249 -43 0 0 46 -190 0 0 115 -42 0 0 59 -98 0 0
EndChar
StartChar: z
Encoding: 122 122 91
Width: 598
Flags: W
HStem: 0 41<180 489> 0 124<488 496> 376 41<214 498>
DStem: 214 417 245 376 192 322 233 322 468 97 510 97 458 41 489 0 498 376 555 381 123 36 180 41
Fore
563 417 m 1x60
 555 381 l 1
 180 41 l 1
 458 41 l 1xa0
 468 97 l 1
 473 115 482 124 496 124 c 0x60
 505 124 512 117 512 109 c 0
 512 106 512 104 511 101 c 2
 510 97 l 1
 489 0 l 1xa0
 115 0 l 1
 123 36 l 1
 498 376 l 1
 245 376 l 1
 233 322 l 2
 229 303 221 294 208 294 c 0
 199 294 191 301 191 309 c 1
 192 322 l 1
 214 417 l 1
 563 417 l 1x60
EndSplineSet
EndChar
StartChar: braceleft
Encoding: 123 123 92
Width: 598
Flags: W
HStem: 584 20G<480.5 514.5>
VStem: 275 42<-45 -27> 316 43<168 184>
DStem: 314 154 356 154 278 -19 319 -19 388 499 428 499 351 326 392 326
Fore
428 499 m 1xa0
 392 326 l 1
 383 285 367 262 329 240 c 1
 351 222 359 208 359 184 c 0xa0
 359 177 358 165 356 154 c 1
 319 -19 l 1
 317 -24 317 -28 317 -35 c 0
 317 -61 335 -81 360 -83 c 0
 377 -85 382 -89 382 -100 c 0
 382 -114 369 -124 353 -124 c 0
 308 -124 275 -90 275 -42 c 0xc0
 275 -35 275 -27 278 -19 c 1
 314 154 l 1
 316 159 316 165 316 170 c 0
 316 198 299 217 268 218 c 0
 252 218 248 225 248 235 c 0
 248 250 258 260 277 261 c 0
 313 263 343 289 351 326 c 2
 388 499 l 1
 400 558 453 604 508 604 c 0
 521 604 528 598 528 589 c 0
 528 573 519 566 498 563 c 0
 464 559 436 533 428 499 c 1xa0
EndSplineSet
EndChar
StartChar: bar
Encoding: 124 124 93
Width: 598
Flags: W
HStem: 584 20G<421.5 432.5>
DStem: 402 576 442 576 258 -97 299 -97
Fore
442 576 m 6
 299 -97 l 6
 295 -115 286 -124 273 -124 c 4
 265 -124 257 -117 257 -109 c 4
 257 -107 258 -101 258 -97 c 5
 402 576 l 5
 407 593 415 604 428 604 c 4
 437 604 444 597 444 589 c 4
 444 586 444 585 442 576 c 6
EndSplineSet
EndChar
StartChar: braceright
Encoding: 125 125 94
Width: 598
Flags: W
HStem: 584 20G<342 372>
VStem: 343 44<296 311> 386 42<513 526>
DStem: 311 154 352 154 275 -19 316 -19 383 499 425 499 348 326 390 326
Fore
275 -19 m 1xc0
 311 154 l 1
 320 195 337 218 374 240 c 1
 352 258 343 274 343 296 c 0xc0
 343 303 345 316 348 326 c 1
 383 499 l 1
 386 504 386 508 386 515 c 0xa0
 386 541 368 561 343 563 c 0xc0
 326 566 322 568 322 580 c 0
 322 593 334 604 350 604 c 0
 394 604 428 570 428 524 c 0xa0
 428 515 427 507 425 499 c 1
 390 326 l 1
 388 322 387 316 387 311 c 0
 387 282 405 263 434 261 c 0
 450 261 455 256 455 245 c 0
 455 231 445 220 426 218 c 0
 390 217 360 191 352 154 c 1
 316 -19 l 1
 303 -78 250 -124 194 -124 c 0
 182 -124 175 -118 175 -108 c 0
 175 -93 184 -85 206 -83 c 0
 240 -79 267 -53 275 -19 c 1xc0
EndSplineSet
EndChar
StartChar: asciitilde
Encoding: 126 126 95
Width: 598
Flags: W
HStem: 212 40<431 443> 307 41<276 288>
Fore
558 330 m 0
 567 330 575 323 575 316 c 0
 575 306 566 294 541 271 c 0
 498 231 465 212 433 212 c 0
 402 212 383 225 333 277 c 1
 312 297 295 307 278 307 c 0
 251 307 239 299 183 242 c 1
 174 234 167 231 161 231 c 0
 152 231 144 237 144 245 c 0
 144 255 155 267 183 294 c 0
 226 333 254 348 286 348 c 0
 308 348 326 340 350 323 c 1
 373 301 l 1
 376 296 376 296 391 282 c 0
 417 258 425 252 441 252 c 0
 464 252 492 269 524 305 c 0
 544 326 549 330 558 330 c 0
EndSplineSet
EndChar
StartChar: exclamdown
Encoding: 161 161 96
Width: 598
Flags: W
HStem: 317 100<372 385>
Fore
227 -161 m 1
 316 165 l 1
 320 184 328 193 342 193 c 0
 350 193 357 186 357 178 c 0
 357 174 357 171 356 165 c 2
 305 -161 l 1
 299 -198 283 -216 254 -216 c 0
 235 -216 222 -203 222 -187 c 0
 222 -182 225 -174 227 -161 c 1
374 317 m 2
 362 317 l 2
 335 317 316 333 316 357 c 0
 316 390 347 417 383 417 c 2
 394 417 l 2
 421 417 439 400 439 377 c 0
 439 345 408 317 374 317 c 2
EndSplineSet
EndChar
StartChar: cent
Encoding: 162 162 97
Width: 598
Flags: W
HStem: -13 177<297 339> 363 115<523 546> 459 39<407 427>
VStem: 175 41<271 292>
DStem: 307 127 348 127 283 15 324 15 408 603 449 603 385 496 427 498
Fore
385 496 m 1xb0
 408 603 l 1
 411 621 421 630 434 630 c 0
 444 630 451 623 451 614 c 0
 451 610 451 610 449 603 c 1
 427 498 l 1xb0
 465 498 502 483 523 461 c 1
 529 472 536 478 546 478 c 0
 557 478 563 472 563 461 c 0
 563 458 563 456 562 453 c 1
 549 392 l 2
 545 373 536 363 523 363 c 0xd0
 518 363 507 371 507 375 c 1
 508 404 l 1
 508 409 494 431 484 438 c 0
 468 451 438 459 407 459 c 0
 305 459 216 375 216 277 c 0
 216 214 269 164 339 164 c 0
 386 164 441 181 477 208 c 1
 484 212 492 216 496 216 c 0
 502 216 512 208 512 201 c 0
 512 188 501 176 475 163 c 0
 432 142 388 129 348 127 c 1
 324 15 l 2
 320 -4 311 -13 297 -13 c 0
 289 -13 282 -6 282 2 c 2
 282 10 l 1
 283 15 l 1
 307 127 l 1
 227 137 175 194 175 273 c 0
 175 333 206 394 256 437 c 0
 292 468 326 483 385 496 c 1xb0
EndSplineSet
EndChar
StartChar: sterling
Encoding: 163 163 98
Width: 598
Flags: W
HStem: 0 40<111 125 191 445> 273 41<146 251 291 393> 536 42<409 427>
VStem: 245 41<383 401>
Fore
191 41 m 1
 443 41 l 2
 468 41 489 59 499 92 c 0
 504 108 512 115 525 115 c 0
 534 115 541 108 541 100 c 0
 541 86 529 59 515 41 c 0
 493 15 465 0 436 0 c 2
 113 0 l 2
 97 0 90 5 90 17 c 0
 90 30 101 40 117 40 c 0
 175 41 248 166 252 273 c 1
 148 273 l 2
 132 273 125 278 125 290 c 0
 125 305 137 314 157 314 c 2
 251 314 l 1
 246 353 245 373 245 393 c 0
 245 493 326 578 421 578 c 0
 458 578 487 566 511 539 c 0
 524 525 533 508 533 499 c 0
 533 488 519 476 508 476 c 0
 502 476 498 479 493 488 c 0
 473 522 448 536 413 536 c 0
 381 536 348 521 323 495 c 0
 297 466 286 439 286 396 c 0
 286 379 286 379 291 328 c 1
 292 314 l 1
 391 314 l 2
 408 314 414 309 414 299 c 0
 414 283 402 273 382 273 c 2
 292 273 l 1
 289 189 248 93 191 41 c 1
EndSplineSet
EndChar
StartChar: fraction
Encoding: 164 8260 99
Width: 598
Flags: W
DStem: 610 464 625 430 104 180 119 146
Fore
625 430 m 2
 119 146 l 1
 114 143 l 2
 109 140 104 138 100 138 c 0
 91 138 84 146 84 155 c 0
 84 165 90 172 104 180 c 2
 610 464 l 2
 617 468 624 470 629 470 c 0
 637 470 644 464 644 454 c 0
 644 444 640 438 625 430 c 2
EndSplineSet
EndChar
StartChar: yen
Encoding: 165 165 100
Width: 598
Flags: W
HStem: 0 41<192 289 330 416> 141 37<178 308 359 490> 238 37<198 324 392 512> 522 41<187 214 198 310 521 562 532 644>
VStem: 166 165<538 547> 500 165<539 546>
DStem: 214 522 260 522 324 275 363 295 309 141 351 141 289 41 330 41 331 238 373 238 318 178 359 178 562 522 609 522 363 295 392 275
Fore
373 238 m 1
 359 178 l 1
 490 178 l 2
 502 178 508 174 508 167 c 0
 508 150 499 141 482 141 c 2
 351 141 l 1
 330 41 l 1
 416 41 l 2
 433 41 439 36 439 25 c 0
 439 10 426 0 407 0 c 2
 194 0 l 2
 178 0 171 5 171 16 c 0
 171 32 183 41 203 41 c 2
 289 41 l 1
 309 141 l 1
 180 141 l 2
 167 141 161 144 161 153 c 0
 161 170 170 178 187 178 c 2
 318 178 l 1
 331 238 l 1
 200 238 l 2
 187 238 182 242 182 250 c 0
 182 267 191 275 208 275 c 2
 324 275 l 1
 214 522 l 1
 189 522 l 2
 172 522 166 527 166 538 c 0
 166 553 178 563 198 563 c 2
 308 563 l 2
 325 563 331 559 331 547 c 0
 331 532 319 522 299 522 c 2
 260 522 l 1
 363 295 l 1
 562 522 l 1
 523 522 l 2
 506 522 500 527 500 539 c 0
 500 553 512 563 532 563 c 2
 642 563 l 2
 659 563 665 559 665 546 c 0
 665 532 653 522 633 522 c 2
 609 522 l 1
 392 275 l 1
 510 275 l 2
 523 275 529 272 529 265 c 0
 529 246 519 238 502 238 c 2
 373 238 l 1
EndSplineSet
EndChar
StartChar: florin
Encoding: 166 402 101
Width: 598
Flags: W
HStem: -93 41<152 171> 334 41<253 351 400 498> 566 52<562 620> 576 42<553 571>
DStem: 351 334 392 334 294 64 333 58 377 462 419 462 360 375 400 375
Fore
400 375 m 1xd0
 498 375 l 2
 515 375 519 371 519 359 c 0
 519 343 508 334 488 334 c 2
 392 334 l 1
 333 58 l 1
 316 -25 235 -93 154 -93 c 0
 112 -93 74 -79 74 -63 c 0
 74 -51 85 -39 97 -39 c 0
 101 -39 104 -40 127 -47 c 0
 135 -50 152 -52 163 -52 c 0
 225 -52 279 -4 294 64 c 1
 351 334 l 1
 255 334 l 2
 238 334 232 339 232 351 c 0
 232 367 244 375 263 375 c 2
 360 375 l 1
 377 462 l 1
 397 549 478 618 562 618 c 0
 587 618 615 613 633 604 c 0
 640 601 643 597 643 591 c 0
 643 578 631 566 620 566 c 0xe0
 617 566 615 566 595 572 c 0
 587 575 569 576 559 576 c 0
 490 576 434 532 419 462 c 2
 400 375 l 1xd0
EndSplineSet
EndChar
StartChar: section
Encoding: 167 167 102
Width: 598
Flags: W
HStem: -62 40<141 316> -62 135<138 299> 563 40<394 574>
VStem: 140 44<343 355> 257 42<465 477> 416 42<64 75> 532 43<190 201>
DStem: 115 49 157 49 91 -62 141 -22 252 211 285 243 309 175 340 208 388 326 421 358 445 290 470 326 574 563 624 603 559 494 601 494
Fore
624 603 m 1xbe
 601 494 l 1
 597 478 589 468 575 468 c 0
 566 468 557 476 558 484 c 0
 558 485 559 489 559 494 c 1
 574 563 l 1
 407 563 l 2
 351 563 299 519 299 475 c 0
 299 444 326 417 421 358 c 1
 470 326 l 1
 545 282 575 245 575 201 c 0
 575 175 562 150 538 132 c 0
 515 113 495 106 453 101 c 1
 458 91 458 84 458 75 c 0
 458 1 383 -62 299 -62 c 2xbe
 91 -62 l 1
 115 49 l 1
 118 64 127 73 140 73 c 0x7e
 150 73 157 67 157 58 c 2
 157 49 l 1
 141 -22 l 1
 306 -22 l 2
 364 -22 416 19 416 66 c 0
 416 95 385 127 309 175 c 2
 252 211 l 2
 174 260 140 301 140 345 c 0
 140 394 193 436 262 441 c 1
 258 451 257 458 257 468 c 0
 257 536 334 603 411 603 c 2
 624 603 l 1xbe
445 290 m 2
 388 326 l 2
 333 360 308 379 286 403 c 1
 282 402 280 402 275 402 c 2
 268 402 l 2
 221 402 184 379 184 350 c 0
 184 322 218 285 285 243 c 2
 340 208 l 2
 390 177 414 157 428 140 c 1
 433 141 434 141 447 142 c 0
 498 143 532 163 532 192 c 0
 532 220 498 258 445 290 c 2
EndSplineSet
EndChar
StartChar: currency
Encoding: 168 164 103
Width: 598
Flags: W
HStem: 127 40<324 336> 417 41<382 401>
VStem: 193 42<254 272> 489 43<316 328>
DStem: 209 450 244 478 252 394 288 424 210 191 233 161 142 135 165 106 436 161 471 191 479 106 515 135 559 478 583 450 492 424 515 394
Fore
233 161 m 1
 165 106 l 2
 155 98 150 95 144 95 c 0
 133 95 127 102 127 110 c 0
 127 119 131 125 142 135 c 2
 210 191 l 1
 199 214 193 235 193 258 c 0
 193 305 217 358 252 394 c 1
 209 450 l 2
 204 456 201 461 201 465 c 0
 201 477 215 489 227 489 c 0
 234 489 238 487 244 478 c 1
 288 424 l 1
 323 447 360 458 399 458 c 0
 434 458 468 447 492 424 c 1
 559 478 l 2
 569 487 574 489 580 489 c 0
 590 489 597 482 597 473 c 0
 597 464 593 459 583 450 c 2
 515 394 l 1
 527 373 532 351 532 326 c 0
 532 280 510 231 471 191 c 1
 515 135 l 2
 516 133 516 133 521 119 c 1
 521 108 508 95 495 95 c 0
 490 95 485 98 479 106 c 2
 436 161 l 1
 400 138 364 127 326 127 c 0
 290 127 258 140 233 161 c 1
388 417 m 0
 309 417 235 343 235 267 c 0
 235 210 277 167 334 167 c 0
 414 167 489 242 489 318 c 0
 489 376 447 417 388 417 c 0
EndSplineSet
EndChar
StartChar: quotesingle
Encoding: 169 39 104
Width: 598
Flags: W
HStem: 584 20G<364 492>
Fore
364 604 m 1
 492 604 l 1
 405 351 l 1
 396 326 383 316 367 316 c 0
 353 316 343 325 343 341 c 2
 343 351 l 1
 364 604 l 1
EndSplineSet
EndChar
StartChar: quotedblleft
Encoding: 170 8220 105
Width: 598
Flags: W
HStem: 584 20G<221 347 438 564>
Fore
564 604 m 1
 586 379 l 1
 586 376 l 2
 586 358 569 343 550 343 c 0
 536 343 530 350 524 365 c 1
 438 604 l 1
 564 604 l 1
347 604 m 1
 369 379 l 1
 369 376 l 2
 369 358 352 343 333 343 c 0
 320 343 313 350 307 365 c 1
 221 604 l 1
 347 604 l 1
EndSplineSet
KernsSLIF: 65 -85 1 0 225 -73 1 0 257 -85 1 0 256 -85 1 0 262 -85 1 0 84 -59 1 0 86 -23 1 0 87 -10 1 0 89 -59 1 0
EndChar
StartChar: guillemotleft
Encoding: 171 171 106
Width: 598
Flags: W
HStem: 0 21G<289 298.5 518 527.5> 397 20G<377.5 385.5 606.5 614.5>
Fore
108 209 m 1
 358 407 l 2
 368 414 374 417 381 417 c 0
 390 417 397 410 397 400 c 0
 397 393 394 390 382 377 c 1
 203 209 l 1
 309 40 l 1
 316 32 317 29 317 25 c 0
 317 12 305 0 292 0 c 0
 286 0 280 4 274 11 c 2
 108 209 l 1
337 209 m 1
 586 407 l 1
 597 414 603 417 610 417 c 0
 619 417 626 410 626 400 c 0
 626 393 624 390 610 377 c 2
 432 209 l 1
 539 40 l 1
 545 32 546 29 546 25 c 0
 546 12 534 0 521 0 c 0
 515 0 508 4 502 11 c 2
 337 209 l 1
EndSplineSet
EndChar
StartChar: guilsinglleft
Encoding: 172 8249 107
Width: 598
Flags: W
HStem: 0 21G<289 298.5> 397 20G<377.5 385.5>
Fore
108 209 m 1
 357 407 l 1
 368 414 374 417 381 417 c 0
 390 417 397 411 397 400 c 0
 397 393 394 390 382 377 c 1
 203 209 l 1
 309 40 l 1
 316 32 317 29 317 25 c 0
 317 12 305 0 292 0 c 0
 286 0 280 4 274 11 c 2
 108 209 l 1
EndSplineSet
EndChar
StartChar: guilsinglright
Encoding: 173 8250 108
Width: 598
Flags: W
HStem: 0 21G<308 316.5> 397 20G<396 405>
Fore
585 208 m 1
 337 11 l 2
 326 2 320 0 313 0 c 0
 303 0 297 6 297 16 c 0
 297 24 299 28 312 40 c 2
 490 208 l 1
 383 377 l 1
 377 385 377 388 377 392 c 0
 377 405 390 417 402 417 c 0
 408 417 414 413 420 407 c 1
 585 208 l 1
EndSplineSet
KernsSLIF: 65 -64 1 0 225 -59 1 0 257 -64 1 0 256 -64 1 0 262 -64 1 0 84 -163 1 0 86 -103 1 0 87 -46 1 0 89 -153 1 0
EndChar
StartChar: fi
Encoding: 174 64257 109
Width: 598
Flags: W
HStem: 0 41<35 242 363 451 492 567> 376 41<121 200 250 522> 519 105<567 577> 563 41<342 359>
DStem: 200 376 242 376 129 41 170 41 221 476 262 476 209 417 250 417 522 376 572 417 451 41 492 41 551 603 610 603 539 544 598 545
Fore
610 603 m 1xe0
 598 545 l 2
 595 530 593 519 575 519 c 2
 552 519 l 2
 536 519 538 536 539 544 c 1
 551 603 l 1
 553 610 558 624 574 624 c 2
 596 624 l 2
 613 624 613 612 610 603 c 1xe0
572 417 m 1
 492 41 l 1
 567 41 l 2
 584 41 590 36 590 25 c 0
 590 10 576 0 558 0 c 2
 365 0 l 2
 350 0 342 5 342 16 c 0
 342 32 354 41 374 41 c 2
 451 41 l 1
 522 376 l 1
 242 376 l 1
 170 41 l 1
 242 41 l 2
 258 41 265 36 265 25 c 0
 265 10 252 0 233 0 c 2
 36 0 l 2
 21 0 15 5 15 16 c 0
 15 32 25 41 46 41 c 2
 129 41 l 1
 200 376 l 1
 123 376 l 2
 106 376 100 381 100 393 c 0
 100 408 112 417 131 417 c 2
 209 417 l 1
 221 476 l 1
 237 549 296 604 357 604 c 0
 376 604 410 597 428 589 c 0
 436 586 441 580 441 573 c 0
 441 561 428 549 417 549 c 0
 414 549 414 549 404 552 c 0
 380 559 362 563 348 563 c 0xd0
 309 563 273 525 262 476 c 1
 250 417 l 1
 572 417 l 1
EndSplineSet
Ligature: 0 0 'liga' f i
EndChar
StartChar: fl
Encoding: 175 64258 110
Width: 598
Flags: W
HStem: 0 41<35 242 363 450 492 569> 376 41<121 200 250 322> 563 41<342 358 428 561>
DStem: 200 376 242 376 129 41 170 41 221 476 262 476 209 417 250 417 561 563 610 604 450 41 492 41
Fore
403 597 m 1
 409 602 417 604 428 604 c 2
 610 604 l 1
 492 41 l 1
 569 41 l 2
 585 41 591 36 591 25 c 0
 591 10 579 0 559 0 c 2
 365 0 l 2
 350 0 342 5 342 16 c 0
 342 32 354 41 373 41 c 2
 450 41 l 1
 561 563 l 1
 437 563 l 1
 432 555 425 549 416 549 c 0
 413 549 413 549 403 552 c 0
 380 559 360 563 347 563 c 0
 309 563 273 525 262 476 c 1
 250 417 l 1
 322 417 l 2
 339 417 345 413 345 400 c 0
 345 386 333 376 312 376 c 2
 242 376 l 1
 170 41 l 1
 242 41 l 2
 258 41 265 36 265 25 c 0
 265 10 252 0 232 0 c 2
 36 0 l 2
 21 0 15 5 15 16 c 0
 15 32 25 41 46 41 c 2
 129 41 l 1
 200 376 l 1
 123 376 l 2
 106 376 100 381 100 393 c 0
 100 408 112 417 131 417 c 2
 209 417 l 1
 221 476 l 1
 235 547 296 604 356 604 c 0
 369 604 387 601 403 597 c 1
EndSplineSet
Ligature: 0 0 'liga' f l
EndChar
StartChar: endash
Encoding: 177 8211 111
Width: 598
Flags: W
HStem: 261 41<152 566>
Fore
556 261 m 2
 154 261 l 2
 138 261 131 266 131 277 c 0
 131 292 143 302 163 302 c 2
 566 302 l 2
 583 302 589 299 589 286 c 0
 589 271 576 261 556 261 c 2
EndSplineSet
EndChar
StartChar: dagger
Encoding: 178 8224 112
Width: 598
Flags: W
HStem: 376 41<232 359 409 538> 584 20G<421 432.5>
DStem: 359 376 400 376 272 -36 313 -36 402 576 443 576 368 417 409 417
Fore
400 376 m 1
 313 -36 l 1
 309 -53 300 -63 286 -63 c 0
 277 -63 269 -56 269 -49 c 0
 269 -45 271 -39 272 -36 c 1
 359 376 l 1
 231 376 l 2
 215 376 208 381 208 392 c 0
 208 400 214 409 222 414 c 0
 223 415 223 415 233 417 c 2
 240 417 l 1
 368 417 l 1
 402 576 l 1
 405 595 414 604 428 604 c 0
 437 604 444 597 444 589 c 1
 443 576 l 1
 409 417 l 1
 536 417 l 2
 553 417 561 411 561 400 c 0
 561 385 549 376 529 376 c 2
 400 376 l 1
EndSplineSet
EndChar
StartChar: daggerdbl
Encoding: 179 8225 113
Width: 598
Flags: W
HStem: 124 41<175 305 356 485> 376 41<232 359 409 538> 584 20G<421 432.5>
DStem: 305 124 346 124 271 -35 312 -35 359 376 400 376 314 165 356 165 402 576 443 576 368 417 409 417
Fore
400 376 m 1
 356 165 l 1
 483 165 l 2
 501 165 507 161 507 149 c 0
 507 133 495 124 475 124 c 2
 346 124 l 1
 312 -35 l 1
 309 -53 300 -62 286 -62 c 0
 277 -62 269 -55 269 -47 c 1
 271 -35 l 1
 305 124 l 1
 177 124 l 2
 160 124 154 129 154 140 c 0
 154 157 166 165 186 165 c 2
 314 165 l 1
 359 376 l 1
 231 376 l 2
 214 376 208 381 208 392 c 0
 208 400 214 409 222 414 c 0
 223 415 223 415 233 417 c 2
 239 417 l 1
 368 417 l 1
 402 576 l 1
 405 595 414 604 428 604 c 0
 437 604 444 597 444 589 c 1
 443 576 l 1
 409 417 l 1
 536 417 l 2
 553 417 561 411 561 400 c 0
 561 385 549 376 529 376 c 2
 400 376 l 1
EndSplineSet
EndChar
StartChar: periodcentered
Encoding: 180 183 114
Width: 598
Flags: W
Fore
369 348 m 2
 380 348 l 2
 413 348 436 326 436 296 c 0
 436 254 396 217 352 217 c 2
 341 217 l 2
 308 217 285 238 285 269 c 0
 285 311 325 348 369 348 c 2
EndSplineSet
EndChar
StartChar: paragraph
Encoding: 182 182 115
Width: 598
Flags: W
HStem: -62 41<172 280 433 497> 563 41<427 517 427 627>
VStem: 152 187<-46 -36> 367 150<-45 -36>
DStem: 340 260 445 563 280 -21 322 -21 403 558 445 563 350 307 322 -21 517 563 557 563 393 -21 433 -21
Fore
557 563 m 1
 433 -21 l 1
 495 -21 l 2
 510 -21 517 -25 517 -36 c 0
 517 -52 505 -62 487 -62 c 2
 388 -62 l 2
 374 -62 367 -57 367 -45 c 0
 367 -33 377 -22 393 -21 c 1
 517 563 l 1
 445 563 l 1
 322 -21 l 1
 333 -22 339 -27 339 -36 c 0
 339 -52 326 -62 308 -62 c 2
 174 -62 l 2
 159 -62 152 -56 152 -46 c 0
 152 -32 164 -21 182 -21 c 2
 280 -21 l 1
 340 260 l 1
 294 263 261 271 234 284 c 0
 189 307 163 343 163 386 c 0
 163 391 164 399 166 407 c 1
 176 453 l 2
 195 542 297 604 427 604 c 2
 627 604 l 2
 641 604 648 600 648 589 c 0
 648 573 636 563 618 563 c 2
 557 563 l 1
350 307 m 1
 403 558 l 1
 328 553 258 505 245 451 c 1
 237 414 l 1
 235 408 235 403 235 400 c 0
 232 354 282 314 350 307 c 1
EndSplineSet
EndChar
StartChar: bullet
Encoding: 183 8226 116
Width: 598
Flags: W
Fore
353 337 m 0
 405 337 449 292 449 239 c 0
 449 184 405 141 351 141 c 0
 297 141 252 184 252 240 c 0
 252 294 297 337 353 337 c 0
EndSplineSet
EndChar
StartChar: quotesinglbase
Encoding: 184 8218 117
Width: 598
Flags: W
Fore
238 144 m 1
 371 144 l 1
 170 -120 l 2
 155 -140 147 -144 133 -144 c 0
 120 -144 110 -135 110 -123 c 0
 110 -117 112 -110 115 -106 c 1
 238 144 l 1
EndSplineSet
EndChar
StartChar: quotedblbase
Encoding: 185 8222 118
Width: 598
Flags: W
Fore
195 144 m 1
 322 144 l 1
 133 -93 l 2
 120 -110 110 -117 97 -117 c 0
 84 -117 73 -107 73 -95 c 0
 73 -91 75 -85 76 -80 c 1
 195 144 l 1
411 144 m 1
 538 144 l 1
 350 -93 l 2
 337 -110 328 -117 316 -117 c 0
 301 -117 290 -107 290 -95 c 0
 290 -91 291 -86 294 -80 c 2
 411 144 l 1
EndSplineSet
KernsSLIF: 65 -7 1 0 225 -7 1 0 84 -107 1 0 86 -109 1 0 87 -30 1 0 89 -107 1 0
EndChar
StartChar: quotedblright
Encoding: 186 8221 119
Width: 598
Flags: W
HStem: 584 20G<292 417 508 635>
Fore
292 604 m 1
 417 604 l 1
 231 365 l 1
 217 350 208 343 194 343 c 0
 181 343 170 352 170 364 c 0
 170 368 172 374 174 379 c 1
 292 604 l 1
508 604 m 1
 635 604 l 1
 447 365 l 1
 434 350 425 343 411 343 c 0
 398 343 387 352 387 364 c 0
 387 368 388 373 391 379 c 2
 508 604 l 1
EndSplineSet
KernsSLIF: 65 -86 1 0 225 -98 1 0 257 -85 1 0 256 -85 1 0 262 -85 1 0 84 -68 1 0 86 -28 1 0 87 -32 1 0 89 -54 1 0
EndChar
StartChar: guillemotright
Encoding: 187 187 120
Width: 598
Flags: W
HStem: 0 21G<78.5 86.5 308 316.5> 397 20G<165.5 175 396 405>
Fore
356 208 m 1
 107 11 l 1
 97 2 90 0 83 0 c 0
 74 0 67 6 67 16 c 0
 67 24 69 28 83 40 c 1
 260 208 l 1
 154 377 l 2
 148 386 147 388 147 392 c 0
 147 405 159 417 172 417 c 0
 178 417 184 413 191 407 c 1
 356 208 l 1
585 208 m 1
 336 11 l 1
 326 2 320 0 313 0 c 0
 303 0 297 7 297 16 c 0
 297 24 300 28 312 40 c 2
 490 208 l 1
 383 377 l 1
 377 385 377 388 377 392 c 0
 377 405 390 417 402 417 c 0
 408 417 414 413 420 407 c 1
 585 208 l 1
EndSplineSet
KernsSLIF: 65 -64 1 0 225 -59 1 0 257 -64 1 0 256 -64 1 0 262 -64 1 0 84 -163 1 0 86 -103 1 0 87 -46 1 0 89 -153 1 0
EndChar
StartChar: ellipsis
Encoding: 188 8230 121
Width: 598
Flags: W
HStem: -15 21G<85 111.5 284 310.5 484 511>
VStem: 57 101<24 45> 256 101<24 45> 456 101<25 45>
Fore
118 84 m 0
 141 84 158 68 158 45 c 0
 158 15 127 -15 96 -15 c 0
 74 -15 57 2 57 24 c 0
 57 55 87 84 118 84 c 0
317 84 m 0
 340 84 357 68 357 45 c 0
 357 15 326 -15 295 -15 c 0
 273 -15 256 2 256 24 c 0
 256 55 286 84 317 84 c 0
517 84 m 0
 540 84 557 68 557 45 c 0
 557 15 527 -15 495 -15 c 0
 473 -15 456 2 456 25 c 0
 456 55 485 84 517 84 c 0
EndSplineSet
Ligature: 0 1 'liga' period period period
EndChar
StartChar: perthousand
Encoding: 189 8240 122
Width: 598
Flags: W
HStem: -8 33<174 188 449 460> 180 34<218 233 490 501> 391 34<221 235> 580 34<265 276>
VStem: 91 35<78 88> 138 36<477 489> 282 34<118 127> 328 35<517 527> 363 35<78 88> 553 36<118 127>
DStem: 575 419 578 388 175 297 178 266
Fore
274 614 m 0
 326 614 363 578 363 525 c 0
 363 456 296 391 226 391 c 0
 175 391 138 428 138 479 c 0
 138 549 204 614 274 614 c 0
267 580 m 0
 218 580 174 535 174 487 c 0
 174 451 198 425 233 425 c 0
 283 425 328 470 328 519 c 0
 328 555 303 580 267 580 c 0
578 388 m 2
 178 266 l 2
 174 265 170 265 167 265 c 0
 161 265 155 269 155 277 c 0
 155 286 161 294 175 297 c 1
 575 419 l 2
 579 420 583 421 586 421 c 0
 593 421 598 415 598 408 c 0
 598 399 591 392 578 388 c 2
227 214 m 0
 280 214 316 178 316 125 c 0
 316 56 249 -8 178 -8 c 0
 127 -8 91 28 91 80 c 0
 91 148 158 214 227 214 c 0
220 180 m 0
 172 180 126 133 126 86 c 0
 126 51 150 25 186 25 c 0
 235 25 282 70 282 120 c 0
 282 155 256 180 220 180 c 0
499 214 m 0
 552 214 589 178 589 125 c 0
 589 56 521 -8 451 -8 c 0
 400 -8 363 28 363 80 c 0
 363 148 430 214 499 214 c 0
492 180 m 0
 444 180 398 133 398 86 c 0
 398 51 424 25 458 25 c 0
 508 25 553 70 553 120 c 0
 553 155 528 180 492 180 c 0
EndSplineSet
EndChar
StartChar: questiondown
Encoding: 191 191 123
Width: 598
Flags: W
HStem: -175 42<249 269> 317 100<361 383>
VStem: 106 41<-55 -40>
DStem: 320 197 360 197 311 155 346 127 411 -59 453 -59 404 -100 439 -126
Fore
311 155 m 1
 320 197 l 1
 324 214 333 223 346 223 c 0
 356 223 362 216 362 208 c 1
 360 197 l 1
 346 127 l 1
 204 73 147 25 147 -42 c 0
 147 -98 194 -133 267 -133 c 0
 313 -133 345 -126 404 -100 c 1
 411 -59 l 1
 416 -41 425 -32 438 -32 c 0
 448 -32 455 -39 455 -49 c 0
 455 -50 454 -53 453 -59 c 1
 439 -126 l 1
 425 -132 417 -135 407 -140 c 0
 339 -167 305 -175 252 -175 c 0
 161 -175 106 -129 106 -53 c 0
 106 -4 130 46 171 79 c 0
 205 106 242 125 311 155 c 1
381 317 m 2
 353 317 l 2
 323 317 306 333 306 357 c 0
 306 390 337 417 374 417 c 2
 402 417 l 2
 431 417 449 402 449 377 c 0
 449 343 417 317 381 317 c 2
EndSplineSet
EndChar
StartChar: grave
Encoding: 193 96 124
Width: 598
Flags: W
DStem: 294 600 328 630 387 499 420 530
Fore
328 630 m 2
 420 530 l 1
 424 528 428 516 428 515 c 0
 428 502 415 490 403 490 c 0
 398 490 393 493 387 499 c 2
 294 600 l 2
 289 606 286 610 286 614 c 0
 286 627 299 640 312 640 c 0
 317 640 322 637 328 630 c 2
EndSplineSet
EndChar
StartChar: acute
Encoding: 194 180 125
Width: 598
Flags: W
DStem: 540 630 559 600 405 530 425 499
Fore
559 600 m 1
 425 499 l 2
 416 493 410 490 405 490 c 0
 394 490 388 498 388 506 c 0
 388 515 392 519 405 530 c 1
 540 630 l 2
 550 637 555 640 561 640 c 0
 570 640 576 632 576 623 c 0
 576 614 573 608 559 600 c 1
EndSplineSet
Ligature: 0 1 'liga' space acutecomb
EndChar
StartChar: circumflex
Encoding: 195 710 126
Width: 598
Flags: W
DStem: 425 586 436 640 513 498 545 532 436 640 425 586 282 530 299 498
Fore
436 640 m 1
 545 532 l 1
 552 523 553 519 553 515 c 0
 553 502 542 490 529 490 c 0
 524 490 519 493 513 498 c 2
 425 586 l 1
 299 498 l 2
 291 493 284 490 279 490 c 0
 269 490 263 498 263 506 c 0
 263 515 268 522 277 528 c 2
 282 530 l 1
 436 640 l 1
EndSplineSet
EndChar
StartChar: tilde
Encoding: 196 732 127
Width: 598
Flags: W
HStem: 544 20G<349 365> 583 20G<559.5 567>
Fore
562 603 m 0
 572 603 579 596 579 587 c 0
 579 578 575 573 557 558 c 0
 522 528 498 516 473 516 c 0
 451 516 434 523 399 547 c 0
 382 559 371 564 359 564 c 0
 339 564 328 558 292 527 c 1
 288 522 280 519 274 519 c 0
 265 519 258 525 258 534 c 0
 258 542 266 553 284 568 c 1
 318 593 342 606 367 606 c 0
 386 606 398 600 426 583 c 1
 458 561 467 557 481 557 c 0
 496 557 508 564 545 595 c 0
 552 601 557 603 562 603 c 0
EndSplineSet
Ligature: 0 1 'liga' space tildecomb
EndChar
StartChar: macron
Encoding: 197 175 128
Width: 598
Flags: W
HStem: 536 40<294 543>
Fore
532 536 m 2
 296 536 l 2
 280 536 273 541 273 552 c 0
 273 567 285 576 305 576 c 2
 541 576 l 2
 557 576 564 572 564 559 c 0
 564 545 552 536 532 536 c 2
EndSplineSet
Ligature: 0 1 'liga' space uni0304
EndChar
StartChar: breve
Encoding: 198 728 129
Width: 598
Flags: W
HStem: 489 41<402 416> 601 20G<299.5 310 551 561.5>
VStem: 280 42<579 584>
Fore
324 610 m 1
 322 581 l 1
 322 576 339 557 345 551 c 0
 360 539 388 530 414 530 c 0
 467 530 519 559 532 598 c 0
 536 613 545 621 557 621 c 0
 566 621 574 612 574 606 c 0
 574 589 552 552 532 534 c 0
 500 506 451 489 404 489 c 0
 333 489 280 528 280 584 c 0
 280 604 292 621 307 621 c 0
 313 621 317 619 324 610 c 1
EndSplineSet
Ligature: 0 1 'liga' space uni0306
EndChar
StartChar: dotaccent
Encoding: 199 729 130
Width: 598
Flags: W
HStem: 590 20G<413 440.5>
Fore
428 610 m 0
 453 610 470 593 470 572 c 0
 470 540 441 511 408 511 c 0
 385 511 368 528 368 551 c 0
 368 581 398 610 428 610 c 0
EndSplineSet
Ligature: 0 1 'liga' space uni0307
EndChar
StartChar: dieresis
Encoding: 200 168 131
Width: 598
Flags: W
HStem: 590 20G<303.5 331 524 552>
VStem: 258 102<551 572> 479 102<551 572>
Fore
319 610 m 0
 343 610 360 593 360 572 c 0
 360 540 330 511 299 511 c 0
 275 511 258 528 258 551 c 0
 258 581 288 610 319 610 c 0
540 610 m 0
 564 610 581 593 581 572 c 0
 581 540 551 511 519 511 c 0
 496 511 479 528 479 551 c 0
 479 581 508 610 540 610 c 0
EndSplineSet
Ligature: 0 1 'liga' space uni0308
EndChar
StartChar: ring
Encoding: 202 730 132
Width: 598
Flags: W
HStem: 481 32<400 411> 627 34<431 443>
VStem: 326 34<550 561> 482 34<576 591>
Fore
441 661 m 0
 484 661 516 631 516 589 c 0
 516 533 461 481 402 481 c 0
 358 481 326 511 326 552 c 0
 326 608 382 661 441 661 c 0
433 627 m 0
 396 627 360 593 360 559 c 0
 360 533 381 513 409 513 c 0
 447 513 482 546 482 583 c 0
 482 609 461 627 433 627 c 0
EndSplineSet
Ligature: 0 1 'liga' space uni030A
EndChar
StartChar: cedilla
Encoding: 203 184 133
Width: 598
Flags: W
HStem: -174 39<255 278> -20 20G<274 312>
VStem: 319 37<-103 -93>
DStem: 274 0 312 0 257 -81 302 -47
Fore
274 0 m 1
 312 0 l 1
 302 -47 l 1
 339 -49 356 -63 356 -93 c 0
 356 -138 316 -174 262 -174 c 0
 225 -174 181 -154 181 -138 c 0
 181 -125 192 -114 205 -114 c 0
 210 -114 214 -115 220 -119 c 0
 240 -131 252 -135 268 -135 c 0
 297 -135 319 -121 319 -101 c 0
 319 -89 305 -81 278 -81 c 2
 257 -81 l 1
 274 0 l 1
EndSplineSet
Ligature: 0 1 'liga' space uni0327
EndChar
StartChar: hungarumlaut
Encoding: 205 733 134
Width: 598
Flags: W
DStem: 397 624 417 593 280 530 300 499 539 624 559 593 421 530 441 499
Fore
417 593 m 2
 300 499 l 2
 292 493 285 490 279 490 c 0
 269 490 263 498 263 506 c 0
 263 515 266 519 280 530 c 2
 397 624 l 2
 405 630 411 633 417 633 c 0
 427 633 434 626 434 617 c 0
 434 608 431 604 417 593 c 2
559 593 m 2
 441 499 l 2
 433 493 426 490 420 490 c 0
 411 490 404 498 404 506 c 0
 404 515 408 521 417 527 c 2
 421 530 l 1
 539 624 l 2
 547 630 553 633 559 633 c 0
 569 633 576 626 576 617 c 0
 576 608 573 604 559 593 c 2
EndSplineSet
Ligature: 0 1 'liga' space uni030B
EndChar
StartChar: ogonek
Encoding: 206 731 135
Width: 598
Flags: W
HStem: -155 32<322 338> -20 20G<357 404>
VStem: 258 41<-109 -98>
Fore
404 0 m 1
 374 -15 l 2
 325 -39 299 -69 299 -100 c 0
 299 -115 311 -123 336 -123 c 0
 354 -123 363 -121 388 -107 c 0
 391 -106 394 -104 397 -104 c 0
 403 -104 408 -109 408 -117 c 0
 408 -133 364 -155 323 -155 c 0
 282 -155 258 -138 258 -109 c 0
 258 -64 290 -29 357 0 c 1
 404 0 l 1
EndSplineSet
Ligature: 0 1 'liga' space uni0328
EndChar
StartChar: caron
Encoding: 207 711 136
Width: 598
Flags: W
DStem: 296 600 326 631 404 490 415 542 542 631 559 598 415 542 404 490
Fore
404 490 m 1
 296 600 l 1
 288 606 286 608 286 614 c 0
 286 627 299 640 311 640 c 0
 316 640 322 636 326 631 c 2
 415 542 l 1
 542 631 l 2
 549 636 556 640 561 640 c 0
 570 640 576 632 576 623 c 0
 576 613 573 608 559 598 c 2
 404 490 l 1
EndSplineSet
EndChar
StartChar: emdash
Encoding: 208 8212 137
Width: 598
Flags: W
HStem: 261 41<81 638>
Fore
627 261 m 2
 83 261 l 2
 67 261 59 266 59 277 c 0
 59 292 72 302 92 302 c 2
 636 302 l 2
 652 302 659 297 659 286 c 0
 659 271 647 261 627 261 c 2
EndSplineSet
EndChar
StartChar: AE
Encoding: 225 198 138
Width: 598
Flags: W
HStem: 0 41<35 152 243 306 347 590> 189 42<216 337> 218 96<405 483> 273 41<405 475> 522 41<254 318 265 408 265 640>
VStem: 15 159<16 25>
DStem: 318 522 358 522 83 41 216 231 318 522 197 189 83 41 124 41 337 189 396 273 306 41 347 41 408 522 449 522 346 231 405 314 578 133 619 133 558 41 590 0 640 522 691 563 617 411 658 411
Fore
337 189 m 1xdc
 197 189 l 1xdc
 124 41 l 1
 150 41 l 2
 167 41 174 36 174 25 c 0
 174 10 161 0 141 0 c 2
 36 0 l 2
 21 0 15 5 15 16 c 0
 15 32 25 41 46 41 c 2
 83 41 l 1
 318 522 l 1
 255 522 l 2
 239 522 232 527 232 538 c 0
 232 553 244 563 265 563 c 2
 691 563 l 1
 658 411 l 2
 654 393 644 383 631 383 c 0
 623 383 615 391 615 399 c 0
 615 400 617 407 617 411 c 1
 640 522 l 1
 449 522 l 1
 405 314 l 1
 483 314 l 1
 489 342 l 2
 493 360 501 369 515 369 c 0
 524 369 532 362 532 354 c 0
 532 351 532 350 529 342 c 1
 508 246 l 1
 505 228 496 218 483 218 c 0xac
 475 218 467 226 467 235 c 0
 467 238 467 242 468 246 c 2
 475 273 l 1
 396 273 l 1
 347 41 l 1
 558 41 l 1
 578 133 l 1
 580 152 589 160 604 160 c 0
 613 160 620 153 620 144 c 1
 619 133 l 1
 590 0 l 1
 245 0 l 2
 229 0 222 5 222 17 c 0
 222 32 234 41 254 41 c 2
 306 41 l 1
 337 189 l 1xdc
346 231 m 1
 408 522 l 1
 358 522 l 1
 216 231 l 1
 346 231 l 1
EndSplineSet
EndChar
StartChar: ordfeminine
Encoding: 227 170 139
Width: 598
Flags: W
HStem: 279 37<308 331> 420 35<372 390> 536 38<408 422>
VStem: 229 37<341 352> 466 38<490 508>
DStem: 448 409 502 490 434 350 466 319 465 490 502 490 456 447 466 319
Fore
421 282 m 1
 426 308 l 1
 381 286 352 279 313 279 c 0
 261 279 229 303 229 343 c 0
 229 404 300 455 385 455 c 0
 407 455 427 451 456 447 c 1
 465 490 l 2
 466 494 466 495 466 500 c 0
 466 522 443 536 410 536 c 0
 392 536 364 530 329 518 c 0
 319 515 318 515 316 515 c 0
 307 515 301 521 301 528 c 0
 301 538 306 545 317 550 c 0
 340 561 394 574 420 574 c 0
 470 574 504 547 504 506 c 0
 504 501 502 496 502 490 c 1
 466 319 l 1
 492 319 l 2
 505 319 511 314 511 305 c 0
 511 291 500 282 484 282 c 2
 421 282 l 1
434 350 m 1
 448 409 l 1
 434 415 402 420 379 420 c 0
 318 420 266 387 266 348 c 0
 266 329 286 316 320 316 c 0
 359 316 394 326 434 350 c 1
EndSplineSet
EndChar
StartChar: Lslash
Encoding: 232 321 140
Width: 598
Flags: W
HStem: 0 41<87 194 235 541> 522 41<198 296 209 444>
DStem: 238 246 282 263 194 41 235 41 248 292 238 246 106 218 118 184 296 522 337 522 248 292 292 309 443 390 456 356 292 309 282 263 542 201 584 201 508 41 541 0
Fore
337 522 m 1
 292 309 l 1
 443 390 l 2
 448 392 458 394 462 394 c 0
 471 394 478 388 478 379 c 0
 478 370 472 363 461 357 c 1
 456 356 l 1
 282 263 l 1
 235 41 l 1
 508 41 l 1
 542 201 l 1
 547 220 556 229 570 229 c 0
 579 229 586 222 586 214 c 0
 586 212 585 206 584 201 c 2
 541 0 l 1
 89 0 l 2
 73 0 66 5 66 16 c 0
 66 32 78 41 98 41 c 2
 194 41 l 1
 238 246 l 1
 118 184 l 1
 110 181 104 178 100 178 c 0
 92 178 85 186 85 195 c 0
 85 205 90 212 106 218 c 1
 248 292 l 1
 296 522 l 1
 200 522 l 2
 184 522 177 527 177 538 c 0
 177 553 189 563 209 563 c 2
 442 563 l 2
 459 563 465 559 465 547 c 0
 465 532 453 522 434 522 c 2
 337 522 l 1
EndSplineSet
EndChar
StartChar: Oslash
Encoding: 233 216 141
Width: 598
Flags: W
HStem: -16 41<289 307> 535 41<414 426> 586 20G<667 674>
VStem: 102 42<197 231> 574 43<341 359>
DStem: 133 78 152 51 46 -8 69 -32 533 476 551 449 167 112 184 84 650 593 674 572 566 510 585 483
Fore
152 51 m 1
 69 -32 l 1
 59 -40 55 -42 49 -42 c 0
 40 -42 34 -36 34 -29 c 0
 34 -23 36 -18 46 -8 c 2
 133 78 l 1
 112 118 102 159 102 208 c 0
 102 396 258 576 424 576 c 0
 483 576 525 556 566 510 c 1
 650 593 l 2
 659 602 664 606 670 606 c 0
 678 606 684 600 684 591 c 0
 684 585 682 580 674 572 c 2
 585 483 l 1
 606 447 617 404 617 354 c 0
 617 164 460 -16 296 -16 c 0
 235 -16 187 7 152 51 c 1
167 112 m 1
 533 476 l 1
 502 515 462 535 416 535 c 0
 278 535 144 377 144 217 c 0
 144 178 150 144 167 112 c 1
551 449 m 1
 184 84 l 1
 215 46 256 25 302 25 c 0
 441 25 574 181 574 343 c 0
 574 383 566 417 551 449 c 1
EndSplineSet
KernsSLIF: 65 -41 0 0
EndChar
StartChar: OE
Encoding: 234 338 142
Width: 598
Flags: W
HStem: 0 41<253 306 347 590> 217 96<405 483> 272 41<405 475> 522 41<376 407 376 640>
VStem: 62 42<191 232>
DStem: 408 522 449 522 306 41 405 313 408 522 396 272 306 41 347 41 578 133 619 133 558 41 590 0 640 522 691 563 617 409 657 409
Fore
396 272 m 1xb8
 347 41 l 1
 558 41 l 1
 578 133 l 1
 581 152 589 160 604 160 c 0
 613 160 620 153 620 144 c 1
 619 133 l 1
 590 0 l 1
 265 0 l 2
 201 0 153 17 120 49 c 0
 84 84 62 142 62 203 c 0
 62 400 204 563 376 563 c 2
 691 563 l 1
 657 409 l 2
 653 391 644 382 631 382 c 0
 623 382 615 390 615 397 c 1
 617 409 l 1
 640 522 l 1
 449 522 l 1
 405 313 l 1
 483 313 l 1
 489 340 l 2
 493 358 501 367 515 367 c 0
 525 367 532 360 532 352 c 2
 532 345 l 1
 530 340 l 1
 508 244 l 1
 505 226 498 217 483 217 c 0xd8
 475 217 467 225 467 232 c 1
 468 244 l 1
 475 272 l 1
 396 272 l 1xb8
408 522 m 1
 376 522 l 2
 286 522 217 485 164 408 c 0
 126 353 104 279 104 210 c 0
 104 152 125 101 161 72 c 0
 187 52 226 41 274 41 c 2
 306 41 l 1
 408 522 l 1
EndSplineSet
EndChar
StartChar: ordmasculine
Encoding: 235 186 143
Width: 598
Flags: W
HStem: 284 38<354 371> 540 36<414 426>
VStem: 243 39<395 413> 505 37<443 462>
Fore
424 576 m 0
 494 576 542 529 542 460 c 0
 542 369 454 284 360 284 c 0
 292 284 243 333 243 400 c 0
 243 492 331 576 424 576 c 0
416 540 m 0
 347 540 282 476 282 408 c 0
 282 358 318 322 369 322 c 0
 439 322 505 385 505 453 c 0
 505 504 468 540 416 540 c 0
EndSplineSet
EndChar
StartChar: ae
Encoding: 241 230 144
Width: 598
Flags: W
HStem: -16 41<149 167 439 453> 199 41<370 619> 216 41<227 261> 390 41<273 290 510 523>
VStem: 36 44<100 112> 589 41<271 307>
Fore
333 61 m 1xdc
 329 64 323 86 323 86 c 1
 323 86 306 66 291 52 c 0
 242 5 200 -16 157 -16 c 0
 83 -16 36 29 36 100 c 0
 36 136 49 166 72 191 c 0
 110 231 181 257 249 257 c 0xbc
 277 257 305 252 333 245 c 1
 345 305 l 2
 346 311 347 319 347 322 c 0
 347 362 317 390 275 390 c 0
 248 390 211 380 184 365 c 0
 177 360 170 358 165 358 c 0
 158 358 150 367 150 374 c 0
 150 387 160 396 184 407 c 0
 226 424 260 431 290 431 c 0
 340 431 377 397 385 347 c 1
 421 399 473 431 521 431 c 0
 552 431 581 417 600 397 c 0
 620 375 630 342 630 296 c 0
 630 263 627 240 619 199 c 1
 360 199 l 1
 359 181 358 165 358 154 c 0
 358 79 397 25 451 25 c 0
 481 25 506 38 563 83 c 1
 567 85 573 87 576 87 c 0
 586 87 593 80 593 70 c 0
 593 61 587 53 566 38 c 0
 517 2 475 -16 441 -16 c 0
 394 -16 356 11 333 61 c 1xdc
303 110 m 1
 323 203 l 1
 297 211 269 216 246 216 c 0
 191 216 123 191 98 159 c 1
 89 144 80 120 80 100 c 0
 80 55 114 25 165 25 c 0
 204 25 243 49 303 110 c 1
370 240 m 1xdc
 586 240 l 1
 589 262 589 274 589 288 c 0
 589 354 562 390 512 390 c 0
 451 390 405 340 370 240 c 1xdc
EndSplineSet
KernsSLIF: 118 20 0 0 119 20 0 0 121 6 0 0
EndChar
StartChar: dotlessi
Encoding: 245 305 145
Width: 598
Flags: W
HStem: 0 41<117 288 329 491> 376 41<239 359>
DStem: 359 376 409 417 288 41 329 41
Fore
409 417 m 1
 329 41 l 1
 489 41 l 2
 506 41 513 36 513 25 c 0
 513 10 500 0 481 0 c 2
 119 0 l 2
 103 0 96 5 96 16 c 0
 96 32 108 41 127 41 c 2
 288 41 l 1
 359 376 l 1
 242 376 l 2
 225 376 218 381 218 393 c 0
 218 408 231 417 250 417 c 2
 409 417 l 1
EndSplineSet
EndChar
StartChar: lslash
Encoding: 248 322 146
Width: 598
Flags: W
HStem: 0 41<117 286 328 490> 563 41<280 397>
DStem: 337 280 382 297 286 41 328 41 347 326 337 280 227 266 240 231 397 563 447 604 347 326 392 343 490 394 502 359 392 343 382 297
Fore
447 604 m 1
 392 343 l 1
 490 394 l 2
 499 398 504 400 508 400 c 0
 517 400 524 393 524 383 c 0
 524 373 518 367 502 359 c 2
 382 297 l 1
 328 41 l 1
 490 41 l 2
 507 41 513 36 513 25 c 0
 513 10 500 0 481 0 c 2
 119 0 l 2
 103 0 96 5 96 16 c 0
 96 32 108 41 127 41 c 2
 286 41 l 1
 337 280 l 1
 240 231 l 1
 231 225 227 225 221 225 c 0
 214 225 206 231 206 240 c 0
 206 251 212 258 227 266 c 2
 347 326 l 1
 397 563 l 1
 282 563 l 2
 265 563 258 567 258 580 c 0
 258 595 269 604 290 604 c 2
 447 604 l 1
EndSplineSet
EndChar
StartChar: oslash
Encoding: 249 248 147
Width: 598
Flags: W
HStem: -16 41<286 307> 390 41<381 400>
VStem: 110 43<159 183> 535 41<243 263>
DStem: 141 59 161 35 61 -8 80 -33 490 352 511 329 176 89 197 66 603 448 623 424 525 382 545 358
Fore
161 35 m 1
 80 -33 l 1
 72 -41 67 -42 61 -42 c 0
 53 -42 47 -36 47 -29 c 0
 47 -22 51 -17 61 -8 c 2
 141 59 l 1
 121 90 110 123 110 161 c 0
 110 302 246 431 392 431 c 0
 447 431 490 415 525 382 c 1
 603 448 l 2
 613 456 617 458 623 458 c 0
 631 458 637 451 637 444 c 0
 637 437 633 432 623 424 c 2
 545 358 l 1
 567 326 576 294 576 254 c 0
 576 113 442 -16 296 -16 c 0
 242 -16 197 1 161 35 c 1
511 329 m 1
 197 66 l 1
 225 39 261 25 305 25 c 0
 425 25 535 131 535 245 c 0
 535 277 527 303 511 329 c 1
176 89 m 1
 490 352 l 1
 461 377 426 390 383 390 c 0
 263 390 153 285 153 171 c 0
 153 140 161 113 176 89 c 1
EndSplineSet
EndChar
StartChar: oe
Encoding: 250 339 148
Width: 598
Flags: W
HStem: -16 41<159 172 439 453> 199 41<371 619> 390 41<510 523>
VStem: 50 41<142 165> 330 29<163 267> 589 41<265 304>
Fore
619 199 m 1
 362 199 l 1
 360 183 359 171 359 163 c 0
 359 81 397 25 451 25 c 0
 481 25 505 38 562 83 c 1
 566 85 572 87 576 87 c 0
 585 87 592 80 592 70 c 0
 592 61 586 53 564 38 c 1
 516 2 475 -16 441 -16 c 0
 381 -16 335 29 322 103 c 1
 275 27 218 -16 161 -16 c 0
 97 -16 50 52 50 144 c 0
 50 286 154 431 258 431 c 0
 311 431 354 386 367 317 c 1
 393 360 407 376 428 394 c 1
 460 417 492 431 521 431 c 0
 552 431 581 417 600 397 c 0
 621 375 630 342 630 295 c 0
 630 262 627 240 619 199 c 1
371 240 m 1
 586 240 l 1
 589 262 589 274 589 286 c 0
 589 354 562 390 512 390 c 0
 451 390 405 340 371 240 c 1
249 390 m 0
 215 392 165 354 133 302 c 0
 107 257 91 201 91 150 c 0
 91 81 126 25 170 25 c 0
 248 25 330 149 330 267 c 0
 330 336 297 387 249 390 c 0
EndSplineSet
EndChar
StartChar: germandbls
Encoding: 251 223 149
Width: 598
Flags: W
HStem: -16 41<359 373> 0 41<68 133 174 189> 334 41<344 368> 563 41<382 400>
VStem: 47 165<16 25> 278 42<70 85> 471 42<474 489> 498 41<191 208>
DStem: 225 476 267 476 133 41 174 41
Fore
133 41 m 1x7e
 225 476 l 2
 240 547 317 604 396 604 c 0
 465 604 513 556 513 487 c 0x7e
 513 434 485 391 431 359 c 1
 504 326 539 275 539 206 c 0
 539 163 523 110 498 72 c 0
 460 15 413 -16 360 -16 c 0
 308 -16 278 18 278 79 c 0
 278 107 288 124 306 124 c 0
 316 124 322 118 322 109 c 2
 322 100 l 1
 320 95 320 89 320 83 c 0
 320 45 339 25 371 25 c 0
 434 25 498 113 498 200 c 0xbd
 498 274 431 334 350 334 c 2
 346 334 l 2
 328 334 322 339 322 350 c 0
 322 364 334 375 350 375 c 2
 356 375 l 2
 376 375 402 383 424 398 c 0
 455 417 471 447 471 481 c 0
 471 528 436 563 386 563 c 0
 329 563 277 525 267 476 c 1
 174 41 l 1
 189 41 l 2x7e
 206 41 212 36 212 25 c 0xbe
 212 10 199 0 180 0 c 2
 70 0 l 2
 53 0 47 5 47 16 c 0
 47 32 59 41 79 41 c 2
 133 41 l 1x7e
EndSplineSet
EndChar
StartChar: Adieresis
Encoding: 256 196 150
Width: 598
Flags: W
HStem: 0 41<34 76 117 197 406 493 535 575> 188 41<227 468> 522 41<235 357 246 411> 661 101<301 323 522 544>
VStem: 13 205<17 25> 262 101<701 721> 385 211<16 25> 483 101<701 721>
DStem: 357 522 397 522 76 41 227 229 357 522 203 188 76 41 117 41 411 522 449 563 462 229 536 41 468 188 449 563 493 41 536 41
Fore
468 188 m 1xfe
 203 188 l 1
 117 41 l 1
 197 41 l 2
 214 41 218 36 218 25 c 0
 218 10 206 0 187 0 c 2
 36 0 l 2
 19 0 13 5 13 17 c 0
 13 32 25 41 45 41 c 2
 76 41 l 1
 357 522 l 1
 237 522 l 2
 221 522 214 527 214 538 c 0
 214 553 226 563 246 563 c 2
 449 563 l 1
 536 41 l 1
 573 41 l 2
 590 41 596 36 596 25 c 0
 596 10 584 0 564 0 c 2
 408 0 l 2
 392 0 385 5 385 16 c 0
 385 32 397 41 417 41 c 2
 493 41 l 1
 468 188 l 1xfe
462 229 m 1
 411 522 l 1
 397 522 l 1
 227 229 l 1
 462 229 l 1
323 762 m 0
 346 762 363 745 363 721 c 0
 363 691 333 661 301 661 c 0
 280 661 262 680 262 701 c 0
 262 731 292 762 323 762 c 0
544 762 m 0
 567 762 584 745 584 721 c 0
 584 691 553 661 522 661 c 0
 501 661 483 680 483 701 c 0xfd
 483 731 515 762 544 762 c 0
EndSplineSet
KernsSLIF: 67 -52 0 0 71 -46 0 0 79 -45 0 0 81 -46 0 0 84 -43 0 0 85 -52 0 0 86 -100 0 0 87 -24 0 0 89 -45 0 0 97 1 0 0 98 51 0 0 99 -32 0 0 44 -60 0 0 100 -21 0 0 103 -34 0 0 171 -73 0 0 172 -73 0 0 45 -45 0 0 111 -28 0 0 46 -90 0 0 113 -34 0 0 186 -107 0 0 39 -131 0 0 116 -42 0 0 117 -29 0 0 118 -76 0 0 119 -34 0 0 121 -81 0 0
Ligature: 0 0 'liga' A uni0308
EndChar
StartChar: Aacute
Encoding: 257 193 151
Width: 598
Flags: W
HStem: 0 41<34 76 117 197 406 493 535 575> 188 41<227 468> 522 41<235 357 246 411>
VStem: 13 205<17 25> 385 211<16 25>
DStem: 357 522 397 522 76 41 227 229 357 522 203 188 76 41 117 41 411 522 449 563 462 229 536 41 468 188 449 563 493 41 536 41 510 780 530 749 375 680 396 649
Fore
468 188 m 1
 203 188 l 1
 117 41 l 1
 197 41 l 2
 214 41 218 36 218 25 c 0
 218 10 206 0 187 0 c 2
 36 0 l 2
 19 0 13 5 13 17 c 0
 13 32 25 41 45 41 c 2
 76 41 l 1
 357 522 l 1
 237 522 l 2
 221 522 214 527 214 538 c 0
 214 553 226 563 246 563 c 2
 449 563 l 1
 536 41 l 1
 573 41 l 2
 590 41 596 36 596 25 c 0
 596 10 584 0 564 0 c 2
 408 0 l 2
 392 0 385 5 385 16 c 0
 385 32 397 41 417 41 c 2
 493 41 l 1
 468 188 l 1
462 229 m 1
 411 522 l 1
 397 522 l 1
 227 229 l 1
 462 229 l 1
530 749 m 2
 396 649 l 2
 390 644 380 640 376 640 c 0
 365 640 358 647 358 657 c 0
 358 664 363 671 375 680 c 2
 510 780 l 2
 519 786 524 789 532 789 c 0
 540 789 547 782 547 772 c 0
 547 765 542 758 530 749 c 2
EndSplineSet
KernsSLIF: 67 -52 0 0 71 -46 0 0 79 -45 0 0 81 -46 0 0 84 -43 0 0 85 -52 0 0 86 -100 0 0 87 -24 0 0 89 -45 0 0 97 1 0 0 98 51 0 0 99 -32 0 0 44 -60 0 0 100 -21 0 0 101 -27 0 0 103 -34 0 0 171 -73 0 0 172 -73 0 0 45 -45 0 0 111 -28 0 0 46 -90 0 0 113 -34 0 0 39 -131 0 0 116 -42 0 0 117 -29 0 0 118 -76 0 0 119 -34 0 0 121 -81 0 0
Ligature: 0 0 'liga' A acutecomb
EndChar
StartChar: Agrave
Encoding: 258 192 152
Width: 598
Flags: W
HStem: 0 41<34 76 117 197 406 493 535 575> 188 41<227 468> 522 41<235 356 246 411>
VStem: 13 205<17 25> 385 211<16 25>
DStem: 339 749 371 780 431 649 464 680 357 522 397 522 76 41 227 229 357 522 203 188 76 41 117 41 411 522 449 563 462 229 536 41 468 188 449 563 493 41 536 41
Fore
468 188 m 1
 203 188 l 1
 117 41 l 1
 197 41 l 2
 214 41 218 36 218 25 c 0
 218 10 206 0 187 0 c 2
 36 0 l 2
 19 0 13 5 13 17 c 0
 13 32 25 41 45 41 c 2
 76 41 l 1
 357 522 l 1
 237 522 l 2
 221 522 214 527 214 538 c 0
 214 553 226 563 246 563 c 2
 449 563 l 1
 536 41 l 1
 573 41 l 2
 590 41 596 36 596 25 c 0
 596 10 584 0 564 0 c 2
 408 0 l 2
 392 0 385 5 385 16 c 0
 385 32 397 41 417 41 c 2
 493 41 l 1
 468 188 l 1
462 229 m 1
 411 522 l 1
 397 522 l 1
 227 229 l 1
 462 229 l 1
371 780 m 2
 464 680 l 1
 468 674 473 667 472 666 c 0
 468 657 467 650 466 650 c 1
 462 644 453 640 447 640 c 0
 441 640 434 643 431 649 c 1
 339 749 l 1
 333 754 328 761 329 763 c 0
 334 782 341 789 354 789 c 0
 360 789 365 786 371 780 c 2
EndSplineSet
KernsSLIF: 67 -52 0 0 71 -46 0 0 79 -45 0 0 81 -46 0 0 84 -43 0 0 85 -52 0 0 86 -100 0 0 87 -24 0 0 89 -45 0 0 44 -60 0 0 46 -90 0 0
Ligature: 0 0 'liga' A gravecomb
EndChar
StartChar: Acircumflex
Encoding: 259 194 153
Width: 598
Flags: W
HStem: 0 41<34 76 117 197 406 493 535 575> 188 41<227 468> 522 41<235 357 246 411>
VStem: 13 205<17 25> 385 211<16 25>
DStem: 357 522 397 522 76 41 227 229 357 522 203 188 76 41 117 41 411 522 449 563 462 229 536 41 428 739 439 789 518 648 549 680 439 789 428 739 286 680 303 648 468 188 449 563 493 41 536 41
Fore
468 188 m 1
 203 188 l 1
 117 41 l 1
 197 41 l 2
 214 41 218 36 218 25 c 0
 218 10 206 0 187 0 c 2
 36 0 l 2
 19 0 13 5 13 17 c 0
 13 32 25 41 45 41 c 2
 76 41 l 1
 357 522 l 1
 237 522 l 2
 221 522 214 527 214 538 c 0
 214 553 226 563 246 563 c 2
 449 563 l 1
 536 41 l 1
 573 41 l 2
 590 41 596 36 596 25 c 0
 596 10 584 0 564 0 c 2
 408 0 l 2
 392 0 385 5 385 16 c 0
 385 32 397 41 417 41 c 2
 493 41 l 1
 468 188 l 1
462 229 m 1
 411 522 l 1
 397 522 l 1
 227 229 l 1
 462 229 l 1
439 789 m 1
 549 680 l 2
 558 672 559 670 559 664 c 0
 559 652 546 640 532 640 c 0
 528 640 524 642 518 648 c 2
 428 739 l 1
 303 648 l 1
 300 644 288 640 285 640 c 0
 275 640 268 647 268 657 c 0
 268 664 274 674 283 678 c 2
 286 680 l 1
 439 789 l 1
EndSplineSet
KernsSLIF: 67 -52 0 0 71 -46 0 0 79 -45 0 0 81 -46 0 0 84 -43 0 0 85 -52 0 0 86 -100 0 0 87 -24 0 0 89 -45 0 0 44 -60 0 0 46 -90 0 0
Ligature: 0 0 'liga' A uni0302
EndChar
StartChar: Abreve
Encoding: 260 258 154
Width: 598
Flags: W
HStem: 0 41<34 76 117 197 406 493 535 575> 188 41<227 468> 522 41<235 357 246 411> 647 41<395 419>
VStem: 13 205<17 25> 271 45<733 744> 385 211<16 25>
DStem: 357 522 397 522 76 41 227 229 357 522 203 188 76 41 117 41 411 522 449 563 462 229 536 41 468 188 449 563 493 41 536 41
Fore
468 188 m 1
 203 188 l 1
 117 41 l 1
 197 41 l 2
 214 41 218 36 218 25 c 0
 218 10 206 0 187 0 c 2
 36 0 l 2
 19 0 13 5 13 17 c 0
 13 32 25 41 45 41 c 2
 76 41 l 1
 357 522 l 1
 237 522 l 2
 221 522 214 527 214 538 c 0
 214 553 226 563 246 563 c 2
 449 563 l 1
 536 41 l 1
 573 41 l 2
 590 41 596 36 596 25 c 0
 596 10 584 0 564 0 c 2
 408 0 l 2
 392 0 385 5 385 16 c 0
 385 32 397 41 417 41 c 2
 493 41 l 1
 468 188 l 1
462 229 m 1
 411 522 l 1
 397 522 l 1
 227 229 l 1
 462 229 l 1
299 777 m 0
 303 777 306 775 309 771 c 0
 313 767 313 767 316 735 c 1
 316 712 360 688 407 688 c 0
 466 688 516 715 533 755 c 0
 541 773 545 777 558 777 c 0
 569 777 576 771 576 761 c 0
 576 742 558 714 532 692 c 0
 496 661 451 647 399 647 c 0
 317 647 271 682 271 744 c 0
 271 765 282 777 299 777 c 0
EndSplineSet
Ligature: 0 0 'liga' A uni0306
EndChar
StartChar: Atilde
Encoding: 261 195 155
Width: 598
Flags: W
HStem: 0 41<34 76 117 197 406 493 535 575> 188 41<227 468> 522 41<235 357 246 411> 666 42<476 487> 714 41<363 375>
VStem: 13 205<17 25> 385 211<16 25>
DStem: 357 522 397 522 76 41 227 229 357 522 203 188 76 41 117 41 411 522 449 563 462 229 536 41 468 188 449 563 493 41 536 41
Fore
468 188 m 1
 203 188 l 1
 117 41 l 1
 197 41 l 2
 214 41 218 36 218 25 c 0
 218 10 206 0 187 0 c 2
 36 0 l 2
 19 0 13 5 13 17 c 0
 13 32 25 41 45 41 c 2
 76 41 l 1
 357 522 l 1
 237 522 l 2
 221 522 214 527 214 538 c 0
 214 553 226 563 246 563 c 2
 449 563 l 1
 536 41 l 1
 573 41 l 2
 590 41 596 36 596 25 c 0
 596 10 584 0 564 0 c 2
 408 0 l 2
 392 0 385 5 385 16 c 0
 385 32 397 41 417 41 c 2
 493 41 l 1
 468 188 l 1
462 229 m 1
 411 522 l 1
 397 522 l 1
 227 229 l 1
 462 229 l 1
568 752 m 0
 576 752 585 746 585 738 c 0
 585 728 581 723 563 708 c 0
 529 678 504 666 479 666 c 0
 458 666 441 674 405 697 c 0
 388 709 377 714 365 714 c 0
 345 714 334 708 299 677 c 0
 294 672 286 669 280 669 c 0
 271 669 265 676 265 684 c 0
 265 693 271 703 290 718 c 0
 324 745 347 755 373 755 c 0
 393 755 404 751 432 732 c 0
 464 712 473 708 485 708 c 0
 502 708 515 714 551 745 c 0
 558 751 563 752 568 752 c 0
EndSplineSet
KernsSLIF: 67 -52 0 0 71 -46 0 0 79 -45 0 0 81 -46 0 0 84 -43 0 0 85 -52 0 0 86 -100 0 0 87 -24 0 0 89 -45 0 0 44 -60 0 0 46 -90 0 0
Ligature: 0 0 'liga' A tildecomb
EndChar
StartChar: Aring
Encoding: 262 197 156
Width: 598
Flags: W
HStem: 0 41<34 76 117 197 406 492 535 575> 188 41<227 468> 522 41<235 357 246 411> 630 33<406 419> 778 33<440 451>
VStem: 13 205<17 25> 335 34<701 711> 385 211<16 25> 492 33<730 741>
DStem: 357 522 397 522 76 41 227 229 357 522 203 188 76 41 117 41 411 522 449 563 462 229 536 41 468 188 449 563 493 41 536 41
Fore
468 188 m 1xff
 203 188 l 1
 117 41 l 1
 197 41 l 2
 214 41 218 36 218 25 c 0
 218 10 206 0 187 0 c 2
 36 0 l 2
 19 0 13 5 13 17 c 0
 13 32 25 41 45 41 c 2
 76 41 l 1
 357 522 l 1
 237 522 l 2
 221 522 214 527 214 538 c 0
 214 553 226 563 246 563 c 2
 449 563 l 1
 536 41 l 1
 573 41 l 2
 590 41 596 36 596 25 c 0
 596 10 584 0 564 0 c 2
 408 0 l 2
 392 0 385 5 385 16 c 0
 385 32 397 41 417 41 c 2
 493 41 l 1
 468 188 l 1xff
462 229 m 1
 411 522 l 1
 397 522 l 1
 227 229 l 1
 462 229 l 1
449 811 m 0
 493 811 525 782 525 739 c 0xfe80
 525 683 470 630 410 630 c 0
 367 630 335 661 335 703 c 0
 335 758 391 811 449 811 c 0
442 778 m 0
 404 778 369 744 369 709 c 0
 369 683 390 663 417 663 c 0
 456 663 492 697 492 732 c 0
 492 758 470 778 442 778 c 0
EndSplineSet
KernsSLIF: 67 -52 0 0 71 -46 0 0 79 -45 0 0 81 -46 0 0 84 -43 0 0 85 -52 0 0 86 -100 0 0 87 -24 0 0 89 -45 0 0 97 1 0 0 98 51 0 0 99 -32 0 0 44 -60 0 0 100 -21 0 0 101 -27 0 0 103 -34 0 0 171 -73 0 0 172 -73 0 0 45 -45 0 0 111 -28 0 0 46 -90 0 0 113 -34 0 0 186 -107 0 0 39 -131 0 0 116 -42 0 0 117 -29 0 0 118 -76 0 0 119 -34 0 0 121 -81 0 0
Ligature: 0 0 'liga' A uni030A
EndChar
StartChar: Aogonek
Encoding: 263 260 157
Width: 598
Flags: W
HStem: -155 30<466 479> 0 41<34 76 117 197 406 493> 188 41<227 468> 522 41<235 357 246 411>
VStem: 13 205<17 25> 385 211<16 25> 403 42<-109 -98>
DStem: 357 522 397 522 76 41 227 229 357 522 203 188 76 41 117 41 411 522 449 563 462 229 536 41 468 188 449 563 493 41 536 41
Fore
449 563 m 1xfc
 536 41 l 1
 573 41 l 2
 590 41 596 36 596 25 c 0xfc
 596 11 587 2 569 0 c 0
 553 -2 523 -16 495 -32 c 0
 464 -51 445 -76 445 -100 c 0
 445 -117 456 -125 477 -125 c 0
 502 -125 508 -123 532 -107 c 0
 535 -106 539 -104 542 -104 c 0
 547 -104 553 -110 553 -117 c 0
 553 -135 510 -155 470 -155 c 0
 427 -155 403 -138 403 -108 c 0xfa
 403 -84 417 -58 441 -39 c 0
 455 -27 465 -22 508 0 c 1
 408 0 l 2
 392 0 385 5 385 16 c 0
 385 32 397 41 417 41 c 2
 493 41 l 1
 468 188 l 1
 203 188 l 1
 117 41 l 1
 197 41 l 2
 214 41 218 36 218 25 c 0
 218 10 206 0 187 0 c 2
 36 0 l 2
 19 0 13 5 13 17 c 0
 13 32 25 41 45 41 c 2
 76 41 l 1
 357 522 l 1
 237 522 l 2
 221 522 214 527 214 538 c 0
 214 553 226 563 246 563 c 2
 449 563 l 1xfc
462 229 m 1
 411 522 l 1
 397 522 l 1
 227 229 l 1
 462 229 l 1
EndSplineSet
Ligature: 0 0 'liga' A uni0328
EndChar
StartChar: Ccedilla
Encoding: 264 199 158
Width: 598
Flags: W
HStem: -174 39<260 283> -16 41<313 335> 536 40<413 430>
VStem: 110 42<193 211> 324 36<-103 -93>
DStem: 132 325 172 319 115 242 157 248
Fore
314 -16 m 1
 307 -47 l 1
 343 -49 360 -63 360 -93 c 0
 360 -138 320 -174 267 -174 c 0
 231 -174 186 -154 186 -138 c 0
 186 -125 198 -114 210 -114 c 0
 215 -114 217 -115 225 -119 c 0
 244 -131 258 -135 273 -135 c 0
 302 -135 324 -121 324 -101 c 0
 324 -89 311 -81 283 -81 c 2
 262 -81 l 1
 277 -12 l 1
 235 -1 214 8 189 28 c 0
 140 67 110 130 110 197 c 0
 110 212 112 227 115 242 c 2
 132 325 l 1
 144 386 188 455 242 502 c 0
 296 550 360 576 428 576 c 0
 494 576 549 552 586 507 c 1
 592 536 l 1
 596 553 606 563 618 563 c 0
 627 563 635 557 635 549 c 0
 635 546 633 541 633 536 c 1
 609 424 l 1
 606 407 596 396 583 396 c 0
 576 396 572 400 566 408 c 1
 570 447 l 1
 570 449 546 485 538 494 c 0
 515 518 464 536 419 536 c 0
 309 536 197 438 172 319 c 2
 157 248 l 2
 154 233 152 217 152 203 c 0
 152 101 227 25 328 25 c 0
 397 25 454 51 522 115 c 0
 530 123 534 125 542 125 c 0
 551 125 558 119 558 110 c 0
 558 100 551 91 524 68 c 0
 465 17 388 -16 326 -16 c 2
 314 -16 l 1
EndSplineSet
KernsSLIF: 65 -10 0 0
Ligature: 0 0 'liga' C uni0327
EndChar
StartChar: Cacute
Encoding: 265 262 159
Width: 598
Flags: W
HStem: -16 41<317 335> 536 40<413 430>
VStem: 110 42<191 209>
DStem: 132 325 172 319 115 242 157 248 535 780 555 749 400 680 421 649
Fore
586 507 m 1
 592 536 l 1
 596 553 606 563 618 563 c 0
 627 563 635 557 635 549 c 0
 635 546 633 541 633 536 c 1
 609 424 l 1
 606 407 596 396 583 396 c 0
 576 396 572 399 566 408 c 1
 570 447 l 1
 570 449 546 485 538 494 c 0
 515 518 464 536 419 536 c 0
 309 536 197 438 172 319 c 2
 157 248 l 2
 154 233 152 217 152 203 c 0
 152 101 227 25 328 25 c 0
 397 25 454 51 522 115 c 0
 530 123 534 125 542 125 c 0
 552 125 558 119 558 110 c 0
 558 100 551 91 524 67 c 1
 461 15 390 -16 319 -16 c 0
 201 -16 110 76 110 197 c 0
 110 212 112 227 115 242 c 2
 132 325 l 1
 144 386 188 455 242 502 c 0
 296 550 360 576 428 576 c 0
 494 576 549 552 586 507 c 1
555 749 m 2
 421 649 l 2
 415 644 405 640 400 640 c 0
 390 640 383 647 383 657 c 0
 383 664 388 671 400 680 c 2
 535 780 l 2
 544 786 549 789 556 789 c 0
 566 789 572 782 572 772 c 0
 572 765 567 758 555 749 c 2
EndSplineSet
Ligature: 0 0 'liga' C acutecomb
EndChar
StartChar: Ccaron
Encoding: 266 268 160
Width: 598
Flags: W
HStem: -16 41<317 341> 536 40<413 430>
VStem: 110 42<191 209>
DStem: 132 325 172 319 115 242 157 248 348 749 379 782 458 640 468 691 593 782 610 749 468 691 458 640
Fore
586 507 m 1
 592 536 l 1
 596 553 606 563 618 563 c 0
 627 563 635 557 635 549 c 0
 635 546 633 541 633 536 c 1
 609 424 l 1
 606 407 596 396 583 396 c 0
 576 396 572 399 566 408 c 1
 570 447 l 1
 570 449 546 485 538 494 c 0
 515 518 464 536 419 536 c 0
 309 536 197 438 172 319 c 2
 157 248 l 2
 154 233 152 217 152 203 c 0
 152 101 227 25 328 25 c 0
 397 25 454 51 522 115 c 0
 530 123 534 125 542 125 c 0
 552 125 558 119 558 110 c 0
 558 100 551 91 524 67 c 1
 461 15 390 -16 319 -16 c 0
 201 -16 110 76 110 197 c 0
 110 212 112 227 115 242 c 2
 132 325 l 1
 144 386 188 455 242 502 c 0
 296 550 360 576 428 576 c 0
 494 576 549 552 586 507 c 1
458 640 m 1
 348 749 l 1
 340 752 339 757 339 766 c 0
 339 775 351 789 360 789 c 2
 363 789 l 1
 368 789 l 2
 371 789 373 788 379 782 c 2
 468 691 l 1
 593 782 l 1
 596 783 610 789 612 789 c 0
 621 789 627 783 627 774 c 0
 627 763 623 755 614 751 c 2
 610 749 l 1
 458 640 l 1
EndSplineSet
Ligature: 0 0 'liga' C uni030C
EndChar
StartChar: Dcaron
Encoding: 267 270 161
Width: 598
Flags: W
HStem: 0 41<68 114 154 310> 522 41<180 215 191 416>
VStem: 551 41<351 370>
DStem: 215 522 256 522 113 41 154 41 288 749 319 782 398 640 408 691 533 782 550 749 408 691 398 640 547 318 586 309 532 245 574 254
Fore
113 41 m 1
 215 522 l 1
 181 522 l 2
 165 522 158 527 158 538 c 0
 158 553 170 563 191 563 c 2
 410 563 l 2
 519 563 592 484 592 368 c 0
 592 348 590 329 586 309 c 1
 574 254 l 1
 544 112 419 0 290 0 c 2
 70 0 l 2
 53 0 47 5 47 16 c 0
 47 32 59 41 79 41 c 2
 113 41 l 1
154 41 m 1
 303 41 l 2
 399 41 508 140 532 245 c 1
 547 318 l 1
 549 333 551 346 551 357 c 0
 551 399 538 441 515 472 c 0
 488 507 453 522 399 522 c 2
 256 522 l 1
 154 41 l 1
398 640 m 1
 288 749 l 1
 280 752 278 757 278 766 c 0
 278 775 291 789 300 789 c 2
 303 789 l 1
 308 789 l 2
 311 789 312 788 319 782 c 1
 408 691 l 1
 533 782 l 1
 536 783 550 789 552 789 c 0
 561 789 568 783 568 774 c 0
 568 763 563 755 553 751 c 2
 550 749 l 1
 398 640 l 1
EndSplineSet
Ligature: 0 0 'liga' D uni030C
EndChar
StartChar: Edieresis
Encoding: 268 203 162
Width: 598
Flags: W
HStem: 0 41<68 133 174 519> 200 113<232 377> 272 41<232 368> 522 41<180 235 191 569> 661 101<320 342 541 563>
VStem: 282 100<701 721> 502 101<701 721>
DStem: 235 522 275 522 133 41 232 313 235 522 223 272 133 41 174 41 368 272 427 358 358 227 399 227 386 358 427 358 377 313 399 227 513 160 553 160 488 41 519 0 569 522 619 563 549 424 589 424
Fore
223 272 m 1xbe
 174 41 l 1
 488 41 l 1
 513 160 l 2
 517 178 525 187 540 187 c 0
 549 187 556 180 556 172 c 0
 556 169 555 165 553 160 c 1
 519 0 l 1
 70 0 l 2
 53 0 47 5 47 17 c 0
 47 32 59 41 79 41 c 2
 133 41 l 1
 235 522 l 1
 181 522 l 2
 165 522 158 527 158 539 c 0
 158 553 170 563 191 563 c 2
 619 563 l 1
 589 424 l 1
 586 407 576 397 563 397 c 0
 553 397 547 404 547 411 c 1
 549 424 l 1
 569 522 l 1
 275 522 l 1
 232 313 l 1
 377 313 l 1
 386 358 l 1
 390 376 399 385 411 385 c 0
 422 385 428 377 428 370 c 0
 428 368 428 362 427 358 c 2
 399 227 l 1
 396 209 387 200 373 200 c 0xde
 364 200 357 208 357 215 c 1
 358 227 l 1
 368 272 l 1
 223 272 l 1xbe
342 762 m 0
 365 762 382 745 382 721 c 0
 382 691 351 661 320 661 c 0
 299 661 282 680 282 701 c 0
 282 731 312 762 342 762 c 0
563 762 m 0
 586 762 603 745 603 721 c 0
 603 691 573 661 541 661 c 0
 519 661 502 680 502 701 c 0
 502 731 533 762 563 762 c 0
EndSplineSet
Ligature: 0 0 'liga' E uni0308
EndChar
StartChar: Eacute
Encoding: 269 201 163
Width: 598
Flags: W
HStem: 0 41<68 133 174 519> 200 113<232 377> 272 41<232 368> 522 41<180 235 191 569>
DStem: 235 522 275 522 133 41 232 313 235 522 223 272 133 41 174 41 368 272 427 358 358 227 399 227 386 358 427 358 377 313 399 227 513 160 553 160 488 41 519 0 528 780 549 749 393 680 414 649 569 522 619 563 549 424 589 424
Fore
223 272 m 1xb0
 174 41 l 1
 488 41 l 1
 513 160 l 2
 517 178 525 187 540 187 c 0
 549 187 556 180 556 172 c 0
 556 169 555 165 553 160 c 1
 519 0 l 1
 70 0 l 2
 53 0 47 5 47 17 c 0
 47 32 59 41 79 41 c 2
 133 41 l 1
 235 522 l 1
 181 522 l 2
 165 522 158 527 158 539 c 0
 158 553 170 563 191 563 c 2
 619 563 l 1
 589 424 l 1
 586 407 576 397 563 397 c 0
 553 397 547 404 547 411 c 1
 549 424 l 1
 569 522 l 1
 275 522 l 1
 232 313 l 1
 377 313 l 1
 386 358 l 1
 390 376 399 385 411 385 c 0
 422 385 428 377 428 370 c 0
 428 368 428 362 427 358 c 2
 399 227 l 1
 396 209 387 200 373 200 c 0xd0
 364 200 357 208 357 215 c 1
 358 227 l 1
 368 272 l 1
 223 272 l 1xb0
549 749 m 1
 414 649 l 2
 408 644 398 640 394 640 c 0
 383 640 376 647 376 657 c 0
 376 664 381 671 393 680 c 2
 528 780 l 2
 536 786 542 789 549 789 c 0
 558 789 566 782 566 772 c 0
 566 765 559 758 549 749 c 1
EndSplineSet
Ligature: 0 0 'liga' E acutecomb
EndChar
StartChar: Egrave
Encoding: 270 200 164
Width: 598
Flags: W
HStem: 0 41<68 133 174 519> 200 113<232 377> 272 41<232 368> 522 41<180 235 191 569>
DStem: 235 522 275 522 133 41 232 313 235 522 223 272 133 41 174 41 350 749 383 780 443 649 475 680 368 272 427 358 358 227 399 227 386 358 427 358 377 313 399 227 513 160 553 160 488 41 519 0 569 522 619 563 549 424 589 424
Fore
223 272 m 1xb0
 174 41 l 1
 488 41 l 1
 513 160 l 2
 517 178 525 187 540 187 c 0
 549 187 556 180 556 172 c 0
 556 169 555 165 553 160 c 1
 519 0 l 1
 70 0 l 2
 53 0 47 5 47 17 c 0
 47 32 59 41 79 41 c 2
 133 41 l 1
 235 522 l 1
 181 522 l 2
 165 522 158 527 158 539 c 0
 158 553 170 563 191 563 c 2
 619 563 l 1
 589 424 l 1
 586 407 576 397 563 397 c 0
 553 397 547 404 547 411 c 1
 549 424 l 1
 569 522 l 1
 275 522 l 1
 232 313 l 1
 377 313 l 1
 386 358 l 1
 390 376 399 385 411 385 c 0
 422 385 428 377 428 370 c 0
 428 368 428 362 427 358 c 2
 399 227 l 1
 396 209 387 200 373 200 c 0xd0
 364 200 357 208 357 215 c 1
 358 227 l 1
 368 272 l 1
 223 272 l 1xb0
383 780 m 2
 475 680 l 2
 481 674 485 667 484 666 c 0
 481 657 479 650 478 650 c 1
 475 644 465 640 459 640 c 0
 451 640 447 643 443 649 c 1
 350 749 l 2
 345 754 340 761 341 763 c 0
 346 782 353 789 367 789 c 0
 373 789 377 786 383 780 c 2
EndSplineSet
Ligature: 0 0 'liga' E gravecomb
EndChar
StartChar: Ecircumflex
Encoding: 271 202 165
Width: 598
Flags: W
HStem: 0 41<68 133 174 519> 200 113<232 377> 272 41<232 368> 522 41<180 235 191 569>
DStem: 235 522 275 522 133 41 232 313 235 522 223 272 133 41 174 41 368 272 427 358 358 227 399 227 386 358 427 358 377 313 399 227 447 739 458 789 536 648 567 680 458 789 447 739 305 680 322 648 513 160 553 160 488 41 519 0 569 522 619 563 549 424 589 424
Fore
223 272 m 1xb0
 174 41 l 1
 488 41 l 1
 513 160 l 2
 517 178 525 187 540 187 c 0
 549 187 556 180 556 172 c 0
 556 169 555 165 553 160 c 1
 519 0 l 1
 70 0 l 2
 53 0 47 5 47 17 c 0
 47 32 59 41 79 41 c 2
 133 41 l 1
 235 522 l 1
 181 522 l 2
 165 522 158 527 158 539 c 0
 158 553 170 563 191 563 c 2
 619 563 l 1
 589 424 l 1
 586 407 576 397 563 397 c 0
 553 397 547 404 547 411 c 1
 549 424 l 1
 569 522 l 1
 275 522 l 1
 232 313 l 1
 377 313 l 1
 386 358 l 1
 390 376 399 385 411 385 c 0
 422 385 428 377 428 370 c 0
 428 368 428 362 427 358 c 2
 399 227 l 1
 396 209 387 200 373 200 c 0xd0
 364 200 357 208 357 215 c 1
 358 227 l 1
 368 272 l 1
 223 272 l 1xb0
458 789 m 1
 567 680 l 2
 576 672 576 670 576 664 c 0
 576 652 564 640 550 640 c 0
 546 640 542 642 536 648 c 2
 447 739 l 1
 322 648 l 1
 318 644 306 640 303 640 c 0
 294 640 286 647 286 657 c 0
 286 664 292 674 301 678 c 2
 305 680 l 1
 458 789 l 1
EndSplineSet
Ligature: 0 0 'liga' E uni0302
EndChar
StartChar: Ecaron
Encoding: 272 282 166
Width: 598
Flags: W
HStem: 0 41<68 133 174 519> 200 113<232 377> 272 41<232 368> 522 41<180 235 191 569>
DStem: 235 522 275 522 133 41 232 313 235 522 223 272 133 41 174 41 299 749 329 782 408 640 417 691 368 272 427 358 358 227 399 227 386 358 427 358 377 313 399 227 513 160 553 160 488 41 519 0 542 782 559 749 417 691 408 640 569 522 619 563 549 424 589 424
Fore
223 272 m 1xb0
 174 41 l 1
 488 41 l 1
 513 160 l 2
 517 178 525 187 540 187 c 0
 549 187 556 180 556 172 c 0
 556 169 555 165 553 160 c 1
 519 0 l 1
 70 0 l 2
 53 0 47 5 47 17 c 0
 47 32 59 41 79 41 c 2
 133 41 l 1
 235 522 l 1
 181 522 l 2
 165 522 158 527 158 539 c 0
 158 553 170 563 191 563 c 2
 619 563 l 1
 589 424 l 1
 586 407 576 397 563 397 c 0
 553 397 547 404 547 411 c 1
 549 424 l 1
 569 522 l 1
 275 522 l 1
 232 313 l 1
 377 313 l 1
 386 358 l 1
 390 376 399 385 411 385 c 0
 422 385 428 377 428 370 c 0
 428 368 428 362 427 358 c 2
 399 227 l 1
 396 209 387 200 373 200 c 0xd0
 364 200 357 208 357 215 c 1
 358 227 l 1
 368 272 l 1
 223 272 l 1xb0
408 640 m 1
 299 749 l 1
 290 752 288 757 288 766 c 0
 288 775 301 789 309 789 c 2
 313 789 l 1
 318 789 l 2
 322 789 322 788 329 782 c 1
 417 691 l 1
 542 782 l 1
 546 783 559 789 562 789 c 0
 572 789 578 783 578 774 c 0
 578 763 573 755 564 751 c 2
 559 749 l 1
 408 640 l 1
EndSplineSet
Ligature: 0 0 'liga' E uni030C
EndChar
StartChar: Edotaccent
Encoding: 273 278 167
Width: 598
Flags: W
HStem: 0 41<68 133 174 519> 200 113<232 377> 272 41<232 368> 522 41<180 235 191 569> 661 101<422 444>
VStem: 383 101<701 721>
DStem: 235 522 275 522 133 41 232 313 235 522 223 272 133 41 174 41 368 272 427 358 358 227 399 227 386 358 427 358 377 313 399 227 513 160 553 160 488 41 519 0 569 522 619 563 549 424 589 424
Fore
223 272 m 1xbc
 174 41 l 1
 488 41 l 1
 513 160 l 2
 517 178 525 187 540 187 c 0
 549 187 556 180 556 172 c 0
 556 169 555 165 553 160 c 1
 519 0 l 1
 70 0 l 2
 53 0 47 5 47 17 c 0
 47 32 59 41 79 41 c 2
 133 41 l 1
 235 522 l 1
 181 522 l 2
 165 522 158 527 158 539 c 0
 158 553 170 563 191 563 c 2
 619 563 l 1
 589 424 l 1
 586 407 576 397 563 397 c 0
 553 397 547 404 547 411 c 1
 549 424 l 1
 569 522 l 1
 275 522 l 1
 232 313 l 1
 377 313 l 1
 386 358 l 1
 390 376 399 385 411 385 c 0
 422 385 428 377 428 370 c 0
 428 368 428 362 427 358 c 2
 399 227 l 1
 396 209 387 200 373 200 c 0xdc
 364 200 357 208 357 215 c 1
 358 227 l 1
 368 272 l 1
 223 272 l 1xbc
444 762 m 0
 467 762 484 745 484 721 c 0
 484 691 453 661 422 661 c 0
 400 661 383 680 383 701 c 0
 383 731 414 762 444 762 c 0
EndSplineSet
Ligature: 0 0 'liga' E uni0307
EndChar
StartChar: Eogonek
Encoding: 274 280 168
Width: 598
Flags: W
HStem: -155 30<414 431> 0 41<68 133 174 458> 200 113<232 377> 272 41<232 368> 522 41<180 235 191 569>
VStem: 351 42<-109 -98>
DStem: 235 522 275 522 133 41 232 313 235 522 223 272 133 41 174 41 368 272 427 358 358 227 399 227 386 358 427 358 377 313 399 227 513 160 553 160 488 41 519 0 569 522 619 563 549 424 589 424
Fore
174 41 m 1xdc
 488 41 l 1
 513 160 l 2
 517 178 525 187 540 187 c 0
 549 187 556 180 556 172 c 0
 556 169 555 165 553 160 c 1
 519 0 l 1
 441 -23 393 -59 393 -100 c 0
 393 -117 404 -125 425 -125 c 0
 451 -125 458 -123 481 -107 c 0
 483 -106 487 -104 490 -104 c 0
 495 -104 501 -110 501 -117 c 0
 501 -135 458 -155 417 -155 c 0
 375 -155 351 -138 351 -108 c 0
 351 -83 365 -58 390 -39 c 1
 403 -27 413 -22 458 0 c 1
 70 0 l 2
 53 0 47 5 47 17 c 0
 47 32 59 41 79 41 c 2
 133 41 l 1
 235 522 l 1
 181 522 l 2
 165 522 158 527 158 539 c 0
 158 553 170 563 191 563 c 2
 619 563 l 1
 589 424 l 1
 586 407 576 397 563 397 c 0
 553 397 547 404 547 411 c 1
 549 424 l 1
 569 522 l 1
 275 522 l 1
 232 313 l 1
 377 313 l 1
 386 358 l 1
 390 376 399 385 411 385 c 0
 422 385 428 377 428 370 c 0
 428 368 428 362 427 358 c 2
 399 227 l 1
 396 209 387 200 373 200 c 0xec
 364 200 357 208 357 215 c 1
 358 227 l 1
 368 272 l 1
 223 272 l 1
 174 41 l 1xdc
EndSplineSet
Ligature: 0 0 'liga' E uni0328
EndChar
StartChar: Gbreve
Encoding: 275 286 169
Width: 598
Flags: W
HStem: -16 41<315 353> 209 41<383 524 394 591> 417 21G<586 595> 536 40<426 445> 647 41<475 494>
VStem: 108 42<175 193>
DStem: 131 318 172 317 115 244 157 244 524 209 566 209 492 59 528 36
Fore
566 209 m 1
 528 36 l 1
 462 2 392 -16 330 -16 c 0
 193 -16 108 59 108 178 c 0
 108 200 110 222 115 244 c 2
 131 318 l 1
 161 464 295 576 436 576 c 0
 502 576 553 558 590 522 c 1
 593 536 l 2
 597 553 606 563 619 563 c 0
 629 563 636 556 636 549 c 0
 636 545 636 544 633 536 c 1
 615 445 l 1
 610 427 601 417 589 417 c 0
 583 417 578 421 572 428 c 1
 575 465 l 1
 576 471 552 499 536 508 c 1
 513 525 468 536 428 536 c 0
 313 536 197 438 172 317 c 2
 157 244 l 1
 152 225 150 206 150 187 c 0
 150 86 222 25 341 25 c 0
 393 25 430 33 492 59 c 1
 524 209 l 1
 385 209 l 2
 369 209 362 214 362 225 c 0
 362 242 374 250 394 250 c 2
 589 250 l 2
 606 250 612 245 612 234 c 0
 612 218 600 209 579 209 c 2
 566 209 l 1
377 777 m 0
 383 777 386 775 390 771 c 0
 393 767 393 767 394 735 c 0
 396 712 441 688 485 688 c 0
 546 688 596 715 613 755 c 0
 621 773 625 777 638 777 c 0
 649 777 657 771 657 761 c 0
 657 742 638 714 612 692 c 0
 576 661 532 647 479 647 c 0
 397 647 351 682 351 744 c 0
 351 765 362 777 377 777 c 0
EndSplineSet
Ligature: 0 0 'liga' G uni0306
EndChar
StartChar: Idieresis
Encoding: 276 207 170
Width: 598
Flags: W
HStem: 0 41<138 288 329 470> 522 41<249 390 258 581> 661 101<328 350 549 572>
VStem: 289 101<701 721> 510 100<701 721>
DStem: 390 522 431 522 288 41 329 41
Fore
431 522 m 1
 329 41 l 1
 468 41 l 2
 485 41 492 36 492 25 c 0
 492 10 479 0 460 0 c 2
 140 0 l 2
 124 0 117 5 117 16 c 0
 117 32 129 41 148 41 c 2
 288 41 l 1
 390 522 l 1
 251 522 l 2
 235 522 228 527 228 538 c 0
 228 553 240 563 258 563 c 2
 579 563 l 2
 597 563 603 559 603 547 c 0
 603 532 590 522 572 522 c 2
 431 522 l 1
350 762 m 0
 373 762 390 745 390 721 c 0
 390 691 359 661 328 661 c 0
 307 661 289 680 289 701 c 0
 289 731 320 762 350 762 c 0
572 762 m 0
 593 762 610 745 610 721 c 0
 610 691 581 661 549 661 c 0
 528 661 510 680 510 701 c 0
 510 731 541 762 572 762 c 0
EndSplineSet
Ligature: 0 0 'liga' I uni0308
EndChar
StartChar: Iacute
Encoding: 277 205 171
Width: 598
Flags: W
HStem: 0 41<138 288 329 470> 522 41<249 390 258 581>
DStem: 390 522 431 522 288 41 329 41 535 780 555 749 400 680 421 649
Fore
431 522 m 1
 329 41 l 1
 468 41 l 2
 485 41 492 36 492 25 c 0
 492 10 479 0 460 0 c 2
 140 0 l 2
 124 0 117 5 117 16 c 0
 117 32 129 41 148 41 c 2
 288 41 l 1
 390 522 l 1
 251 522 l 2
 235 522 228 527 228 538 c 0
 228 553 240 563 258 563 c 2
 579 563 l 2
 597 563 603 559 603 547 c 0
 603 532 590 522 572 522 c 2
 431 522 l 1
555 749 m 2
 421 649 l 2
 415 644 405 640 400 640 c 0
 390 640 383 647 383 657 c 0
 383 664 388 671 400 680 c 2
 535 780 l 2
 544 786 549 789 556 789 c 0
 566 789 572 782 572 772 c 0
 572 765 567 758 555 749 c 2
EndSplineSet
Ligature: 0 0 'liga' I acutecomb
EndChar
StartChar: Igrave
Encoding: 278 204 172
Width: 598
Flags: W
HStem: 0 41<138 288 329 470> 522 41<249 390 258 581>
DStem: 365 749 398 780 458 649 490 680 390 522 431 522 288 41 329 41
Fore
431 522 m 1
 329 41 l 1
 468 41 l 2
 485 41 492 36 492 25 c 0
 492 10 479 0 460 0 c 2
 140 0 l 2
 124 0 117 5 117 16 c 0
 117 32 129 41 148 41 c 2
 288 41 l 1
 390 522 l 1
 251 522 l 2
 235 522 228 527 228 538 c 0
 228 553 240 563 258 563 c 2
 579 563 l 2
 597 563 603 559 603 547 c 0
 603 532 590 522 572 522 c 2
 431 522 l 1
398 780 m 2
 490 680 l 2
 495 674 500 667 499 666 c 0
 496 657 494 650 493 650 c 1
 489 644 481 640 475 640 c 0
 467 640 462 643 458 649 c 1
 365 749 l 2
 360 754 356 761 356 763 c 0
 360 782 368 789 381 789 c 0
 387 789 392 786 398 780 c 2
EndSplineSet
Ligature: 0 0 'liga' I gravecomb
EndChar
StartChar: Icircumflex
Encoding: 279 206 173
Width: 598
Flags: W
HStem: 0 41<138 288 329 470> 522 41<249 390 258 582>
DStem: 390 522 431 522 288 41 329 41 456 739 466 789 545 648 576 680 466 789 456 739 314 680 331 648
Fore
431 522 m 1
 329 41 l 1
 468 41 l 2
 485 41 492 36 492 25 c 0
 492 10 479 0 460 0 c 2
 140 0 l 2
 124 0 117 5 117 16 c 0
 117 32 129 41 148 41 c 2
 288 41 l 1
 390 522 l 1
 251 522 l 2
 235 522 228 527 228 538 c 0
 228 553 240 563 258 563 c 2
 579 563 l 2
 597 563 603 559 603 547 c 0
 603 532 590 522 572 522 c 2
 431 522 l 1
466 789 m 1
 576 680 l 2
 585 672 586 670 586 664 c 0
 586 652 573 640 559 640 c 0
 555 640 551 642 545 648 c 2
 456 739 l 1
 331 648 l 2
 326 644 316 640 312 640 c 0
 303 640 295 647 295 657 c 0
 295 664 301 674 309 678 c 2
 314 680 l 1
 466 789 l 1
EndSplineSet
Ligature: 0 0 'liga' I uni0302
EndChar
StartChar: Idotaccent
Encoding: 280 304 174
Width: 598
Flags: W
HStem: 0 41<138 288 329 470> 522 41<249 390 258 581> 661 101<442 464>
VStem: 403 101<701 721>
DStem: 390 522 431 522 288 41 329 41
Fore
431 522 m 1
 329 41 l 1
 468 41 l 2
 485 41 492 36 492 25 c 0
 492 10 479 0 460 0 c 2
 140 0 l 2
 124 0 117 5 117 16 c 0
 117 32 129 41 148 41 c 2
 288 41 l 1
 390 522 l 1
 251 522 l 2
 235 522 228 527 228 538 c 0
 228 553 240 563 258 563 c 2
 579 563 l 2
 597 563 603 559 603 547 c 0
 603 532 590 522 572 522 c 2
 431 522 l 1
464 762 m 0
 487 762 504 745 504 721 c 0
 504 691 473 661 442 661 c 0
 421 661 403 680 403 701 c 0
 403 731 434 762 464 762 c 0
EndSplineSet
Ligature: 0 0 'liga' I uni0307
EndChar
StartChar: Lacute
Encoding: 281 313 175
Width: 598
Flags: W
HStem: 0 41<88 195 235 541> 522 41<199 297 209 445>
DStem: 297 522 339 522 195 41 235 41 455 780 475 749 320 680 341 649 542 201 583 201 508 41 541 0
Fore
339 522 m 1
 235 41 l 1
 508 41 l 1
 542 201 l 1
 546 218 555 228 568 228 c 0
 578 228 585 222 585 214 c 0
 585 211 584 206 583 201 c 2
 541 0 l 1
 90 0 l 2
 74 0 67 5 67 16 c 0
 67 32 79 41 100 41 c 2
 195 41 l 1
 297 522 l 1
 201 522 l 2
 184 522 178 527 178 539 c 0
 178 553 191 563 209 563 c 2
 443 563 l 2
 460 563 466 559 466 547 c 0
 466 532 454 522 434 522 c 2
 339 522 l 1
475 749 m 2
 341 649 l 2
 335 644 325 640 322 640 c 0
 309 640 303 647 303 657 c 0
 303 664 308 671 320 680 c 2
 455 780 l 2
 464 786 468 789 476 789 c 0
 485 789 492 782 492 772 c 0
 492 765 487 758 475 749 c 2
EndSplineSet
Ligature: 0 0 'liga' L acutecomb
EndChar
StartChar: Lcaron
Encoding: 282 317 176
Width: 598
Flags: W
HStem: 0 41<88 195 235 541> 522 41<199 297 209 445>
DStem: 297 522 339 522 195 41 235 41 542 201 583 201 508 41 541 0 597 562 626 539 485 436 516 413
Fore
339 522 m 1
 235 41 l 1
 508 41 l 1
 542 201 l 1
 546 218 555 228 568 228 c 0
 578 228 585 222 585 214 c 0
 585 211 584 206 583 201 c 2
 541 0 l 1
 90 0 l 2
 74 0 67 5 67 16 c 0
 67 32 79 41 100 41 c 2
 195 41 l 1
 297 522 l 1
 201 522 l 2
 184 522 178 527 178 539 c 0
 178 553 191 563 209 563 c 2
 443 563 l 2
 460 563 466 559 466 547 c 0
 466 532 454 522 434 522 c 2
 339 522 l 1
626 539 m 2
 516 413 l 2
 508 404 499 399 492 399 c 0
 483 399 475 407 475 414 c 0
 475 420 479 427 485 436 c 1
 597 562 l 2
 606 572 613 576 623 576 c 0
 630 576 638 569 638 561 c 0
 638 555 635 549 626 539 c 2
EndSplineSet
Ligature: 0 0 'liga' L uni030C
EndChar
StartChar: Nacute
Encoding: 283 323 177
Width: 598
Flags: W
HStem: 0 41<67 113 153 229> 522 41<158 214 496 572 505 657>
VStem: 46 205<17 25> 473 205<538 547>
DStem: 214 522 251 504 112 41 153 41 251 504 275 563 449 0 473 59 535 780 555 749 400 680 421 649 572 522 612 522 473 59 501 0
Fore
501 0 m 1
 449 0 l 1
 251 504 l 1
 153 41 l 1
 227 41 l 2
 244 41 251 36 251 25 c 0
 251 10 238 0 218 0 c 2
 69 0 l 2
 53 0 46 5 46 17 c 0
 46 32 58 41 78 41 c 2
 112 41 l 1
 214 522 l 1
 160 522 l 2
 143 522 137 527 137 539 c 0
 137 553 149 563 169 563 c 2
 275 563 l 1
 473 59 l 1
 572 522 l 1
 498 522 l 2
 481 522 473 527 473 538 c 0
 473 553 485 563 505 563 c 2
 655 563 l 2
 672 563 678 559 678 547 c 0
 678 532 666 522 646 522 c 2
 612 522 l 1
 501 0 l 1
555 749 m 2
 421 649 l 2
 415 644 405 640 400 640 c 0
 390 640 383 647 383 657 c 0
 383 664 388 671 400 680 c 2
 535 780 l 2
 544 786 549 789 556 789 c 0
 566 789 572 782 572 772 c 0
 572 765 567 758 555 749 c 2
EndSplineSet
Ligature: 0 0 'liga' N acutecomb
EndChar
StartChar: Ncaron
Encoding: 284 327 178
Width: 598
Flags: W
HStem: 0 41<67 113 153 229> 522 41<158 214 496 572 505 657>
VStem: 46 205<17 25> 473 205<538 547>
DStem: 214 522 251 504 112 41 153 41 251 504 275 563 449 0 473 59 328 749 359 782 438 640 448 691 572 522 612 522 473 59 501 0 573 782 590 749 448 691 438 640
Fore
501 0 m 1
 449 0 l 1
 251 504 l 1
 153 41 l 1
 227 41 l 2
 244 41 251 36 251 25 c 0
 251 10 238 0 218 0 c 2
 69 0 l 2
 53 0 46 5 46 17 c 0
 46 32 58 41 78 41 c 2
 112 41 l 1
 214 522 l 1
 160 522 l 2
 143 522 137 527 137 539 c 0
 137 553 149 563 169 563 c 2
 275 563 l 1
 473 59 l 1
 572 522 l 1
 498 522 l 2
 481 522 473 527 473 538 c 0
 473 553 485 563 505 563 c 2
 655 563 l 2
 672 563 678 559 678 547 c 0
 678 532 666 522 646 522 c 2
 612 522 l 1
 501 0 l 1
438 640 m 1
 328 749 l 1
 320 752 318 757 318 766 c 0
 318 775 331 789 340 789 c 2
 343 789 l 1
 348 789 l 2
 351 789 352 788 359 782 c 1
 448 691 l 1
 573 782 l 1
 576 783 590 789 592 789 c 0
 601 789 608 783 608 774 c 0
 608 763 603 755 593 751 c 2
 590 749 l 1
 438 640 l 1
EndSplineSet
Ligature: 0 0 'liga' N uni030C
EndChar
StartChar: Ntilde
Encoding: 285 209 179
Width: 598
Flags: W
HStem: 0 41<67 113 153 229> 522 41<158 214 496 572 505 657> 666 42<501 513> 714 41<388 399>
VStem: 46 205<17 25> 473 205<538 547>
DStem: 214 522 251 504 112 41 153 41 251 504 275 563 449 0 473 59 572 522 612 522 473 59 501 0
Fore
501 0 m 1
 449 0 l 1
 251 504 l 1
 153 41 l 1
 227 41 l 2
 244 41 251 36 251 25 c 0
 251 10 238 0 218 0 c 2
 69 0 l 2
 53 0 46 5 46 17 c 0
 46 32 58 41 78 41 c 2
 112 41 l 1
 214 522 l 1
 160 522 l 2
 143 522 137 527 137 539 c 0
 137 553 149 563 169 563 c 2
 275 563 l 1
 473 59 l 1
 572 522 l 1
 498 522 l 2
 481 522 473 527 473 538 c 0
 473 553 485 563 505 563 c 2
 655 563 l 2
 672 563 678 559 678 547 c 0
 678 532 666 522 646 522 c 2
 612 522 l 1
 501 0 l 1
593 752 m 0
 602 752 610 746 610 738 c 0
 610 728 606 723 589 708 c 0
 553 678 529 666 504 666 c 0
 482 666 465 674 430 697 c 0
 413 709 402 714 390 714 c 0
 370 714 359 708 324 677 c 0
 319 672 311 669 305 669 c 0
 296 669 289 675 289 684 c 0
 289 693 296 703 316 718 c 0
 350 744 373 755 397 755 c 0
 417 755 428 751 458 732 c 0
 489 712 498 708 511 708 c 0
 527 708 539 714 576 745 c 0
 583 751 589 752 593 752 c 0
EndSplineSet
Ligature: 0 0 'liga' N tildecomb
EndChar
StartChar: Odieresis
Encoding: 286 214 180
Width: 598
Flags: W
HStem: -16 41<286 311> 535 41<405 424> 661 101<326 350 549 570>
VStem: 102 42<206 225> 288 102<701 721> 508 102<701 721> 574 43<335 359>
Fore
422 576 m 0xfa
 536 576 617 485 617 357 c 0
 617 164 461 -16 296 -16 c 0
 181 -16 102 74 102 208 c 0
 102 396 258 576 422 576 c 0xfa
415 535 m 0
 277 535 144 377 144 216 c 0
 144 106 211 25 302 25 c 0
 441 25 574 181 574 345 c 0
 574 455 507 535 415 535 c 0
350 762 m 0
 373 762 390 745 390 721 c 0
 390 691 358 661 326 661 c 0
 306 661 288 680 288 701 c 0
 288 731 319 762 350 762 c 0
570 762 m 0
 593 762 610 745 610 721 c 0
 610 691 580 661 549 661 c 0
 527 661 508 680 508 701 c 0xfc
 508 731 540 762 570 762 c 0
EndSplineSet
KernsSLIF: 65 -42 0 0 84 -46 0 0 86 -51 0 0 87 -10 0 0 88 -60 0 0 89 -78 0 0
Ligature: 0 0 'liga' O uni0308
EndChar
StartChar: Oacute
Encoding: 287 211 181
Width: 598
Flags: W
HStem: -16 41<293 311> 535 41<405 430>
VStem: 102 42<206 225> 574 43<335 359>
DStem: 542 780 563 749 408 680 428 649
Fore
422 576 m 0
 536 576 617 485 617 357 c 0
 617 164 461 -16 296 -16 c 0
 181 -16 102 74 102 208 c 0
 102 396 258 576 422 576 c 0
415 535 m 0
 277 535 144 377 144 216 c 0
 144 106 211 25 302 25 c 0
 441 25 574 181 574 345 c 0
 574 455 507 535 415 535 c 0
563 749 m 2
 428 649 l 1
 424 644 413 640 409 640 c 0
 398 640 391 647 391 657 c 0
 391 664 396 671 408 680 c 2
 542 780 l 1
 552 786 557 789 564 789 c 0
 573 789 580 782 580 772 c 0
 580 765 575 758 563 749 c 2
EndSplineSet
KernsSLIF: 65 -42 0 0 84 -46 0 0 86 -51 0 0 87 -10 0 0 89 -78 0 0
Ligature: 0 0 'liga' O acutecomb
EndChar
StartChar: Ograve
Encoding: 288 210 182
Width: 598
Flags: W
HStem: -16 41<293 311> 535 41<405 424>
VStem: 102 42<206 225> 574 43<335 359>
DStem: 358 749 391 780 451 649 483 680
Fore
422 576 m 0
 536 576 617 485 617 357 c 0
 617 164 461 -16 296 -16 c 0
 181 -16 102 74 102 208 c 0
 102 396 258 576 422 576 c 0
415 535 m 0
 277 535 144 377 144 216 c 0
 144 106 211 25 302 25 c 0
 441 25 574 181 574 345 c 0
 574 455 507 535 415 535 c 0
391 780 m 2
 483 680 l 2
 488 674 493 667 492 666 c 0
 489 657 487 650 485 650 c 1
 482 644 473 640 467 640 c 0
 460 640 455 643 451 649 c 1
 358 749 l 2
 353 754 348 761 350 763 c 1
 354 782 360 789 374 789 c 0
 380 789 385 786 391 780 c 2
EndSplineSet
KernsSLIF: 84 -46 0 0 86 -51 0 0 89 -78 0 0
Ligature: 0 0 'liga' O gravecomb
EndChar
StartChar: Ocircumflex
Encoding: 289 212 183
Width: 598
Flags: W
HStem: -16 41<292 315> 535 41<405 424>
VStem: 102 42<206 225> 574 43<335 359>
DStem: 455 739 465 789 544 648 575 680 465 789 455 739 313 680 330 648
Fore
422 576 m 0
 536 576 617 485 617 357 c 0
 617 164 461 -16 296 -16 c 0
 181 -16 102 74 102 208 c 0
 102 396 258 576 422 576 c 0
415 535 m 0
 277 535 144 377 144 216 c 0
 144 106 211 25 302 25 c 0
 441 25 574 181 574 345 c 0
 574 455 507 535 415 535 c 0
465 789 m 1
 575 680 l 2
 584 672 585 670 585 664 c 0
 585 652 572 640 558 640 c 0
 553 640 550 642 544 648 c 2
 455 739 l 1
 330 648 l 1
 326 644 314 640 311 640 c 0
 302 640 294 647 294 657 c 0
 294 664 300 674 309 678 c 2
 313 680 l 1
 465 789 l 1
EndSplineSet
KernsSLIF: 84 -46 0 0 86 -51 0 0 89 -78 0 0
Ligature: 0 0 'liga' O uni0302
EndChar
StartChar: Otilde
Encoding: 290 213 184
Width: 598
Flags: W
HStem: -16 41<294 316> 535 41<405 426> 666 42<510 521> 714 41<396 407>
VStem: 103 41<206 225> 575 42<335 359>
Fore
424 576 m 0
 536 576 617 485 617 357 c 0
 617 164 462 -16 297 -16 c 0
 182 -16 103 74 103 208 c 0
 103 396 258 576 424 576 c 0
416 535 m 0
 278 535 144 377 144 216 c 0
 144 106 211 25 303 25 c 0
 442 25 575 181 575 345 c 0
 575 455 508 535 416 535 c 0
601 752 m 0
 610 752 618 746 618 737 c 0
 618 728 614 723 596 708 c 0
 561 678 536 666 512 666 c 0
 490 666 473 674 438 697 c 0
 421 709 410 714 398 714 c 0
 377 714 367 708 333 677 c 1
 326 672 319 669 313 669 c 0
 303 669 297 676 297 684 c 0
 297 693 303 703 323 718 c 0
 356 744 380 755 407 755 c 0
 426 755 438 750 465 732 c 0
 496 712 506 708 519 708 c 0
 536 708 547 714 584 745 c 0
 591 751 596 752 601 752 c 0
EndSplineSet
KernsSLIF: 84 -46 0 0 86 -50 0 0 89 -76 0 0
Ligature: 0 0 'liga' O tildecomb
EndChar
StartChar: Ohungarumlaut
Encoding: 291 336 185
Width: 598
Flags: W
HStem: -16 41<293 311> 535 41<405 424>
VStem: 102 42<206 225> 574 43<335 359>
DStem: 493 778 515 748 375 680 396 649 636 778 657 748 517 680 538 649
Fore
422 576 m 0
 536 576 617 485 617 357 c 0
 617 164 461 -16 296 -16 c 0
 181 -16 102 74 102 208 c 0
 102 396 258 576 422 576 c 0
415 535 m 0
 277 535 144 377 144 216 c 0
 144 106 211 25 302 25 c 0
 441 25 574 181 574 345 c 0
 574 455 507 535 415 535 c 0
515 748 m 2
 396 649 l 2
 391 644 380 640 376 640 c 0
 365 640 358 647 358 657 c 0
 358 664 363 671 375 680 c 2
 493 778 l 1
 502 784 510 786 512 786 c 0
 523 786 530 780 530 769 c 0
 530 763 524 755 515 748 c 2
657 748 m 2
 538 649 l 1
 534 644 522 640 518 640 c 0
 506 640 501 646 501 658 c 0
 501 664 506 671 513 677 c 2
 517 680 l 1
 636 778 l 2
 644 784 650 786 655 786 c 0
 665 786 672 780 672 769 c 0
 672 765 666 755 657 748 c 2
EndSplineSet
Ligature: 0 0 'liga' O uni030B
EndChar
StartChar: Racute
Encoding: 292 340 186
Width: 598
Flags: W
HStem: 0 41<68 133 174 250 539 572> 251 41<227 351> 522 41<179 235 189 440>
VStem: 545 42<423 436>
DStem: 235 522 275 522 133 41 227 292 235 522 218 251 133 41 174 41 535 780 555 749 400 680 421 649
Fore
218 251 m 1
 174 41 l 1
 248 41 l 2
 265 41 272 36 272 25 c 0
 272 10 258 0 240 0 c 2
 70 0 l 2
 53 0 47 5 47 17 c 0
 47 32 59 41 79 41 c 2
 133 41 l 1
 235 522 l 1
 181 522 l 2
 164 522 158 527 158 539 c 0
 158 553 170 563 189 563 c 2
 438 563 l 2
 522 563 587 507 587 434 c 0
 587 357 528 299 414 262 c 1
 468 218 489 183 540 41 c 1
 570 41 l 2
 587 41 593 36 593 25 c 0
 593 10 581 0 562 0 c 2
 505 0 l 1
 451 161 419 216 351 251 c 1
 218 251 l 1
227 292 m 1
 341 292 l 2
 448 292 545 356 545 425 c 0
 545 479 493 522 428 522 c 2
 275 522 l 1
 227 292 l 1
555 749 m 2
 421 649 l 2
 415 644 405 640 400 640 c 0
 390 640 383 647 383 657 c 0
 383 664 388 671 400 680 c 2
 535 780 l 2
 544 786 549 789 556 789 c 0
 566 789 572 782 572 772 c 0
 572 765 567 758 555 749 c 2
EndSplineSet
Ligature: 0 0 'liga' R acutecomb
EndChar
StartChar: Rcaron
Encoding: 293 344 187
Width: 598
Flags: W
HStem: 0 41<68 133 174 250 539 572> 251 41<227 351> 522 41<179 235 189 440>
VStem: 545 42<423 436>
DStem: 235 522 275 522 133 41 227 292 235 522 218 251 133 41 174 41 288 749 319 782 398 640 408 691 533 782 550 749 408 691 398 640
Fore
218 251 m 1
 174 41 l 1
 248 41 l 2
 265 41 272 36 272 25 c 0
 272 10 258 0 240 0 c 2
 70 0 l 2
 53 0 47 5 47 17 c 0
 47 32 59 41 79 41 c 2
 133 41 l 1
 235 522 l 1
 181 522 l 2
 164 522 158 527 158 539 c 0
 158 553 170 563 189 563 c 2
 438 563 l 2
 522 563 587 507 587 434 c 0
 587 357 528 299 414 262 c 1
 468 218 489 183 540 41 c 1
 570 41 l 2
 587 41 593 36 593 25 c 0
 593 10 581 0 562 0 c 2
 505 0 l 1
 451 161 419 216 351 251 c 1
 218 251 l 1
227 292 m 1
 341 292 l 2
 448 292 545 356 545 425 c 0
 545 479 493 522 428 522 c 2
 275 522 l 1
 227 292 l 1
398 640 m 1
 288 749 l 1
 280 752 278 757 278 766 c 0
 278 775 291 789 300 789 c 2
 303 789 l 1
 308 789 l 2
 311 789 312 788 319 782 c 1
 408 691 l 1
 533 782 l 1
 536 783 550 789 552 789 c 0
 561 789 568 783 568 774 c 0
 568 763 563 755 553 751 c 2
 550 749 l 1
 398 640 l 1
EndSplineSet
Ligature: 0 0 'liga' R uni030C
EndChar
StartChar: Sacute
Encoding: 294 346 188
Width: 598
Flags: W
HStem: -17 41<287 321> -17 184<148 301> 405 171<420 553> 536 40<398 433>
VStem: 201 45<390 407> 500 45<167 186>
DStem: 121 140 164 155 98 27 160 109 535 780 555 749 400 680 421 649
Fore
555 517 m 1xac
 559 536 l 1
 563 553 572 563 586 563 c 0
 595 563 602 556 602 549 c 0
 602 545 602 542 600 536 c 1x1c
 578 433 l 1
 575 416 566 405 553 405 c 0x2c
 547 405 542 408 536 417 c 1
 539 459 l 1
 539 464 517 498 508 506 c 1
 492 523 451 536 416 536 c 0
 326 536 246 471 246 399 c 0
 246 379 257 356 272 343 c 1
 292 328 317 319 377 309 c 0
 453 296 481 286 505 269 c 0
 528 252 545 217 545 184 c 0
 545 137 519 84 482 50 c 0
 437 10 364 -17 301 -17 c 0x9c
 231 -17 176 8 144 56 c 1
 140 27 l 1
 135 8 126 0 112 0 c 0
 103 0 96 7 96 15 c 0
 96 17 97 23 98 27 c 2
 121 140 l 1
 125 157 135 167 148 167 c 0x4c
 154 167 159 163 164 155 c 1
 160 109 l 1
 160 103 188 66 201 55 c 0
 222 36 268 24 307 24 c 0
 410 24 500 95 500 177 c 0
 500 199 487 225 470 237 c 0
 450 252 430 258 360 271 c 0
 292 283 258 295 234 317 c 0
 214 334 201 364 201 392 c 0
 201 489 305 576 420 576 c 0
 479 576 523 558 555 517 c 1xac
555 749 m 2
 421 649 l 2
 415 644 405 640 400 640 c 0
 390 640 383 647 383 657 c 0
 383 664 388 671 400 680 c 2
 535 780 l 2
 544 786 549 789 556 789 c 0
 566 789 572 782 572 772 c 0
 572 765 567 758 555 749 c 2
EndSplineSet
Ligature: 0 0 'liga' S acutecomb
EndChar
StartChar: Scaron
Encoding: 295 352 189
Width: 598
Flags: W
HStem: -17 41<287 321> 405 171<420 553> 536 40<399 433>
VStem: 201 45<390 407> 500 45<167 186>
DStem: 121 140 164 155 98 27 160 109 339 749 369 782 448 640 458 691 583 782 600 749 458 691 448 640
Fore
555 517 m 1xd8
 559 536 l 1
 563 553 572 563 586 563 c 0
 595 563 602 556 602 549 c 0
 602 545 602 542 600 536 c 1xb8
 578 433 l 1
 575 416 566 405 553 405 c 0xd8
 547 405 542 408 536 417 c 1
 539 459 l 1
 539 464 517 498 508 506 c 1
 492 523 451 536 416 536 c 0xb8
 326 536 246 471 246 399 c 0
 246 379 257 356 272 343 c 1
 292 328 317 319 377 309 c 0
 453 296 481 286 505 269 c 0
 528 252 545 217 545 184 c 0
 545 137 519 84 482 50 c 0
 437 10 364 -17 301 -17 c 0
 231 -17 176 8 144 56 c 1
 140 27 l 1
 135 8 126 0 112 0 c 0
 103 0 96 7 96 15 c 0
 96 17 97 23 98 27 c 2
 121 140 l 1
 125 157 135 167 148 167 c 0
 154 167 159 163 164 155 c 1
 160 109 l 1
 160 103 188 66 201 55 c 0
 222 36 268 24 307 24 c 0
 410 24 500 95 500 177 c 0
 500 199 487 225 470 237 c 0
 450 252 430 258 360 271 c 0
 292 283 258 295 234 317 c 0
 214 334 201 364 201 392 c 0
 201 489 305 576 420 576 c 0
 479 576 523 558 555 517 c 1xd8
448 640 m 1
 339 749 l 1
 330 752 328 757 328 766 c 0
 328 775 341 789 350 789 c 2
 353 789 l 1
 358 789 l 2
 360 789 362 788 369 782 c 1
 458 691 l 1
 583 782 l 1
 586 783 600 789 602 789 c 0
 610 789 618 783 618 774 c 0
 618 763 613 755 604 751 c 2
 600 749 l 1
 448 640 l 1
EndSplineSet
Ligature: 0 0 'liga' S uni030C
EndChar
StartChar: Scedilla
Encoding: 296 350 190
Width: 598
Flags: W
HStem: -178 40<258 276> -84 108<282 307> 405 171<420 553> 536 40<399 433>
VStem: 201 45<390 407> 317 40<-109 -100> 500 45<165 186>
DStem: 121 140 164 155 98 27 160 109
Fore
309 -16 m 1xde
 302 -50 l 1
 341 -53 357 -70 357 -102 c 0
 357 -146 316 -178 262 -178 c 0
 242 -178 215 -172 198 -161 c 1
 188 -157 184 -150 184 -141 c 0
 184 -127 193 -120 208 -120 c 0
 214 -120 215 -120 220 -123 c 0
 238 -133 255 -138 272 -138 c 0
 297 -138 317 -125 317 -107 c 0
 317 -91 306 -84 282 -84 c 2
 258 -84 l 1
 273 -15 l 1
 214 -8 167 17 144 56 c 1
 140 27 l 1
 135 8 126 0 112 0 c 0
 103 0 96 7 96 15 c 0
 96 17 97 23 98 27 c 2
 121 140 l 1
 125 157 135 167 148 167 c 0
 154 167 159 163 164 155 c 1
 160 109 l 1
 160 103 188 66 201 55 c 0
 222 36 268 24 307 24 c 0
 410 24 500 95 500 177 c 0
 500 199 487 225 470 237 c 0
 450 252 430 258 360 271 c 0
 292 283 258 295 234 317 c 0
 214 334 201 364 201 392 c 0
 201 489 305 576 420 576 c 0xee
 479 576 523 558 555 517 c 1
 559 536 l 1
 563 553 572 563 586 563 c 0
 595 563 602 556 602 549 c 0
 602 545 602 542 600 536 c 1xde
 578 433 l 1
 575 416 566 405 553 405 c 0xee
 547 405 542 408 536 417 c 1
 539 459 l 1
 539 464 517 498 508 506 c 1
 492 523 451 536 416 536 c 0
 326 536 246 471 246 399 c 0
 246 380 257 357 272 343 c 1
 292 328 317 319 377 309 c 0
 453 296 481 288 505 269 c 0
 528 252 545 217 545 184 c 0
 545 78 442 -10 309 -16 c 1xde
EndSplineSet
Ligature: 0 0 'liga' S uni0327
EndChar
StartChar: Tcaron
Encoding: 297 356 191
Width: 598
Flags: W
HStem: 0 41<173 290 330 436> 422 21G<178 189.5> 522 41<192 391 192 598>
DStem: 192 563 225 522 167 449 209 449 288 749 319 782 398 640 408 691 391 522 432 522 289 41 330 41 533 782 550 749 408 691 398 640 598 522 648 563 583 449 624 449
Fore
330 41 m 1
 434 41 l 2
 451 41 458 36 458 25 c 0
 458 10 445 0 426 0 c 2
 175 0 l 2
 159 0 152 5 152 17 c 0
 152 32 164 41 184 41 c 2
 289 41 l 1
 391 522 l 1
 225 522 l 1
 209 449 l 2
 205 431 197 422 182 422 c 0
 174 422 166 428 166 437 c 1
 167 449 l 1
 192 563 l 1
 648 563 l 1
 624 449 l 2
 620 431 610 421 598 421 c 0
 592 421 583 428 583 434 c 2
 583 449 l 1
 598 522 l 1
 432 522 l 1
 330 41 l 1
398 640 m 1
 288 749 l 1
 280 752 278 757 278 766 c 0
 278 775 291 789 300 789 c 2
 303 789 l 1
 308 789 l 2
 311 789 312 788 319 782 c 1
 408 691 l 1
 533 782 l 1
 536 783 550 789 552 789 c 0
 561 789 568 783 568 774 c 0
 568 763 563 755 553 751 c 2
 550 749 l 1
 398 640 l 1
EndSplineSet
Ligature: 0 0 'liga' T uni030C
EndChar
StartChar: Udieresis
Encoding: 298 220 192
Width: 598
Flags: W
HStem: -16 41<287 313> 522 41<176 212 187 337 493 569 504 655> 661 101<328 350 549 572>
VStem: 136 42<138 152> 155 204<538 547> 289 101<701 721> 472 204<539 547> 510 100<701 721>
DStem: 212 522 252 522 141 184 182 184 569 522 610 522 498 184 539 184
Fore
610 522 m 1xe1
 539 184 l 1
 515 72 409 -16 297 -16 c 0
 201 -16 136 47 136 140 c 0
 136 154 138 170 141 184 c 2
 212 522 l 1
 178 522 l 2xf1
 161 522 155 527 155 538 c 0
 155 553 167 563 187 563 c 2
 337 563 l 2
 353 563 359 559 359 547 c 0xe8
 359 532 347 522 328 522 c 2
 252 522 l 1
 182 184 l 1
 178 174 178 161 178 150 c 0
 178 76 231 25 305 25 c 0
 394 25 479 95 498 184 c 1
 569 522 l 1
 495 522 l 2
 478 522 472 527 472 539 c 0
 472 553 484 563 504 563 c 2
 653 563 l 2
 670 563 676 559 676 547 c 0xf2
 676 532 664 522 644 522 c 2
 610 522 l 1xe1
350 762 m 0
 373 762 390 745 390 721 c 0
 390 691 359 661 328 661 c 0
 307 661 289 680 289 701 c 0xe4
 289 731 320 762 350 762 c 0
572 762 m 0
 593 762 610 745 610 721 c 0
 610 691 581 661 549 661 c 0
 528 661 510 680 510 701 c 0xe1
 510 731 541 762 572 762 c 0
EndSplineSet
KernsSLIF: 65 -32 0 0 98 21 0 0 44 -103 0 0 109 2 0 0 110 -28 0 0 112 -6 0 0 46 -136 0 0 114 -60 0 0
Ligature: 0 0 'liga' U uni0308
EndChar
StartChar: Uacute
Encoding: 299 218 193
Width: 598
Flags: W
HStem: -16 41<295 313> 522 41<176 212 187 337 493 569 504 655>
VStem: 136 42<138 152> 155 204<538 547> 472 204<539 547>
DStem: 212 522 252 522 141 184 182 184 540 780 559 749 405 680 426 649 569 522 610 522 498 184 539 184
Fore
610 522 m 1xe8
 539 184 l 1
 515 72 409 -16 297 -16 c 0
 201 -16 136 47 136 140 c 0
 136 154 138 170 141 184 c 2
 212 522 l 1
 178 522 l 2xe8
 161 522 155 527 155 538 c 0
 155 553 167 563 187 563 c 2
 337 563 l 2
 353 563 359 559 359 547 c 0xd8
 359 532 347 522 328 522 c 2
 252 522 l 1
 182 184 l 1
 178 174 178 161 178 150 c 0
 178 76 231 25 305 25 c 0
 394 25 479 95 498 184 c 1
 569 522 l 1
 495 522 l 2
 478 522 472 527 472 539 c 0
 472 553 484 563 504 563 c 2
 653 563 l 2
 670 563 676 559 676 547 c 0
 676 532 664 522 644 522 c 2
 610 522 l 1xe8
559 749 m 2
 426 649 l 2
 420 644 410 640 407 640 c 0
 394 640 388 647 388 657 c 0
 388 664 393 671 405 680 c 2
 540 780 l 2
 549 786 553 789 561 789 c 0
 570 789 576 782 576 772 c 0
 576 765 572 758 559 749 c 2
EndSplineSet
KernsSLIF: 65 -32 0 0 44 -103 0 0 109 2 0 0 110 -28 0 0 112 -6 0 0 46 -136 0 0 114 -60 0 0
Ligature: 0 0 'liga' U acutecomb
EndChar
StartChar: Ugrave
Encoding: 300 217 194
Width: 598
Flags: W
HStem: -16 41<295 313> 522 41<176 212 187 337 493 569 504 655>
VStem: 136 42<138 152> 155 204<538 547> 472 204<539 547>
DStem: 212 522 252 522 141 184 182 184 362 749 394 780 455 649 487 680 569 522 610 522 498 184 539 184
Fore
610 522 m 1xe8
 539 184 l 1
 515 72 409 -16 297 -16 c 0
 201 -16 136 47 136 140 c 0
 136 154 138 170 141 184 c 2
 212 522 l 1
 178 522 l 2xe8
 161 522 155 527 155 538 c 0
 155 553 167 563 187 563 c 2
 337 563 l 2
 353 563 359 559 359 547 c 0xd8
 359 532 347 522 328 522 c 2
 252 522 l 1
 182 184 l 1
 178 174 178 161 178 150 c 0
 178 76 231 25 305 25 c 0
 394 25 479 95 498 184 c 1
 569 522 l 1
 495 522 l 2
 478 522 472 527 472 539 c 0
 472 553 484 563 504 563 c 2
 653 563 l 2
 670 563 676 559 676 547 c 0
 676 532 664 522 644 522 c 2
 610 522 l 1xe8
394 780 m 1
 487 680 l 2
 492 674 498 667 496 666 c 1
 493 657 492 650 490 650 c 1
 485 644 477 640 471 640 c 0
 464 640 459 643 455 649 c 1
 362 749 l 2
 357 754 352 761 353 763 c 0
 358 782 365 789 377 789 c 0
 383 789 390 786 394 780 c 1
EndSplineSet
KernsSLIF: 65 -32 0 0
Ligature: 0 0 'liga' U gravecomb
EndChar
StartChar: Ucircumflex
Encoding: 301 219 195
Width: 598
Flags: W
HStem: -16 41<293 317> 522 41<176 212 187 337 493 569 504 655>
VStem: 136 42<138 152> 155 204<538 547> 472 204<539 547>
DStem: 212 522 252 522 141 184 182 184 456 739 466 789 545 648 576 680 466 789 456 739 314 680 331 648 569 522 610 522 498 184 539 184
Fore
610 522 m 1xe8
 539 184 l 1
 515 72 409 -16 297 -16 c 0
 201 -16 136 47 136 140 c 0
 136 154 138 170 141 184 c 2
 212 522 l 1
 178 522 l 2xe8
 161 522 155 527 155 538 c 0
 155 553 167 563 187 563 c 2
 337 563 l 2
 353 563 359 559 359 547 c 0xd8
 359 532 347 522 328 522 c 2
 252 522 l 1
 182 184 l 1
 178 174 178 161 178 150 c 0
 178 76 231 25 305 25 c 0
 394 25 479 95 498 184 c 1
 569 522 l 1
 495 522 l 2
 478 522 472 527 472 539 c 0
 472 553 484 563 504 563 c 2
 653 563 l 2
 670 563 676 559 676 547 c 0
 676 532 664 522 644 522 c 2
 610 522 l 1xe8
466 789 m 1
 576 680 l 2
 585 672 586 670 586 664 c 0
 586 652 573 640 559 640 c 0
 555 640 551 642 545 648 c 2
 456 739 l 1
 331 648 l 2
 326 644 316 640 312 640 c 0
 303 640 295 647 295 657 c 0
 295 664 301 674 309 678 c 2
 314 680 l 1
 466 789 l 1
EndSplineSet
KernsSLIF: 65 -32 0 0
Ligature: 0 0 'liga' U uni0302
EndChar
StartChar: Uring
Encoding: 302 366 196
Width: 598
Flags: W
HStem: -16 41<295 313> 522 41<176 212 187 337 493 569 504 655> 626 31<431 440> 777 30<465 477>
VStem: 136 42<138 152> 155 204<538 547> 359 31<697 705> 472 204<539 547> 518 31<730 736>
DStem: 212 522 252 522 141 184 182 184 569 522 610 522 498 184 539 184
Fore
610 522 m 1xfb
 539 184 l 1
 515 72 409 -16 297 -16 c 0
 201 -16 136 47 136 140 c 0
 136 154 138 170 141 184 c 2
 212 522 l 1
 178 522 l 2xfb
 161 522 155 527 155 538 c 0
 155 553 167 563 187 563 c 2
 337 563 l 2
 353 563 359 559 359 547 c 0xf6
 359 532 347 522 328 522 c 2
 252 522 l 1
 182 184 l 1
 178 174 178 161 178 150 c 0
 178 76 231 25 305 25 c 0
 394 25 479 95 498 184 c 1
 569 522 l 1
 495 522 l 2
 478 522 472 527 472 539 c 0
 472 553 484 563 504 563 c 2
 653 563 l 2
 670 563 676 559 676 547 c 0
 676 532 664 522 644 522 c 2
 610 522 l 1xfb
475 807 m 0
 515 807 549 775 549 734 c 0xf280
 549 678 492 626 433 626 c 0
 391 626 359 657 359 699 c 0
 359 755 415 807 475 807 c 0
467 777 m 0
 425 777 390 742 390 701 c 0
 390 677 411 657 438 657 c 0
 481 657 518 692 518 732 c 0
 518 758 498 777 467 777 c 0
EndSplineSet
Ligature: 0 0 'liga' U uni030A
EndChar
StartChar: Uhungarumlaut
Encoding: 303 368 197
Width: 598
Flags: W
HStem: -16 41<295 318> 522 41<176 212 187 337 493 569 504 655>
VStem: 136 42<138 152> 155 204<538 547> 472 204<539 547>
DStem: 212 522 252 522 141 184 182 184 453 778 475 748 335 680 356 649 569 522 610 522 498 184 539 184 596 778 617 748 477 680 498 649
Fore
610 522 m 1xe8
 539 184 l 1
 515 72 409 -16 297 -16 c 0
 201 -16 136 47 136 140 c 0
 136 154 138 170 141 184 c 2
 212 522 l 1
 178 522 l 2xe8
 161 522 155 527 155 538 c 0
 155 553 167 563 187 563 c 2
 337 563 l 2
 353 563 359 559 359 547 c 0xd8
 359 532 347 522 328 522 c 2
 252 522 l 1
 182 184 l 1
 178 174 178 161 178 150 c 0
 178 76 231 25 305 25 c 0
 394 25 479 95 498 184 c 1
 569 522 l 1
 495 522 l 2
 478 522 472 527 472 539 c 0
 472 553 484 563 504 563 c 2
 653 563 l 2
 670 563 676 559 676 547 c 0
 676 532 664 522 644 522 c 2
 610 522 l 1xe8
475 748 m 2
 356 649 l 2
 351 644 340 640 336 640 c 0
 325 640 318 647 318 657 c 0
 318 664 323 671 335 680 c 2
 453 778 l 1
 464 784 470 786 472 786 c 0
 483 786 490 780 490 769 c 0
 490 763 484 755 475 748 c 2
617 748 m 2
 498 649 l 1
 494 644 482 640 478 640 c 0
 466 640 461 646 461 658 c 0
 461 664 466 671 473 677 c 2
 477 680 l 1
 596 778 l 2
 604 784 610 786 615 786 c 0
 625 786 632 780 632 769 c 0
 632 765 626 755 617 748 c 2
EndSplineSet
Ligature: 0 0 'liga' U uni030B
EndChar
StartChar: Yacute
Encoding: 304 221 198
Width: 598
Flags: W
HStem: 0 41<174 290 331 438> 522 41<187 214 198 311 521 563 532 642>
VStem: 166 167<538 547> 499 166<538 546>
DStem: 214 522 262 522 335 254 367 295 335 254 376 254 290 41 331 41 540 780 559 749 405 680 426 649 564 522 610 522 367 295 376 254
Fore
376 254 m 1
 331 41 l 1
 436 41 l 2
 453 41 459 36 459 25 c 0
 459 10 447 0 427 0 c 2
 176 0 l 2
 160 0 153 5 153 16 c 0
 153 32 165 41 184 41 c 2
 290 41 l 1
 335 254 l 1
 214 522 l 1
 189 522 l 2
 174 522 166 527 166 538 c 0
 166 553 178 563 198 563 c 2
 309 563 l 2
 326 563 333 559 333 547 c 0
 333 532 320 522 300 522 c 2
 262 522 l 1
 367 295 l 1
 564 522 l 1
 523 522 l 2
 506 522 499 527 499 538 c 0
 499 553 511 563 532 563 c 2
 642 563 l 2
 658 563 665 558 665 546 c 0
 665 532 652 522 633 522 c 2
 610 522 l 1
 376 254 l 1
559 749 m 2
 426 649 l 2
 420 644 410 640 407 640 c 0
 394 640 388 647 388 657 c 0
 388 664 393 671 405 680 c 2
 540 780 l 2
 549 786 553 789 561 789 c 0
 570 789 576 782 576 772 c 0
 576 765 572 758 559 749 c 2
EndSplineSet
MinimumDistance: x10,26 
Ligature: 0 0 'liga' Y acutecomb
EndChar
StartChar: Zacute
Encoding: 305 377 199
Width: 598
Flags: W
HStem: 0 41<150 498> 522 41<242 542>
DStem: 242 563 273 522 208 404 248 404 495 182 536 182 465 41 498 0 535 780 555 749 400 680 421 649 541 519 578 505 117 59 150 45
Fore
498 0 m 1
 103 0 l 1
 117 59 l 1
 541 519 l 1
 542 522 l 1
 273 522 l 1
 248 404 l 2
 244 385 235 376 221 376 c 0
 212 376 205 383 205 392 c 0
 205 394 205 396 208 404 c 1
 242 563 l 1
 590 563 l 1
 578 505 l 1
 150 45 l 1
 150 41 l 1
 465 41 l 1
 495 182 l 2
 499 200 507 209 521 209 c 0
 532 209 538 201 538 194 c 0
 538 192 538 189 536 186 c 1
 536 182 l 1
 498 0 l 1
555 749 m 2
 421 649 l 2
 415 644 405 640 400 640 c 0
 390 640 383 647 383 657 c 0
 383 664 388 671 400 680 c 2
 535 780 l 2
 544 786 549 789 556 789 c 0
 566 789 572 782 572 772 c 0
 572 765 567 758 555 749 c 2
EndSplineSet
Ligature: 0 0 'liga' Z acutecomb
EndChar
StartChar: Zcaron
Encoding: 306 381 200
Width: 598
Flags: W
HStem: 0 41<150 498> 522 41<242 542>
DStem: 242 563 273 522 208 404 248 404 324 749 356 782 434 640 444 691 495 182 536 182 465 41 498 0 541 519 578 505 117 59 150 45 569 782 586 749 444 691 434 640
Fore
498 0 m 1
 103 0 l 1
 117 59 l 1
 541 519 l 1
 542 522 l 1
 273 522 l 1
 248 404 l 2
 244 385 235 376 221 376 c 0
 212 376 205 383 205 392 c 0
 205 394 205 396 208 404 c 1
 242 563 l 1
 590 563 l 1
 578 505 l 1
 150 45 l 1
 150 41 l 1
 465 41 l 1
 495 182 l 2
 499 200 507 209 521 209 c 0
 532 209 538 201 538 194 c 0
 538 192 538 189 536 186 c 1
 536 182 l 1
 498 0 l 1
434 640 m 1
 324 749 l 1
 316 752 314 757 314 766 c 0
 314 775 326 789 336 789 c 2
 339 789 l 1
 343 789 l 2
 347 789 348 788 356 782 c 1
 444 691 l 1
 569 782 l 1
 572 783 586 789 589 789 c 0
 597 789 604 783 604 774 c 0
 604 763 600 755 590 751 c 2
 586 749 l 1
 434 640 l 1
EndSplineSet
Ligature: 0 0 'liga' Z uni030C
EndChar
StartChar: Zdotaccent
Encoding: 307 379 201
Width: 598
Flags: W
HStem: 0 41<150 498> 522 41<242 542> 661 101<432 454>
VStem: 393 101<701 721>
DStem: 242 563 273 522 208 404 248 404 495 182 536 182 465 41 498 0 541 519 578 505 117 59 150 45
Fore
498 0 m 1
 103 0 l 1
 117 59 l 1
 541 519 l 1
 542 522 l 1
 273 522 l 1
 248 404 l 2
 244 385 235 376 221 376 c 0
 212 376 205 383 205 392 c 0
 205 394 205 396 208 404 c 1
 242 563 l 1
 590 563 l 1
 578 505 l 1
 150 45 l 1
 150 41 l 1
 465 41 l 1
 495 182 l 2
 499 200 507 209 521 209 c 0
 532 209 538 201 538 194 c 0
 538 192 538 189 536 186 c 1
 536 182 l 1
 498 0 l 1
454 762 m 0
 477 762 494 745 494 721 c 0
 494 691 464 661 432 661 c 0
 411 661 393 680 393 701 c 0
 393 731 424 762 454 762 c 0
EndSplineSet
Ligature: 0 0 'liga' Z uni0307
EndChar
StartChar: Amacron
Encoding: 308 256 202
Width: 598
Flags: W
HStem: 0 41<34 76 117 197 406 493 535 575> 188 41<227 468> 522 41<235 357 246 411> 683 40<284 534>
VStem: 13 205<17 25> 385 211<16 25>
DStem: 357 522 397 522 76 41 227 229 357 522 203 188 76 41 117 41 411 522 449 563 462 229 536 41 468 188 449 563 493 41 536 41
Fore
468 188 m 1
 203 188 l 1
 117 41 l 1
 197 41 l 2
 214 41 218 36 218 25 c 0
 218 10 206 0 187 0 c 2
 36 0 l 2
 19 0 13 5 13 17 c 0
 13 32 25 41 45 41 c 2
 76 41 l 1
 357 522 l 1
 237 522 l 2
 221 522 214 527 214 538 c 0
 214 553 226 563 246 563 c 2
 449 563 l 1
 536 41 l 1
 573 41 l 2
 590 41 596 36 596 25 c 0
 596 10 584 0 564 0 c 2
 408 0 l 2
 392 0 385 5 385 16 c 0
 385 32 397 41 417 41 c 2
 493 41 l 1
 468 188 l 1
462 229 m 1
 411 522 l 1
 397 522 l 1
 227 229 l 1
 462 229 l 1
523 683 m 2
 286 683 l 2
 271 683 265 688 265 699 c 0
 265 714 275 723 296 723 c 2
 532 723 l 2
 549 723 555 718 555 708 c 0
 555 692 542 683 523 683 c 2
EndSplineSet
Ligature: 0 0 'liga' A uni0304
EndChar
StartChar: Tcommaaccent
Encoding: 309 354 203
Width: 598
Flags: W
HStem: 0 41<173 289 330 436> 422 21G<178 189.5> 522 41<192 391 192 598>
DStem: 192 563 225 522 167 449 209 449 282 -74 309 -97 170 -200 200 -223 391 522 432 522 289 41 330 41 598 522 648 563 583 449 624 449
Fore
330 41 m 1
 434 41 l 2
 451 41 458 36 458 25 c 0
 458 10 445 0 426 0 c 2
 175 0 l 2
 159 0 152 5 152 17 c 0
 152 32 164 41 184 41 c 2
 289 41 l 1
 391 522 l 1
 225 522 l 1
 209 449 l 2
 205 431 197 422 182 422 c 0
 174 422 166 428 166 437 c 1
 167 449 l 1
 192 563 l 1
 648 563 l 1
 624 449 l 2
 620 431 610 421 598 421 c 0
 592 421 583 428 583 434 c 2
 583 449 l 1
 598 522 l 1
 432 522 l 1
 330 41 l 1
309 -97 m 1
 200 -223 l 2
 192 -232 183 -237 175 -237 c 0
 167 -237 159 -229 159 -222 c 0
 159 -216 163 -209 170 -200 c 1
 282 -74 l 2
 290 -64 297 -59 306 -59 c 0
 314 -59 322 -67 322 -75 c 0
 322 -81 319 -89 309 -97 c 1
EndSplineSet
Ligature: 0 0 'liga' T uni0327
EndChar
StartChar: Ydieresis
Encoding: 310 376 204
Width: 598
Flags: W
HStem: 0 41<174 291 331 438> 522 41<187 214 198 311 521 564 532 642> 661 101<328 350 549 572>
VStem: 166 167<538 547> 289 101<701 721> 499 166<538 546> 510 100<701 721>
DStem: 214 522 262 522 335 254 367 295 335 254 376 254 290 41 331 41 564 522 610 522 367 295 376 254
Fore
376 254 m 1xe2
 331 41 l 1
 436 41 l 2
 453 41 459 36 459 25 c 0
 459 10 447 0 427 0 c 2
 176 0 l 2
 160 0 153 5 153 16 c 0
 153 32 165 41 184 41 c 2
 290 41 l 1
 335 254 l 1
 214 522 l 1
 189 522 l 2
 174 522 166 527 166 538 c 0
 166 553 178 563 198 563 c 2
 309 563 l 2
 326 563 333 559 333 547 c 0
 333 532 320 522 300 522 c 2
 262 522 l 1
 367 295 l 1
 564 522 l 1
 523 522 l 2
 506 522 499 527 499 538 c 0
 499 553 511 563 532 563 c 2
 642 563 l 2
 658 563 665 558 665 546 c 0xf4
 665 532 652 522 633 522 c 2
 610 522 l 1
 376 254 l 1xe2
350 762 m 0
 373 762 390 745 390 721 c 0
 390 691 359 661 328 661 c 0
 307 661 289 680 289 701 c 0xe8
 289 731 320 762 350 762 c 0
572 762 m 0
 593 762 610 745 610 721 c 0
 610 691 581 661 549 661 c 0
 528 661 510 680 510 701 c 0xe2
 510 731 541 762 572 762 c 0
EndSplineSet
MinimumDistance: x10,26 
Ligature: 0 0 'liga' Y uni0308
EndChar
StartChar: Emacron
Encoding: 311 274 205
Width: 598
Flags: W
HStem: 0 41<68 133 174 519> 200 113<232 377> 272 41<232 368> 522 41<180 235 191 569> 683 40<315 564>
DStem: 235 522 275 522 133 41 232 313 235 522 223 272 133 41 174 41 368 272 427 358 358 227 399 227 386 358 427 358 377 313 399 227 513 160 553 160 488 41 519 0 569 522 619 563 549 424 589 424
Fore
223 272 m 1xb8
 174 41 l 1
 488 41 l 1
 513 160 l 2
 517 178 525 187 540 187 c 0
 549 187 556 180 556 172 c 0
 556 169 555 165 553 160 c 1
 519 0 l 1
 70 0 l 2
 53 0 47 5 47 17 c 0
 47 32 59 41 79 41 c 2
 133 41 l 1
 235 522 l 1
 181 522 l 2
 165 522 158 527 158 539 c 0
 158 553 170 563 191 563 c 2
 619 563 l 1
 589 424 l 1
 586 407 576 397 563 397 c 0
 553 397 547 404 547 411 c 1
 549 424 l 1
 569 522 l 1
 275 522 l 1
 232 313 l 1
 377 313 l 1
 386 358 l 1
 390 376 399 385 411 385 c 0
 422 385 428 377 428 370 c 0
 428 368 428 362 427 358 c 2
 399 227 l 1
 396 209 387 200 373 200 c 0xd8
 364 200 357 208 357 215 c 1
 358 227 l 1
 368 272 l 1
 223 272 l 1xb8
553 683 m 2
 317 683 l 2
 301 683 294 688 294 699 c 0
 294 714 306 723 326 723 c 2
 562 723 l 2
 578 723 585 718 585 708 c 0
 585 692 573 683 553 683 c 2
EndSplineSet
Ligature: 0 0 'liga' E uni0304
EndChar
StartChar: Imacron
Encoding: 312 298 206
Width: 598
Flags: W
HStem: 0 41<138 288 329 470> 522 41<249 390 258 581> 683 40<325 574>
DStem: 390 522 431 522 288 41 329 41
Fore
431 522 m 1
 329 41 l 1
 468 41 l 2
 485 41 492 36 492 25 c 0
 492 10 479 0 460 0 c 2
 140 0 l 2
 124 0 117 5 117 16 c 0
 117 32 129 41 148 41 c 2
 288 41 l 1
 390 522 l 1
 251 522 l 2
 235 522 228 527 228 538 c 0
 228 553 240 563 258 563 c 2
 579 563 l 2
 597 563 603 559 603 547 c 0
 603 532 590 522 572 522 c 2
 431 522 l 1
563 683 m 2
 326 683 l 2
 311 683 303 688 303 699 c 0
 303 714 316 723 336 723 c 2
 572 723 l 2
 589 723 595 718 595 708 c 0
 595 692 583 683 563 683 c 2
EndSplineSet
Ligature: 0 0 'liga' I uni0304
EndChar
StartChar: Iogonek
Encoding: 313 302 207
Width: 598
Flags: W
HStem: -155 30<368 379> 0 41<138 288 329 409> 522 41<249 390 258 581>
VStem: 303 42<-109 -98>
DStem: 390 522 431 522 288 41 329 41
Fore
431 522 m 1
 329 41 l 1
 468 41 l 2
 485 41 492 36 492 25 c 0
 492 19 489 13 485 8 c 0
 481 4 481 4 433 -13 c 0
 386 -28 345 -69 345 -100 c 0
 345 -117 356 -125 377 -125 c 0
 403 -125 409 -123 432 -107 c 0
 434 -106 439 -104 442 -104 c 0
 447 -104 453 -110 453 -117 c 0
 453 -135 410 -155 370 -155 c 0
 326 -155 303 -138 303 -108 c 0
 303 -84 317 -58 341 -39 c 0
 356 -27 365 -22 409 0 c 1
 140 0 l 2
 124 0 117 5 117 16 c 0
 117 32 129 41 148 41 c 2
 288 41 l 1
 390 522 l 1
 251 522 l 2
 235 522 228 527 228 538 c 0
 228 553 240 563 258 563 c 2
 579 563 l 2
 597 563 603 559 603 547 c 0
 603 532 590 522 572 522 c 2
 431 522 l 1
EndSplineSet
Ligature: 0 0 'liga' I uni0328
EndChar
StartChar: Kcommaaccent
Encoding: 314 310 208
Width: 598
Flags: W
HStem: 0 41<68 133 174 250 497 555> 522 41<180 235 191 361 509 555 519 640>
VStem: 47 225<17 25> 158 225<539 547> 487 174<538 547>
DStem: 235 522 275 522 133 41 223 273 235 522 212 221 133 41 174 41 282 -74 309 -97 170 -200 200 -223 556 522 613 522 223 273 350 324 556 522 309 294 223 273 212 221
Fore
212 221 m 1xd8
 174 41 l 1
 248 41 l 2
 265 41 272 36 272 25 c 0
 272 10 258 0 240 0 c 2
 70 0 l 2
 53 0 47 5 47 17 c 0xe8
 47 32 59 41 79 41 c 2
 133 41 l 1
 235 522 l 1
 181 522 l 2
 165 522 158 527 158 539 c 0
 158 553 170 563 191 563 c 2
 359 563 l 2
 377 563 383 559 383 547 c 0
 383 532 371 522 351 522 c 2
 275 522 l 1
 223 273 l 1
 556 522 l 1
 511 522 l 2
 494 522 487 527 487 538 c 0
 487 553 499 563 519 563 c 2
 638 563 l 2
 657 563 661 559 661 547 c 0
 661 532 650 522 630 522 c 2
 613 522 l 1
 350 324 l 1
 437 284 464 233 498 41 c 1
 553 41 l 2
 570 41 576 36 576 25 c 0
 576 10 564 0 545 0 c 2
 459 0 l 1
 428 204 397 263 309 294 c 1
 212 221 l 1xd8
309 -97 m 1
 200 -223 l 2
 192 -232 183 -237 175 -237 c 0
 167 -237 159 -229 159 -222 c 0
 159 -216 163 -209 170 -200 c 1
 282 -74 l 2
 290 -64 297 -59 306 -59 c 0
 314 -59 322 -67 322 -75 c 0
 322 -81 319 -89 309 -97 c 1
EndSplineSet
Ligature: 0 0 'liga' K uni0327
EndChar
StartChar: Lcommaaccent
Encoding: 315 315 209
Width: 598
Flags: W
HStem: 0 41<88 195 235 541> 522 41<199 297 209 445>
DStem: 282 -74 309 -97 170 -200 200 -223 297 522 339 522 195 41 235 41 542 201 583 201 508 41 541 0
Fore
339 522 m 1
 235 41 l 1
 508 41 l 1
 542 201 l 1
 546 218 555 228 568 228 c 0
 578 228 585 222 585 214 c 0
 585 211 584 206 583 201 c 2
 541 0 l 1
 90 0 l 2
 74 0 67 5 67 16 c 0
 67 32 79 41 100 41 c 2
 195 41 l 1
 297 522 l 1
 201 522 l 2
 184 522 178 527 178 539 c 0
 178 553 191 563 209 563 c 2
 443 563 l 2
 460 563 466 559 466 547 c 0
 466 532 454 522 434 522 c 2
 339 522 l 1
309 -97 m 1
 200 -223 l 2
 192 -232 183 -237 175 -237 c 0
 167 -237 159 -229 159 -222 c 0
 159 -216 163 -209 170 -200 c 1
 282 -74 l 2
 290 -64 297 -59 306 -59 c 0
 314 -59 322 -67 322 -75 c 0
 322 -81 319 -89 309 -97 c 1
EndSplineSet
Ligature: 0 0 'liga' L uni0327
EndChar
StartChar: Ncommaaccent
Encoding: 316 325 210
Width: 598
Flags: W
HStem: 0 41<67 113 153 229> 522 41<158 214 496 572 505 657>
VStem: 46 205<17 25> 473 205<538 547>
DStem: 214 522 251 504 112 41 153 41 251 504 275 563 449 0 473 59 282 -74 309 -97 170 -200 200 -223 572 522 612 522 473 59 501 0
Fore
501 0 m 1
 449 0 l 1
 251 504 l 1
 153 41 l 1
 227 41 l 2
 244 41 251 36 251 25 c 0
 251 10 238 0 218 0 c 2
 69 0 l 2
 53 0 46 5 46 17 c 0
 46 32 58 41 78 41 c 2
 112 41 l 1
 214 522 l 1
 160 522 l 2
 143 522 137 527 137 539 c 0
 137 553 149 563 169 563 c 2
 275 563 l 1
 473 59 l 1
 572 522 l 1
 498 522 l 2
 481 522 473 527 473 538 c 0
 473 553 485 563 505 563 c 2
 655 563 l 2
 672 563 678 559 678 547 c 0
 678 532 666 522 646 522 c 2
 612 522 l 1
 501 0 l 1
309 -97 m 1
 200 -223 l 2
 192 -232 183 -237 175 -237 c 0
 167 -237 159 -229 159 -222 c 0
 159 -216 163 -209 170 -200 c 1
 282 -74 l 2
 290 -64 297 -59 306 -59 c 0
 314 -59 322 -67 322 -75 c 0
 322 -81 319 -89 309 -97 c 1
EndSplineSet
Ligature: 0 0 'liga' N uni0327
EndChar
StartChar: Omacron
Encoding: 317 332 211
Width: 598
Flags: W
HStem: -16 41<293 311> 535 41<405 424> 683 40<325 574>
VStem: 102 42<206 225> 574 43<335 359>
Fore
422 576 m 0
 536 576 617 485 617 357 c 0
 617 164 461 -16 296 -16 c 0
 181 -16 102 74 102 208 c 0
 102 396 258 576 422 576 c 0
415 535 m 0
 277 535 144 377 144 216 c 0
 144 106 211 25 302 25 c 0
 441 25 574 181 574 345 c 0
 574 455 507 535 415 535 c 0
563 683 m 2
 326 683 l 2
 311 683 303 688 303 699 c 0
 303 714 316 723 336 723 c 2
 572 723 l 2
 589 723 595 718 595 708 c 0
 595 692 583 683 563 683 c 2
EndSplineSet
Ligature: 0 0 'liga' O uni0304
EndChar
StartChar: Rcommaaccent
Encoding: 318 342 212
Width: 598
Flags: W
HStem: 0 41<68 133 174 250 539 572> 251 41<227 351> 522 41<179 235 189 440>
VStem: 545 42<418 436>
DStem: 235 522 275 522 133 41 227 292 235 522 218 251 133 41 174 41 282 -74 309 -97 170 -200 200 -223
Fore
218 251 m 1
 174 41 l 1
 248 41 l 2
 265 41 272 36 272 25 c 0
 272 10 258 0 240 0 c 2
 70 0 l 2
 53 0 47 5 47 17 c 0
 47 32 59 41 79 41 c 2
 133 41 l 1
 235 522 l 1
 181 522 l 2
 164 522 158 527 158 539 c 0
 158 553 170 563 189 563 c 2
 438 563 l 2
 522 563 587 507 587 434 c 0
 587 357 528 299 414 262 c 1
 468 218 489 183 540 41 c 1
 570 41 l 2
 587 41 593 36 593 25 c 0
 593 10 581 0 562 0 c 2
 505 0 l 1
 451 161 419 216 351 251 c 1
 218 251 l 1
227 292 m 1
 341 292 l 2
 448 292 545 356 545 425 c 0
 545 479 493 522 428 522 c 2
 275 522 l 1
 227 292 l 1
309 -97 m 1
 200 -223 l 2
 192 -232 183 -237 175 -237 c 0
 167 -237 159 -229 159 -222 c 0
 159 -216 163 -209 170 -200 c 1
 282 -74 l 2
 290 -64 297 -59 306 -59 c 0
 314 -59 322 -67 322 -75 c 0
 322 -81 319 -89 309 -97 c 1
EndSplineSet
Ligature: 0 0 'liga' R uni0327
EndChar
StartChar: Gcommaaccent
Encoding: 319 290 213
Width: 598
Flags: W
HStem: -16 41<315 349> 209 41<383 524 394 591> 417 21G<586 595> 536 40<426 445>
VStem: 108 42<176 196>
DStem: 131 318 172 317 115 244 157 244 282 -74 309 -97 170 -200 200 -223 524 209 566 209 492 59 528 36
Fore
566 209 m 1
 528 36 l 1
 462 2 392 -16 330 -16 c 0
 193 -16 108 59 108 178 c 0
 108 200 110 222 115 244 c 2
 131 318 l 1
 161 464 295 576 436 576 c 0
 502 576 553 558 590 522 c 1
 593 536 l 2
 597 553 606 563 619 563 c 0
 629 563 636 556 636 549 c 0
 636 545 636 544 633 536 c 1
 615 445 l 1
 610 427 601 417 589 417 c 0
 583 417 578 421 572 428 c 1
 575 465 l 1
 576 471 552 499 536 508 c 1
 513 525 468 536 428 536 c 0
 313 536 197 438 172 317 c 2
 157 244 l 1
 152 225 150 206 150 187 c 0
 150 86 222 25 341 25 c 0
 393 25 430 33 492 59 c 1
 524 209 l 1
 385 209 l 2
 369 209 362 214 362 225 c 0
 362 242 374 250 394 250 c 2
 589 250 l 2
 606 250 612 245 612 234 c 0
 612 218 600 209 579 209 c 2
 566 209 l 1
309 -97 m 1
 200 -223 l 2
 192 -232 183 -237 175 -237 c 0
 167 -237 159 -229 159 -222 c 0
 159 -216 163 -209 170 -200 c 1
 282 -74 l 2
 290 -64 297 -59 306 -59 c 0
 314 -59 322 -67 322 -75 c 0
 322 -81 319 -89 309 -97 c 1
EndSplineSet
Ligature: 0 0 'liga' G uni0327
EndChar
StartChar: Umacron
Encoding: 320 362 214
Width: 598
Flags: W
HStem: -16 41<295 313> 522 41<176 212 187 338 493 569 504 655> 683 40<325 573>
VStem: 136 42<138 152> 155 204<538 547> 472 204<539 547>
DStem: 212 522 252 522 141 184 182 184 569 522 610 522 498 184 539 184
Fore
610 522 m 1xf4
 539 184 l 1
 515 72 409 -16 297 -16 c 0
 201 -16 136 47 136 140 c 0
 136 154 138 170 141 184 c 2
 212 522 l 1
 178 522 l 2xf4
 161 522 155 527 155 538 c 0
 155 553 167 563 187 563 c 2
 337 563 l 2
 353 563 359 559 359 547 c 0xec
 359 532 347 522 328 522 c 2
 252 522 l 1
 182 184 l 1
 178 174 178 161 178 150 c 0
 178 76 231 25 305 25 c 0
 394 25 479 95 498 184 c 1
 569 522 l 1
 495 522 l 2
 478 522 472 527 472 539 c 0
 472 553 484 563 504 563 c 2
 653 563 l 2
 670 563 676 559 676 547 c 0
 676 532 664 522 644 522 c 2
 610 522 l 1xf4
563 683 m 2
 326 683 l 2
 311 683 303 688 303 699 c 0
 303 714 316 723 336 723 c 2
 572 723 l 2
 589 723 595 718 595 708 c 0
 595 692 583 683 563 683 c 2
EndSplineSet
Ligature: 0 0 'liga' U uni0304
EndChar
StartChar: Uogonek
Encoding: 321 370 215
Width: 598
Flags: W
HStem: -155 30<326 345> -16 41<295 313> 522 41<176 212 187 337 493 569 504 655>
VStem: 136 42<132 152> 155 204<538 547> 263 42<-109 -98> 472 204<539 547>
DStem: 212 522 252 522 141 184 182 184 569 522 610 522 498 184 539 184
Fore
610 522 m 1xf6
 539 184 l 1
 521 104 476 52 356 -32 c 0
 319 -58 305 -76 305 -100 c 0
 305 -117 316 -125 337 -125 c 0
 363 -125 369 -123 392 -107 c 0
 394 -106 399 -104 402 -104 c 0
 407 -104 413 -110 413 -117 c 0
 413 -135 370 -155 330 -155 c 0
 286 -155 263 -138 263 -108 c 0
 263 -69 288 -41 350 -10 c 1
 326 -15 314 -16 297 -16 c 0
 201 -16 136 47 136 140 c 0
 136 154 138 170 141 184 c 2
 212 522 l 1
 178 522 l 2xf6
 161 522 155 527 155 538 c 0
 155 553 167 563 187 563 c 2
 337 563 l 2
 353 563 359 559 359 547 c 0xea
 359 532 347 522 328 522 c 2
 252 522 l 1
 182 184 l 1
 178 174 178 161 178 150 c 0
 178 76 231 25 305 25 c 0
 394 25 479 95 498 184 c 1
 569 522 l 1
 495 522 l 2
 478 522 472 527 472 539 c 0
 472 553 484 563 504 563 c 2
 653 563 l 2
 670 563 676 559 676 547 c 0
 676 532 664 522 644 522 c 2
 610 522 l 1xf6
EndSplineSet
Ligature: 0 0 'liga' U uni0328
EndChar
StartChar: adieresis
Encoding: 322 228 216
Width: 598
Flags: W
HStem: -16 41<218 248> 0 41<468 525> 217 41<316 366> 390 41<377 398> 511 99<288 309 508 530>
VStem: 93 42<85 98> 248 102<551 572> 468 104<551 572> 485 43<308 333>
DStem: 462 201 525 308 443 112 468 41 485 308 525 308 470 237 468 41
Fore
419 0 m 1x7f
 433 67 l 1
 360 10 295 -16 225 -16 c 0
 143 -16 93 23 93 87 c 0
 93 184 200 258 339 258 c 0
 383 258 414 252 470 237 c 1
 485 308 l 1
 485 322 l 2
 485 363 444 390 379 390 c 0
 345 390 303 382 231 360 c 0
 226 359 223 358 220 358 c 0
 212 358 205 365 205 374 c 0
 205 383 211 392 223 397 c 0
 258 411 353 431 391 431 c 0
 472 431 528 390 528 331 c 0xbe80
 528 322 527 316 525 308 c 1
 468 41 l 1
 523 41 l 2x7f
 540 41 546 36 546 25 c 0xbf
 546 10 534 0 515 0 c 2
 419 0 l 1x7f
443 112 m 1
 462 201 l 1
 427 211 382 217 337 217 c 0
 222 217 135 165 135 96 c 0
 135 51 170 25 231 25 c 0
 303 25 360 49 443 112 c 1
309 610 m 0
 333 610 350 593 350 572 c 0
 350 540 320 511 288 511 c 0
 265 511 248 528 248 551 c 0
 248 581 278 610 309 610 c 0
530 610 m 0
 553 610 572 593 572 572 c 0
 572 540 541 511 508 511 c 0
 485 511 468 528 468 551 c 0x3f
 468 581 499 610 530 610 c 0
EndSplineSet
KernsSLIF: 118 -42 0 0 119 -29 0 0 121 -56 0 0
Ligature: 0 0 'liga' a uni0308
EndChar
StartChar: aacute
Encoding: 323 225 217
Width: 598
Flags: W
HStem: -16 41<218 238> 0 41<468 525> 217 41<316 366> 390 41<377 398>
VStem: 93 42<85 98> 485 43<308 333>
DStem: 462 201 525 308 443 112 468 41 485 308 525 308 470 237 468 41 494 630 515 600 359 530 379 499
Fore
419 0 m 1x7c
 433 67 l 1
 360 10 295 -16 225 -16 c 0xbc
 143 -16 93 23 93 87 c 0
 93 184 200 258 339 258 c 0
 383 258 414 252 470 237 c 1
 485 308 l 1
 485 322 l 2
 485 363 444 390 379 390 c 0
 345 390 303 382 231 360 c 0
 226 359 223 358 220 358 c 0
 212 358 205 365 205 374 c 0
 205 383 211 392 223 397 c 0
 258 411 353 431 391 431 c 0
 472 431 528 390 528 331 c 0
 528 322 527 316 525 308 c 1
 468 41 l 1
 523 41 l 2x7c
 540 41 546 36 546 25 c 0xbc
 546 10 534 0 515 0 c 2
 419 0 l 1x7c
443 112 m 1
 462 201 l 1
 427 211 382 217 337 217 c 0
 222 217 135 165 135 96 c 0
 135 51 170 25 231 25 c 0
 303 25 360 49 443 112 c 1
515 600 m 2
 379 499 l 2
 370 493 364 490 359 490 c 0
 350 490 342 498 342 506 c 0
 342 515 346 519 359 530 c 1
 494 630 l 2
 504 637 508 640 515 640 c 0
 524 640 532 632 532 623 c 0
 532 614 527 608 515 600 c 2
EndSplineSet
KernsSLIF: 118 -42 0 0 119 -29 0 0 121 -56 0 0
Ligature: 0 0 'liga' a acutecomb
EndChar
StartChar: agrave
Encoding: 324 224 218
Width: 598
Flags: W
HStem: -16 41<218 238> 0 41<468 525> 217 41<311 366> 390 41<377 398>
VStem: 93 42<85 98> 485 43<308 333>
DStem: 313 600 347 630 407 499 439 530 462 201 525 308 443 112 468 41 485 308 525 308 470 237 468 41
Fore
419 0 m 1x7c
 433 67 l 1
 360 10 295 -16 225 -16 c 0xbc
 143 -16 93 23 93 87 c 0
 93 184 200 258 339 258 c 0
 383 258 414 252 470 237 c 1
 485 308 l 1
 485 322 l 2
 485 363 444 390 379 390 c 0
 345 390 303 382 231 360 c 0
 226 359 223 358 220 358 c 0
 212 358 205 365 205 374 c 0
 205 383 211 392 223 397 c 0
 258 411 353 431 391 431 c 0
 472 431 528 390 528 331 c 0
 528 322 527 316 525 308 c 1
 468 41 l 1
 523 41 l 2x7c
 540 41 546 36 546 25 c 0xbc
 546 10 534 0 515 0 c 2
 419 0 l 1x7c
443 112 m 1
 462 201 l 1
 427 211 382 217 337 217 c 0
 222 217 135 165 135 96 c 0
 135 51 170 25 231 25 c 0
 303 25 360 49 443 112 c 1
347 630 m 2
 439 530 l 1
 442 528 448 516 448 515 c 0
 448 502 434 490 422 490 c 0
 417 490 411 493 407 499 c 1
 313 600 l 2
 308 606 305 610 305 614 c 0
 305 627 317 640 331 640 c 0
 336 640 340 637 347 630 c 2
EndSplineSet
KernsSLIF: 118 -42 0 0 119 -29 0 0 121 -56 0 0
Ligature: 0 0 'liga' a gravecomb
EndChar
StartChar: acircumflex
Encoding: 325 226 219
Width: 598
Flags: W
HStem: -16 41<218 238> 0 41<468 525> 217 41<316 366> 390 41<377 398>
VStem: 93 42<85 98> 485 43<308 333>
DStem: 415 586 426 640 502 498 535 532 426 640 415 586 271 530 288 498 462 201 525 308 443 112 468 41 485 308 525 308 470 237 468 41
Fore
419 0 m 1x7c
 433 67 l 1
 360 10 295 -16 225 -16 c 0xbc
 143 -16 93 23 93 87 c 0
 93 184 200 258 339 258 c 0
 383 258 414 252 470 237 c 1
 485 308 l 1
 485 322 l 2
 485 363 444 390 379 390 c 0
 345 390 303 382 231 360 c 0
 226 359 223 358 220 358 c 0
 212 358 205 365 205 374 c 0
 205 383 211 392 223 397 c 0
 258 411 353 431 391 431 c 0
 472 431 528 390 528 331 c 0
 528 322 527 316 525 308 c 1
 468 41 l 1
 523 41 l 2x7c
 540 41 546 36 546 25 c 0xbc
 546 10 534 0 515 0 c 2
 419 0 l 1x7c
443 112 m 1
 462 201 l 1
 427 211 382 217 337 217 c 0
 222 217 135 165 135 96 c 0
 135 51 170 25 231 25 c 0
 303 25 360 49 443 112 c 1
426 640 m 1
 535 532 l 1
 542 523 544 519 544 515 c 0
 544 502 532 490 519 490 c 0
 515 490 508 493 502 498 c 1
 415 586 l 1
 288 498 l 2
 282 493 274 490 269 490 c 0
 260 490 252 498 252 506 c 0
 252 515 258 522 267 528 c 2
 271 530 l 1
 426 640 l 1
EndSplineSet
Ligature: 0 0 'liga' a uni0302
EndChar
StartChar: abreve
Encoding: 326 259 220
Width: 598
Flags: W
HStem: -16 41<218 238> 0 41<468 525> 217 41<316 366> 390 41<377 398> 489 41<402 421> 601 20G<299.5 310 551 561.5>
VStem: 93 42<85 98> 280 42<579 584> 485 43<308 333>
DStem: 462 201 525 308 443 112 468 41 485 308 525 308 470 237 468 41
Fore
419 0 m 1x7f80
 433 67 l 1
 360 10 295 -16 225 -16 c 0xbf80
 143 -16 93 23 93 87 c 0
 93 184 200 258 339 258 c 0
 383 258 414 252 470 237 c 1
 485 308 l 1
 485 322 l 2
 485 363 444 390 379 390 c 0
 345 390 303 382 231 360 c 0
 226 359 223 358 220 358 c 0
 212 358 205 365 205 374 c 0
 205 383 211 392 223 397 c 0
 258 411 353 431 391 431 c 0
 472 431 528 390 528 331 c 0
 528 322 527 316 525 308 c 1
 468 41 l 1
 523 41 l 2x7f80
 540 41 546 36 546 25 c 0xbf80
 546 10 534 0 515 0 c 2
 419 0 l 1x7f80
443 112 m 1
 462 201 l 1
 427 211 382 217 337 217 c 0
 222 217 135 165 135 96 c 0
 135 51 170 25 231 25 c 0
 303 25 360 49 443 112 c 1
324 610 m 1
 322 581 l 1
 322 576 339 557 345 551 c 0
 360 539 388 530 414 530 c 0
 467 530 519 559 532 598 c 0
 536 613 545 621 557 621 c 0
 566 621 574 612 574 606 c 0
 574 589 552 552 532 534 c 0
 500 506 451 489 404 489 c 0
 333 489 280 528 280 584 c 0
 280 604 292 621 307 621 c 0
 313 621 317 619 324 610 c 1
EndSplineSet
Ligature: 0 0 'liga' a uni0306
EndChar
StartChar: atilde
Encoding: 327 227 221
Width: 598
Flags: W
HStem: -16 41<218 249> 0 41<468 525> 217 41<316 366> 390 41<377 398> 516 41<461 473> 564 42<348 359>
VStem: 93 42<85 98> 485 43<308 333>
DStem: 462 201 525 308 443 112 468 41 485 308 525 308 470 237 468 41
Fore
419 0 m 1x7f
 433 67 l 1
 360 10 295 -16 225 -16 c 0xbf
 143 -16 93 23 93 87 c 0
 93 184 200 258 339 258 c 0
 383 258 414 252 470 237 c 1
 485 308 l 1
 485 322 l 2
 485 363 444 390 379 390 c 0
 345 390 303 382 231 360 c 0
 226 359 223 358 220 358 c 0
 212 358 205 365 205 374 c 0
 205 383 211 392 223 397 c 0
 258 411 353 431 391 431 c 0
 472 431 528 390 528 331 c 0
 528 322 527 316 525 308 c 1
 468 41 l 1
 523 41 l 2x7f
 540 41 546 36 546 25 c 0xbf
 546 10 534 0 515 0 c 2
 419 0 l 1x7f
443 112 m 1
 462 201 l 1
 427 211 382 217 337 217 c 0
 222 217 135 165 135 96 c 0
 135 51 170 25 231 25 c 0
 303 25 360 49 443 112 c 1
553 603 m 0
 562 603 570 596 570 587 c 0
 570 578 566 573 549 558 c 0
 513 528 489 516 464 516 c 0
 442 516 425 523 390 547 c 0
 373 559 362 564 350 564 c 0
 330 564 319 558 284 527 c 0
 279 522 271 519 265 519 c 0
 256 519 249 525 249 534 c 0
 249 542 257 553 275 568 c 1
 309 593 333 606 357 606 c 0
 377 606 390 600 417 583 c 0
 449 561 458 557 471 557 c 0
 487 557 499 564 536 595 c 0
 542 601 549 603 553 603 c 0
EndSplineSet
Ligature: 0 0 'liga' a tildecomb
EndChar
StartChar: aring
Encoding: 328 229 222
Width: 598
Flags: W
HStem: -16 41<218 238> 0 41<468 525> 217 41<314 366> 390 41<377 400> 481 32<389 401> 627 34<417 434>
VStem: 93 42<85 98> 316 34<550 561> 472 34<575 593> 485 43<308 333>
DStem: 462 201 525 308 443 112 468 41 485 308 525 308 470 237 468 41
Fore
419 0 m 1x7f40
 433 67 l 1
 360 10 295 -16 225 -16 c 0xbf40
 143 -16 93 23 93 87 c 0
 93 184 200 258 339 258 c 0
 383 258 414 252 470 237 c 1
 485 308 l 1
 485 322 l 2
 485 363 444 390 379 390 c 0
 345 390 303 382 231 360 c 0
 226 359 223 358 220 358 c 0
 212 358 205 365 205 374 c 0
 205 383 211 392 223 397 c 0
 258 411 353 431 391 431 c 0
 472 431 528 390 528 331 c 0
 528 322 527 316 525 308 c 1
 468 41 l 1
 523 41 l 2x7f40
 540 41 546 36 546 25 c 0xbf40
 546 10 534 0 515 0 c 2
 419 0 l 1x7f40
443 112 m 1
 462 201 l 1
 427 211 382 217 337 217 c 0
 222 217 135 165 135 96 c 0
 135 51 170 25 231 25 c 0
 303 25 360 49 443 112 c 1
430 661 m 0
 475 661 506 631 506 589 c 0x3f80
 506 533 451 481 392 481 c 0
 348 481 316 511 316 552 c 0
 316 608 373 661 430 661 c 0
424 627 m 0
 386 627 350 593 350 559 c 0
 350 533 371 513 399 513 c 0
 437 513 472 546 472 583 c 0
 472 609 451 627 424 627 c 0
EndSplineSet
KernsSLIF: 118 -42 0 0 119 -29 0 0 121 -56 0 0
Ligature: 0 0 'liga' a uni030A
EndChar
StartChar: aogonek
Encoding: 329 261 223
Width: 598
Flags: W
HStem: -155 32<442 458> -16 41<218 238> 217 41<316 366> 390 41<375 398>
VStem: 93 42<84 102> 377 40<-109 -98> 485 43<308 333>
DStem: 462 201 525 308 443 112 468 41 485 308 525 308 470 237 468 41
Fore
468 41 m 1
 523 41 l 2
 540 41 546 36 546 25 c 0
 546 13 539 6 523 -1 c 0
 456 -29 417 -64 417 -100 c 0
 417 -115 431 -123 456 -123 c 0
 475 -123 483 -121 508 -107 c 0
 511 -106 515 -104 517 -104 c 0
 523 -104 528 -109 528 -117 c 0
 528 -133 484 -155 443 -155 c 0
 402 -155 377 -138 377 -109 c 0
 377 -79 396 -49 427 -25 c 1
 441 -17 448 -13 477 0 c 1
 419 0 l 1
 433 67 l 1
 360 10 295 -16 225 -16 c 0
 143 -16 93 23 93 87 c 0
 93 184 200 258 339 258 c 0
 383 258 414 252 470 237 c 1
 485 308 l 1
 485 322 l 2
 485 363 444 390 379 390 c 0
 345 390 303 382 231 360 c 0
 226 359 223 358 220 358 c 0
 212 358 205 365 205 374 c 0
 205 383 211 392 223 397 c 0
 258 411 353 431 391 431 c 0
 472 431 528 390 528 331 c 0
 528 322 527 316 525 308 c 1
 468 41 l 1
443 112 m 1
 462 201 l 1
 427 211 382 217 337 217 c 0
 222 217 135 165 135 96 c 0
 135 51 170 25 231 25 c 0
 303 25 360 49 443 112 c 1
EndSplineSet
Ligature: 0 0 'liga' a uni0328
EndChar
StartChar: cacute
Encoding: 330 263 224
Width: 598
Flags: W
HStem: -17 41<296 314> 391 41<386 410>
VStem: 121 42<150 163>
DStem: 540 630 559 600 405 530 425 499
Fore
551 376 m 1
 553 390 l 1
 557 408 566 417 580 417 c 0
 589 417 596 410 596 402 c 0
 596 399 595 394 593 390 c 1
 575 299 l 1
 572 280 562 269 549 269 c 0
 542 269 536 273 532 282 c 1
 535 318 l 1
 535 323 510 353 498 362 c 0
 477 379 433 391 393 391 c 0
 323 391 258 360 216 306 c 0
 183 265 163 210 163 161 c 0
 163 81 225 24 312 24 c 0
 387 24 460 50 519 97 c 0
 527 104 534 108 539 108 c 0
 546 108 555 100 555 91 c 0
 555 79 534 59 501 39 c 0
 442 2 369 -17 301 -17 c 0
 197 -17 121 53 121 152 c 0
 121 301 252 432 403 432 c 0
 465 432 516 413 551 376 c 1
559 600 m 1
 425 499 l 2
 416 493 410 490 405 490 c 0
 394 490 388 498 388 506 c 0
 388 515 392 519 405 530 c 1
 540 630 l 2
 550 637 555 640 561 640 c 0
 570 640 576 632 576 623 c 0
 576 614 573 608 559 600 c 1
EndSplineSet
Ligature: 0 0 'liga' c acutecomb
EndChar
StartChar: ccaron
Encoding: 331 269 225
Width: 598
Flags: W
HStem: -17 41<294 328> 391 41<391 410>
VStem: 121 42<150 163>
DStem: 296 600 326 631 404 490 415 542 542 631 559 598 415 542 404 490
Fore
551 376 m 1
 553 390 l 1
 557 408 566 417 580 417 c 0
 589 417 596 410 596 402 c 0
 596 399 595 394 593 390 c 1
 575 299 l 1
 572 280 562 269 549 269 c 0
 542 269 536 273 532 282 c 1
 535 318 l 1
 535 323 510 353 498 362 c 0
 477 379 433 391 393 391 c 0
 323 391 258 360 216 306 c 0
 183 265 163 210 163 161 c 0
 163 81 225 24 312 24 c 0
 387 24 460 50 519 97 c 0
 527 104 534 108 539 108 c 0
 546 108 555 100 555 91 c 0
 555 79 534 59 501 39 c 0
 442 2 369 -17 301 -17 c 0
 197 -17 121 53 121 152 c 0
 121 301 252 432 403 432 c 0
 465 432 516 413 551 376 c 1
404 490 m 1
 296 600 l 1
 288 606 286 608 286 614 c 0
 286 627 299 640 311 640 c 0
 316 640 322 636 326 631 c 2
 415 542 l 1
 542 631 l 2
 549 636 556 640 561 640 c 0
 570 640 576 632 576 623 c 0
 576 613 573 608 559 598 c 2
 404 490 l 1
EndSplineSet
Ligature: 0 0 'liga' c uni030C
EndChar
StartChar: ccedilla
Encoding: 332 231 226
Width: 598
Flags: W
HStem: -174 39<258 280> -81 105<280 313> 391 40<391 412>
VStem: 123 41<145 163> 322 37<-103 -93>
Fore
311 -16 m 1
 305 -47 l 1
 340 -49 359 -63 359 -93 c 0
 359 -138 318 -174 265 -174 c 0
 228 -174 184 -154 184 -138 c 0
 184 -125 197 -114 208 -114 c 0
 214 -114 216 -115 223 -119 c 0
 243 -131 256 -135 271 -135 c 0
 300 -135 322 -121 322 -101 c 0
 322 -89 308 -81 280 -81 c 2
 260 -81 l 1
 274 -15 l 1
 242 -8 228 -5 209 4 c 0
 155 29 123 87 123 154 c 0
 123 303 252 431 407 431 c 0
 468 431 516 411 551 376 c 1
 553 390 l 1
 557 408 566 417 580 417 c 0
 589 417 596 410 596 402 c 0
 596 399 595 394 593 390 c 1
 575 299 l 1
 572 280 562 269 549 269 c 0
 542 269 536 273 532 282 c 1
 535 318 l 1
 535 323 510 353 498 362 c 0
 477 379 434 391 393 391 c 0
 323 391 258 360 217 306 c 1
 184 265 164 209 164 161 c 0
 164 81 226 24 313 24 c 0
 388 24 460 50 519 97 c 0
 527 104 534 108 539 108 c 0
 546 108 555 100 555 91 c 0
 555 75 515 42 464 19 c 0
 417 -2 370 -13 311 -16 c 1
EndSplineSet
Ligature: 0 0 'liga' c uni0327
EndChar
StartChar: dcaron
Encoding: 333 271 227
Width: 598
Flags: W
HStem: -16 41<272 295> 0 41<510 566> 390 41<357 375> 563 41<524 580>
VStem: 102 42<155 177>
DStem: 481 89 630 604 461 0 510 41 580 563 630 604 530 326 510 41 733 603 762 580 623 477 652 455
Fore
630 604 m 1xb8
 510 41 l 1
 566 41 l 2x78
 581 41 587 36 587 25 c 0xb8
 587 10 575 0 556 0 c 2
 461 0 l 1x78
 481 89 l 1
 417 18 350 -16 274 -16 c 0
 176 -16 102 58 102 157 c 0
 102 299 232 431 371 431 c 0
 447 431 496 398 530 326 c 1
 580 563 l 1
 525 563 l 2
 508 563 502 567 502 580 c 0
 502 595 515 604 535 604 c 2
 630 604 l 1xb8
365 390 m 0
 251 390 144 284 144 169 c 0
 144 84 203 25 286 25 c 0xb8
 403 25 508 132 508 248 c 0
 508 331 450 390 365 390 c 0
762 580 m 2
 652 455 l 2
 644 445 635 441 627 441 c 0
 619 441 610 448 610 455 c 0
 610 461 615 468 623 477 c 2
 733 603 l 2
 742 614 749 618 758 618 c 0
 766 618 774 610 774 603 c 0
 774 596 771 590 762 580 c 2
EndSplineSet
Ligature: 0 0 'liga' d uni030C
EndChar
